<svg width="36" height="24" viewBox="0 0 36 24" fill="none" xmlns="http://www.w3.org/2000/svg">
<path d="M9.56493 8.21083C9.87801 7.85274 10.0569 7.36037 10.0122 6.82324C9.56493 6.82324 9.07297 7.09181 8.75988 7.49465C8.49152 7.80798 8.26789 8.34512 8.31261 8.79273C8.75988 8.88225 9.25184 8.56891 9.56493 8.21083Z" fill="#8F9194"/>
<path d="M9.96749 8.92649C9.25186 8.88173 8.67043 9.32933 8.35734 9.32933C8.04425 9.32933 7.50754 8.97125 6.97082 8.97125C6.2552 8.97125 5.58428 9.37409 5.22647 10.0455C4.46612 11.3436 5.04754 13.2683 5.76317 14.3425C6.12098 14.8797 6.56825 15.4616 7.10497 15.4168C7.64169 15.4168 7.86537 15.0587 8.49154 15.0587C9.11771 15.0587 9.34134 15.4168 9.87806 15.4168C10.4595 15.4168 10.8173 14.8797 11.1751 14.3425C11.5777 13.7606 11.7566 13.1788 11.7566 13.134C11.7566 13.134 10.6384 12.6864 10.6384 11.3883C10.6384 10.3141 11.5329 9.77694 11.5776 9.77694C11.0409 9.01601 10.2806 8.92649 9.96749 8.92649Z" fill="#8F9194"/>
<path d="M16.9896 7.44971C18.5103 7.44971 19.5837 8.52396 19.5837 10.0458C19.5837 11.5677 18.5103 12.6419 16.9448 12.6419H15.2453V15.3276H14.0376V7.44971H16.9896ZM15.2453 11.6124H16.6318C17.7052 11.6124 18.2866 11.0306 18.2866 10.0458C18.2866 9.06109 17.6605 8.4792 16.6318 8.4792H15.2453V11.6124Z" fill="#8F9194"/>
<path d="M19.8521 13.7165C19.8521 12.687 20.6124 12.1051 22.0437 12.0156L23.5644 11.926V11.4784C23.5644 10.8518 23.1619 10.4937 22.4015 10.4937C21.7753 10.4937 21.3281 10.807 21.2386 11.2994H20.1205C20.1652 10.2699 21.1044 9.55371 22.4015 9.55371C23.788 9.55371 24.6826 10.2699 24.6826 11.4337V15.3726H23.5644V14.4326H23.5197C23.2066 15.0593 22.491 15.4174 21.7306 15.4174C20.6572 15.4174 19.8521 14.746 19.8521 13.7165ZM23.5644 13.1793V12.7317L22.2226 12.8213C21.4622 12.866 21.0597 13.1346 21.0597 13.6717C21.0597 14.1641 21.4623 14.4774 22.1332 14.4774C22.9382 14.4774 23.5644 13.9403 23.5644 13.1793Z" fill="#8F9194"/>
<path d="M25.756 17.4314V16.4915C25.8455 16.4915 26.0244 16.5362 26.1138 16.5362C26.6505 16.5362 26.9636 16.3124 27.1425 15.7305L27.232 15.3724L25.1746 9.64307H26.4269L27.8582 14.2982H27.9029L29.3342 9.64307H30.5865L28.4396 15.6858C27.9476 17.0733 27.4109 17.521 26.2033 17.521C26.1138 17.4762 25.8455 17.4762 25.756 17.4314Z" fill="#8F9194"/>
<path d="M3.03479 0.735352H32.465C33.762 0.735352 34.8354 1.8096 34.8354 3.10766V21.012C34.8354 22.31 33.762 23.3843 32.465 23.3843H3.03479C1.73771 23.3843 0.664307 22.31 0.664307 21.012V3.10766C0.664307 1.8096 1.69299 0.735352 3.03479 0.735352Z" stroke="#8F9194" stroke-width="1.1749" stroke-miterlimit="10"/>
</svg>
