<svg width="100" height="100" viewBox="0 0 100 100" fill="none" xmlns="http://www.w3.org/2000/svg">
<g filter="url(#filter0_b_145_1289)">
<rect x="0.5" y="0.5" width="99" height="99" rx="49.5" stroke="white"/>
</g>
<path d="M52.1663 62.3071C52.1052 62.246 52.0566 62.1734 52.0235 62.0935C51.9904 62.0137 51.9734 61.9281 51.9734 61.8416C51.9734 61.7552 51.9904 61.6695 52.0235 61.5897C52.0566 61.5098 52.1052 61.4373 52.1663 61.3762L62.8847 50.6578L35.5271 50.6578C35.3526 50.6578 35.1853 50.5885 35.0619 50.4651C34.9385 50.3417 34.8692 50.1744 34.8692 49.9999C34.8692 49.8254 34.9385 49.6581 35.0619 49.5347C35.1853 49.4114 35.3526 49.3421 35.5271 49.3421L62.8847 49.3421L52.1663 38.6237C52.1052 38.5626 52.0567 38.49 52.0236 38.4101C51.9906 38.3303 51.9735 38.2447 51.9735 38.1582C51.9735 38.0718 51.9906 37.9862 52.0236 37.9063C52.0567 37.8265 52.1052 37.7539 52.1663 37.6928C52.2274 37.6317 52.3 37.5832 52.3799 37.5501C52.4597 37.517 52.5453 37.5 52.6318 37.5C52.7182 37.5 52.8038 37.517 52.8837 37.5501C52.9635 37.5832 53.0361 37.6317 53.0972 37.6928L64.9389 49.5345C65.0001 49.5956 65.0486 49.6681 65.0817 49.748C65.1148 49.8279 65.1318 49.9135 65.1318 49.9999C65.1318 50.0864 65.1148 50.172 65.0817 50.2519C65.0486 50.3317 65.0001 50.4043 64.9389 50.4654L53.0972 62.3071C53.0361 62.3682 52.9635 62.4167 52.8837 62.4499C52.8038 62.483 52.7182 62.5 52.6318 62.5C52.5453 62.5 52.4597 62.483 52.3798 62.4499C52.3 62.4167 52.2274 62.3682 52.1663 62.3071Z" fill="white"/>
<defs>
<filter id="filter0_b_145_1289" x="-50" y="-50" width="200" height="200" filterUnits="userSpaceOnUse" color-interpolation-filters="sRGB">
<feFlood flood-opacity="0" result="BackgroundImageFix"/>
<feGaussianBlur in="BackgroundImageFix" stdDeviation="25"/>
<feComposite in2="SourceAlpha" operator="in" result="effect1_backgroundBlur_145_1289"/>
<feBlend mode="normal" in="SourceGraphic" in2="effect1_backgroundBlur_145_1289" result="shape"/>
</filter>
</defs>
</svg>
