<svg width="10" height="5" viewBox="0 0 10 5" fill="none" xmlns="http://www.w3.org/2000/svg">
<path d="M4.76213 4.14548L0.608615 0.103808C0.575143 0.0705323 0.535404 0.0442252 0.491697 0.0264087C0.447991 0.00859211 0.401185 -0.000380057 0.353989 1.23823e-05C0.306792 0.000404344 0.260142 0.0101523 0.216738 0.0286927C0.173333 0.0472326 0.134037 0.0741963 0.101122 0.108024C0.0682074 0.141851 0.042328 0.18187 0.0249815 0.225765C0.0076351 0.26966 -0.000833959 0.31656 6.44781e-05 0.363749C0.000962915 0.410939 0.011211 0.457481 0.0302157 0.500684C0.0492204 0.543887 0.0766043 0.582891 0.110783 0.615442L4.51322 4.89889C4.57986 4.96372 4.66916 5 4.76213 5C4.85511 5 4.94441 4.96372 5.01105 4.89889L9.41348 0.615441C9.44766 0.582891 9.47505 0.543887 9.49405 0.500684C9.51306 0.457481 9.5233 0.410938 9.5242 0.363749C9.5251 0.316559 9.51663 0.269659 9.49929 0.225764C9.48194 0.181869 9.45606 0.141851 9.42315 0.108023C9.39023 0.0741959 9.35093 0.0472322 9.30753 0.0286923C9.26412 0.0101519 9.21747 0.000403955 9.17028 1.19969e-05C9.12308 -0.000380438 9.07628 0.00859173 9.03257 0.0264083C8.98886 0.0442248 8.94912 0.0705319 8.91565 0.103808L4.76213 4.14548Z" fill="white"/>
</svg>
