<svg width="100" height="100" viewBox="0 0 100 100" fill="none" xmlns="http://www.w3.org/2000/svg">
<g filter="url(#filter0_b_145_1292)">
<rect x="99.5" y="99.5" width="99" height="99" rx="49.5" transform="rotate(-180 99.5 99.5)" stroke="white"/>
</g>
<path d="M47.8337 37.6929C47.8949 37.754 47.9434 37.8266 47.9765 37.9065C48.0096 37.9863 48.0266 38.0719 48.0266 38.1584C48.0266 38.2448 48.0096 38.3305 47.9765 38.4103C47.9434 38.4902 47.8949 38.5627 47.8337 38.6238L37.1153 49.3422L64.4729 49.3422C64.6474 49.3422 64.8147 49.4115 64.9381 49.5349C65.0615 49.6583 65.1308 49.8256 65.1308 50.0001C65.1308 50.1746 65.0615 50.3419 64.9381 50.4653C64.8147 50.5886 64.6474 50.658 64.4729 50.658L37.1153 50.6579L47.8337 61.3763C47.8948 61.4374 47.9433 61.51 47.9764 61.5899C48.0094 61.6697 48.0265 61.7553 48.0265 61.8418C48.0265 61.9282 48.0094 62.0138 47.9764 62.0937C47.9433 62.1735 47.8948 62.2461 47.8337 62.3072C47.7726 62.3683 47.7 62.4168 47.6201 62.4499C47.5403 62.483 47.4547 62.5 47.3682 62.5C47.2818 62.5 47.1962 62.483 47.1163 62.4499C47.0365 62.4168 46.9639 62.3683 46.9028 62.3072L35.0611 50.4655C34.9999 50.4044 34.9514 50.3319 34.9183 50.252C34.8852 50.1721 34.8682 50.0865 34.8682 50.0001C34.8682 49.9136 34.8852 49.828 34.9183 49.7481C34.9514 49.6683 34.9999 49.5957 35.0611 49.5346L46.9028 37.6929C46.9639 37.6318 47.0365 37.5833 47.1163 37.5501C47.1962 37.517 47.2818 37.5 47.3682 37.5C47.4547 37.5 47.5403 37.517 47.6202 37.5501C47.7 37.5833 47.7726 37.6318 47.8337 37.6929Z" fill="white"/>
<defs>
<filter id="filter0_b_145_1292" x="-50" y="-50" width="200" height="200" filterUnits="userSpaceOnUse" color-interpolation-filters="sRGB">
<feFlood flood-opacity="0" result="BackgroundImageFix"/>
<feGaussianBlur in="BackgroundImageFix" stdDeviation="25"/>
<feComposite in2="SourceAlpha" operator="in" result="effect1_backgroundBlur_145_1292"/>
<feBlend mode="normal" in="SourceGraphic" in2="effect1_backgroundBlur_145_1292" result="shape"/>
</filter>
</defs>
</svg>
