<svg width="50" height="12" viewBox="0 0 50 12" fill="none" xmlns="http://www.w3.org/2000/svg">
<path fill-rule="evenodd" clip-rule="evenodd" d="M6.41317 5.61205C6.36844 5.56729 6.36844 5.56729 6.41317 5.61205C6.41317 5.56729 6.41317 5.56728 6.41317 5.52252L6.90521 5.03016L7.3077 4.62731L6.81572 5.03016H6.23431H6.18953V4.9854V3.77686L6.1001 4.4035L5.69755 4.80636H5.65284H5.60812L4.71359 3.91115L5.11614 4.4035V4.9854V5.03016H5.07137H3.86377L4.48995 5.11968L4.8925 5.52252C4.8925 5.52252 4.8925 5.52252 4.8925 5.56728C4.8925 5.56728 4.8925 5.56729 4.8925 5.61205L4.04269 6.4625L4.53467 6.05966H5.11614H5.16085V6.10442V7.35771L5.25029 6.73107L5.65284 6.32822H5.69755H5.74227L6.59209 7.17867L6.18953 6.6863V6.10442V6.05966H6.23431H7.4419L6.81572 6.01489L6.41317 5.61205Z" fill="#8F9194"/>
<path fill-rule="evenodd" clip-rule="evenodd" d="M9.58885 0.464844H1.62748C1.3144 0.464844 1.04601 0.599131 0.82238 0.778174C0.598747 1.00198 0.4646 1.27054 0.4646 1.58386V9.55127C0.4646 9.86459 0.598747 10.1332 0.82238 10.357C1.04601 10.5808 1.3144 10.6703 1.62748 10.6703H9.58885C9.90194 10.6703 10.1703 10.536 10.3939 10.357C10.6175 10.1332 10.707 9.86459 10.7517 9.55127V1.58386C10.7517 1.27054 10.6175 1.00198 10.3939 0.778174C10.1703 0.599131 9.90194 0.464844 9.58885 0.464844ZM8.64955 6.05993L7.79979 6.91039H7.75501H7.7103L7.48667 6.68658V7.98464V8.0294H7.44195H6.23435H6.18958V7.98464V7.67132L5.25033 8.56654C5.25033 8.56654 5.25034 8.56654 5.20562 8.56654C5.16089 8.56654 5.20563 8.56654 5.1609 8.56654L4.31108 7.71609C4.31108 7.71609 4.31108 7.71608 4.31108 7.67132C4.31108 7.62656 4.31108 7.67132 4.31108 7.62656L4.53472 7.40276H3.23763H3.19292V7.35799V6.14946V6.1047H3.23763H3.55075L2.61145 5.20948V5.16472V5.11996L3.46127 4.26951H3.50598H3.55075L3.77438 4.49331V3.19525V3.15049H3.8191H5.0267H5.07141V3.19525V3.50857L6.01072 2.5686H6.05543H6.10015L6.99468 3.41905C6.99468 3.41905 6.99468 3.41906 6.99468 3.46382C6.99468 3.50858 6.99468 3.46381 6.99468 3.50857L6.77105 3.73237H8.06813H8.11285V3.77713V4.98568V5.03044H8.06813H7.75501L8.69432 5.97041C8.69432 5.97041 8.69427 6.01517 8.64955 6.05993Z" fill="#8F9194"/>
<path d="M23.5882 1.04706L23.4988 2.34513C23.4541 2.79274 23.454 3.19557 23.4093 3.5089C23.3646 4.04603 23.3199 5.34409 22.6043 5.34409H22.5596C22.5148 5.34409 22.4701 5.34409 22.4701 5.38885C22.4253 5.43362 22.4254 5.43362 22.4254 5.47838V6.32883V6.3736C22.4254 6.3736 22.4253 6.41835 22.4701 6.41835C22.5148 6.41835 22.5148 6.46311 22.5148 6.46311H22.5596H22.6043C22.8726 6.50787 23.141 6.46311 23.4093 6.32883C23.6777 6.19455 23.8566 6.0155 24.0355 5.7917C24.1697 5.56789 24.2592 5.38885 24.3486 5.12029C24.4381 4.85172 24.4828 4.58316 24.5275 4.3146C24.5722 4.00127 24.617 3.68794 24.6617 3.32986C24.7064 2.97177 24.7064 2.56892 24.7511 2.16608L24.7959 1.58419H26.4955V6.32883V6.3736C26.4955 6.3736 26.4955 6.41835 26.5402 6.41835L26.585 6.46311H26.6297H27.6136H27.6584C27.6584 6.46311 27.7031 6.46311 27.7031 6.41835L27.7478 6.3736V6.32883V0.868017C27.7478 0.823257 27.7479 0.733738 27.7031 0.688977C27.6584 0.644217 27.6584 0.599461 27.6136 0.554701C27.5689 0.50994 27.5242 0.465174 27.4795 0.465174C27.4348 0.465174 27.3453 0.42041 27.3006 0.42041H23.9908C23.9013 0.42041 23.7672 0.465179 23.7224 0.554701C23.633 0.644222 23.5882 0.733733 23.5882 0.823254C23.5882 0.912775 23.5882 0.957536 23.5882 1.04706ZM13.2117 6.50787H15.4927C15.7611 6.50787 16.0294 6.50787 16.2531 6.41835C16.4767 6.32882 16.745 6.19454 16.924 6.0155C17.1029 5.83646 17.2818 5.61266 17.3712 5.38885C17.4607 5.16505 17.5501 4.89648 17.5501 4.62792C17.5501 4.49363 17.5501 4.40412 17.5501 4.26984C17.4607 3.82223 17.2371 3.41938 16.8792 3.10605C16.5214 2.79273 16.0742 2.65845 15.6269 2.65845H14.1062V1.58419H16.7003H16.7451C16.7451 1.58419 16.7898 1.58419 16.7898 1.53943L16.8345 1.49467V1.44992V0.644214C16.8345 0.554692 16.7898 0.465174 16.6556 0.465174H13.2117C13.1669 0.465174 13.0775 0.465174 13.0328 0.465174C12.988 0.465174 12.9433 0.50994 12.8986 0.554701C12.8538 0.599461 12.8091 0.644217 12.8091 0.688977C12.8091 0.733738 12.7644 0.823257 12.7644 0.868017V6.10503C12.7644 6.14979 12.7644 6.19455 12.8091 6.28407C12.8091 6.32883 12.8538 6.37359 12.8986 6.41835C12.9433 6.46311 12.988 6.50787 13.0328 6.50787C13.1222 6.50787 13.1669 6.50787 13.2117 6.50787ZM40.808 6.32883V4.3146H42.2393C42.5524 4.3146 42.8655 4.22508 43.1338 4.0908C43.4022 3.95651 43.6705 3.73271 43.8047 3.46415C43.9836 3.19558 44.0731 2.88226 44.1178 2.56893C44.1625 2.25561 44.0731 1.94228 43.9389 1.62896C43.8494 1.36039 43.6705 1.13659 43.4469 0.957544C43.2233 0.778501 42.9996 0.644222 42.7313 0.554701C42.5076 0.50994 42.284 0.465174 42.0604 0.465174H39.8688C39.7793 0.465174 39.6451 0.50994 39.5557 0.554701C39.4662 0.599461 39.4215 0.733733 39.4215 0.823254C39.4215 0.868015 39.4215 0.912784 39.4215 0.957544V6.3736V6.41835C39.4215 6.41835 39.4215 6.46311 39.4662 6.46311L39.5109 6.50787H39.5557H40.5844C40.6291 6.50787 40.6291 6.50787 40.6739 6.50787C40.7186 6.50787 40.7186 6.46311 40.7186 6.46311C40.808 6.41835 40.808 6.37359 40.808 6.32883ZM42.776 2.38988C42.776 2.61368 42.6865 2.79273 42.5524 2.92701C42.4182 3.0613 42.1946 3.15082 42.0157 3.15082H40.8527V1.58419H41.9709C42.0603 1.58419 42.1946 1.58419 42.284 1.62896C42.3735 1.67372 42.4629 1.71847 42.5524 1.808C42.6418 1.89752 42.6866 1.98704 42.7313 2.07656C42.7313 2.16608 42.776 2.30036 42.776 2.38988ZM37.4088 5.29933L37.7666 6.41835C37.8114 6.50787 37.856 6.55264 37.9008 6.55264H38.9742C39.019 6.55264 39.0189 6.55264 39.0189 6.55264L39.0637 6.50787L39.1084 6.46311C39.1084 6.41835 39.1084 6.41836 39.1084 6.3736L37.3194 0.957544C37.2299 0.68898 37.0957 0.465174 36.7826 0.465174H35.9776C35.8881 0.465174 35.8434 0.465176 35.7539 0.509937C35.6645 0.554698 35.6197 0.599453 35.575 0.644214C35.5303 0.733735 35.4408 0.82326 35.4408 0.912781L33.6965 6.28407C33.6965 6.28407 33.6965 6.32884 33.6965 6.3736C33.6965 6.41836 33.6965 6.41835 33.7412 6.41835L33.7859 6.46311H33.8307H34.8594C34.9041 6.46311 34.9041 6.46311 34.9488 6.46311C34.9936 6.46311 34.9935 6.41836 34.9935 6.3736C34.9935 6.32884 34.9935 6.32883 35.0383 6.28407L35.3961 5.16505L37.4088 5.29933ZM35.7092 4.22507L36.0223 3.15082L36.3353 1.89752H36.3801L36.6932 3.15082L37.0062 4.22507H35.7092ZM32.0863 3.32986C32.2652 3.15082 32.4441 3.01653 32.5336 2.83749C32.6678 2.65844 32.7572 2.43464 32.8019 2.21084L33.2045 0.688977V0.644214C33.2045 0.644214 33.2045 0.59945 33.1598 0.59945L33.115 0.554701H33.0703H32.1758C32.1311 0.554701 32.131 0.554701 32.0863 0.554701L32.0416 0.59945C32.0416 0.59945 32.0416 0.644214 31.9969 0.644214L31.5943 2.12133C31.5496 2.25561 31.5049 2.43465 31.4154 2.52417C31.3707 2.61369 31.2812 2.70321 31.1471 2.74797C31.0576 2.79273 30.9682 2.83749 30.8787 2.83749C30.7893 2.83749 30.6998 2.83749 30.6104 2.83749H29.9395V0.644214C29.9395 0.599453 29.9394 0.554701 29.8947 0.554701C29.85 0.50994 29.85 0.509937 29.8053 0.509937H28.7765H28.7318C28.7318 0.509937 28.6871 0.50994 28.6871 0.554701L28.6424 0.59945V0.644214V6.41835V6.46311C28.6424 6.46311 28.6424 6.50787 28.6871 6.50787L28.7318 6.55264H28.7765H29.7605H29.8053C29.8053 6.55264 29.85 6.55263 29.85 6.50787L29.8947 6.46311V6.41835V3.82223H30.6104C30.7893 3.82223 30.9682 3.82223 31.1023 3.86699C31.2365 3.91175 31.3707 4.00127 31.4601 4.0908C31.5496 4.22508 31.639 4.35936 31.6838 4.5384L32.2205 6.41835C32.2205 6.46311 32.2652 6.46311 32.2652 6.50787C32.3099 6.50787 32.3099 6.55264 32.3547 6.55264H33.3387C33.3834 6.55264 33.3834 6.55264 33.3834 6.55264C33.3834 6.55264 33.4281 6.55263 33.4281 6.50787L33.4728 6.46311C33.4728 6.41835 33.4728 6.41835 33.4728 6.41835L32.9361 4.40411C32.8914 4.26983 32.8914 4.18031 32.8467 4.04603C32.802 3.95651 32.7572 3.86699 32.7125 3.77747C32.623 3.68794 32.5783 3.59842 32.4889 3.55366C32.3547 3.41938 32.2205 3.32986 32.0863 3.32986ZM22.1123 6.32883V5.52313V5.47838C22.1123 5.47838 22.1122 5.43362 22.0675 5.43362L22.0228 5.38885H21.9781H19.6076C19.5628 5.38885 19.4734 5.38885 19.4287 5.34409C19.384 5.29933 19.3392 5.29934 19.2945 5.25458C19.2498 5.20982 19.2051 5.16505 19.2051 5.12029C19.2051 5.07553 19.1603 4.98601 19.1603 4.94125V3.77747H21.665H21.7097C21.7097 3.77747 21.7545 3.77746 21.7545 3.7327L21.7992 3.68795V3.64319V2.83749C21.7992 2.74797 21.7544 2.70321 21.6203 2.70321H19.1603V2.0318C19.1603 1.98704 19.1603 1.89752 19.2051 1.85276C19.2051 1.808 19.2498 1.76323 19.2945 1.71847C19.3392 1.67371 19.384 1.62896 19.4287 1.62896C19.4734 1.58419 19.5181 1.58419 19.6076 1.58419H21.9781H22.0228C22.0228 1.58419 22.0675 1.58419 22.0675 1.53943L22.1123 1.49467V1.44992V0.59945V0.554701C22.1123 0.554701 22.1122 0.509937 22.0675 0.509937C22.0228 0.509937 22.0228 0.465174 22.0228 0.465174H21.9781H19.5181C19.0709 0.465174 18.6683 0.644219 18.3552 0.957544C18.0422 1.27087 17.8633 1.67372 17.8633 2.07656V4.94125C17.8633 5.34409 18.0422 5.74694 18.3552 6.06027C18.6683 6.37359 19.0709 6.50787 19.4734 6.50787H21.9781H22.0228C22.0228 6.50787 22.0675 6.50787 22.0675 6.46311C22.0675 6.41835 22.1123 6.41835 22.1123 6.41835C22.157 6.41835 22.157 6.37359 22.1123 6.32883ZM47.2487 1.62896V6.3736V6.41835C47.2487 6.41835 47.2487 6.46311 47.2039 6.46311L47.1592 6.50787H47.1145H46.1305C46.0858 6.50787 46.0411 6.50787 46.0411 6.46311C45.9963 6.41835 45.9963 6.41836 45.9963 6.3736V1.58419H44.4309H44.3861C44.3861 1.58419 44.3414 1.58419 44.3414 1.53943L44.2967 1.49467V1.44992V0.644214V0.59945C44.2967 0.59945 44.2967 0.554701 44.3414 0.554701C44.3862 0.554701 44.3861 0.509937 44.3861 0.509937H44.4309H48.9035H48.9483C48.9483 0.509937 48.993 0.50994 48.993 0.554701C48.993 0.599461 49.0377 0.59945 49.0377 0.59945V0.644214V1.44992C49.0377 1.49468 49.0377 1.53943 48.993 1.53943C48.9483 1.53943 48.9483 1.58419 48.9035 1.58419L47.2487 1.62896ZM16.1636 4.58317C16.1636 4.71745 16.1636 4.80696 16.1189 4.89648C16.0742 4.986 16.0294 5.07553 15.94 5.16505C15.8505 5.25457 15.7611 5.29933 15.6716 5.34409C15.5822 5.38885 15.448 5.38885 15.3585 5.38885H14.1062V3.77747H15.3585C15.448 3.77747 15.5822 3.77747 15.6716 3.82223C15.7611 3.86699 15.8505 3.91175 15.94 4.00127C16.0294 4.09079 16.0742 4.18031 16.1189 4.26984C16.1636 4.35936 16.2083 4.44888 16.1636 4.58317Z" fill="#8F9194"/>
<path fill-rule="evenodd" clip-rule="evenodd" d="M48.3221 9.81974C48.3221 9.73022 48.2774 9.68546 48.2326 9.59593C48.1879 9.55117 48.1879 9.55118 48.1432 9.50642C48.0985 9.50642 48.0537 9.50642 48.009 9.50642H47.517V10.0883H48.0538C48.0985 10.0883 48.1432 10.0883 48.1879 10.0435C48.2326 10.0435 48.2774 9.99879 48.2774 9.95403C48.3221 9.90927 48.3221 9.90926 48.3221 9.81974C48.3221 9.90926 48.3221 9.8645 48.3221 9.81974ZM47.1145 10.6254C47.0697 10.6254 47.025 10.6254 46.9803 10.6254C46.9356 10.6254 46.8908 10.5807 46.8908 10.5807C46.8461 10.5359 46.8461 10.4464 46.8461 10.4016V8.43215C46.8461 8.38739 46.8909 8.34264 46.9356 8.34264H47.3829C47.4276 8.34264 47.4723 8.34264 47.4723 8.34264C47.4723 8.34264 47.4723 8.34264 47.4723 8.3874V8.43215V9.05881H48.009C48.1879 9.05881 48.3668 9.0588 48.501 9.14833C48.6352 9.19309 48.7247 9.28261 48.7694 9.37213C48.8141 9.46165 48.8588 9.55118 48.9035 9.6407C48.9035 9.73022 48.9036 9.77498 48.9483 9.8645C48.9483 9.95402 48.9483 10.0883 48.9035 10.1778C48.8588 10.2674 48.8141 10.3569 48.7247 10.4464C48.6352 10.5359 48.5457 10.5807 48.4563 10.6254C48.3668 10.6702 48.2327 10.6702 48.0985 10.6702L47.1145 10.6254ZM45.9963 8.29788C46.041 8.29788 46.0858 8.29788 46.1305 8.29788C46.1752 8.29788 46.2199 8.34264 46.2199 8.34264C46.2647 8.3874 46.2647 8.47692 46.2647 8.56644V10.5359C46.2647 10.5807 46.2647 10.5807 46.2647 10.6254C46.22 10.6254 46.2199 10.6254 46.1752 10.6254H45.7279C45.6832 10.6254 45.6832 10.6254 45.6385 10.6254V10.5807V10.5359V8.83501H45.1018V9.05881C45.1018 9.32738 45.057 9.55118 45.057 9.73022C45.057 9.90927 45.0123 10.0435 44.9229 10.2226C44.8782 10.3569 44.7887 10.4464 44.6993 10.5359C44.5651 10.6254 44.4309 10.715 44.2967 10.715C44.252 10.715 44.252 10.715 44.2072 10.715L44.1625 10.6702L44.0284 10.3569C44.0284 10.3121 44.0284 10.3121 44.0284 10.2673L44.0731 10.2226C44.1625 10.1778 44.2073 10.1331 44.252 10.0883C44.2967 10.0435 44.3414 9.95403 44.3861 9.90926C44.4309 9.81974 44.4309 9.68546 44.4756 9.59593C44.4756 9.46165 44.5203 9.28262 44.5203 9.05881L44.5651 8.56644C44.5651 8.47692 44.6098 8.43216 44.6545 8.3874C44.6992 8.34264 44.7887 8.34264 44.8781 8.34264L45.9963 8.29788ZM43.0891 9.46166C43.0891 9.37214 43.0891 9.28261 43.0443 9.19309C43.0443 9.10357 42.9996 9.05881 42.9549 8.96929C42.9102 8.92453 42.8654 8.87977 42.8207 8.83501C42.7313 8.79025 42.6418 8.79025 42.5076 8.79025C42.3735 8.79025 42.3287 8.87976 42.2393 8.96929C42.1498 9.10357 42.1051 9.28261 42.1051 9.46166C42.1051 9.6407 42.1498 9.81975 42.1945 9.95403C42.2393 9.99879 42.284 10.0435 42.3287 10.0883C42.3735 10.1331 42.4629 10.1331 42.5076 10.1331C42.5971 10.1331 42.6418 10.1331 42.7313 10.0883C42.776 10.0435 42.8207 9.99879 42.8654 9.95403C42.9102 9.90927 42.9102 9.81975 42.9549 9.73022C43.0444 9.6407 43.0891 9.55118 43.0891 9.46166ZM43.76 9.46166C43.76 9.77498 43.6705 10.0883 43.4916 10.3569C43.4022 10.4912 43.268 10.5359 43.0891 10.6254C42.9549 10.6702 42.776 10.7149 42.6418 10.6702C42.5076 10.6702 42.3287 10.6702 42.1945 10.6254C42.0603 10.5807 41.9262 10.4912 41.792 10.3569C41.6131 10.0883 41.5236 9.77498 41.5236 9.46166C41.5236 9.28261 41.5684 9.10357 41.6131 8.96929C41.6578 8.835 41.7473 8.70072 41.8367 8.56644C41.9262 8.47692 42.0603 8.3874 42.1945 8.34264C42.3287 8.29788 42.5076 8.25311 42.6418 8.25311C42.776 8.25311 42.9549 8.25312 43.0891 8.34264C43.2232 8.3874 43.3574 8.47692 43.4916 8.61121C43.6705 8.83501 43.76 9.14833 43.76 9.46166ZM40.4502 9.46166C40.4502 9.37214 40.4502 9.23785 40.4055 9.14833C40.4055 9.0588 40.3608 9.01405 40.316 8.96929C40.2713 8.92453 40.2266 8.87976 40.1371 8.87976C40.0477 8.87976 40.0029 8.83501 39.9135 8.83501H39.7346C39.6898 8.83501 39.6004 8.835 39.5557 8.87976V10.0883C39.6004 10.0883 39.6899 10.1331 39.7793 10.1331H39.9582C40.0476 10.1331 40.0924 10.1331 40.1371 10.0883C40.1818 10.0435 40.2713 10.0435 40.316 9.95403C40.4055 9.81975 40.4502 9.6407 40.4502 9.46166ZM39.6004 11.4759V11.5207C39.5557 11.5207 39.5557 11.5207 39.5109 11.5207H39.0189C38.9742 11.5207 38.9742 11.5207 38.9295 11.5207V11.4759V8.61121C38.9295 8.56644 38.9295 8.56644 38.9295 8.52168C38.9295 8.47692 38.9742 8.47692 39.0189 8.47692C39.1531 8.43215 39.332 8.34264 39.5109 8.34264C39.6898 8.29788 39.8241 8.29788 40.003 8.29788C40.1819 8.29788 40.3608 8.34264 40.5397 8.3874C40.6738 8.43216 40.808 8.52167 40.8975 8.65596C40.9869 8.79024 41.0316 8.92453 41.0764 9.05881C41.1211 9.1931 41.1211 9.37214 41.1211 9.50642C41.1211 9.68546 41.0764 9.81975 41.0764 9.95403C41.0316 10.0883 40.9869 10.2226 40.8975 10.3569C40.808 10.4464 40.7186 10.5359 40.5844 10.6254C40.4502 10.6702 40.2713 10.715 40.1371 10.715C40.0477 10.715 39.9582 10.715 39.8688 10.715C39.7793 10.715 39.6899 10.6702 39.6004 10.6702V11.4759ZM37.7219 9.59593H37.2299C37.1851 9.59593 37.1405 9.59594 37.0957 9.6407C37.051 9.68546 37.0062 9.68546 37.0062 9.73022C36.9615 9.77498 36.9615 9.81974 36.9615 9.90926C36.9615 9.95403 36.9615 9.99878 37.0062 10.0435C37.051 10.0883 37.051 10.1331 37.0957 10.1331C37.1852 10.1778 37.2746 10.1778 37.3641 10.1778H37.6324L37.7219 10.1331V9.59593ZM38.348 10.3569C38.348 10.4016 38.348 10.4016 38.348 10.4464C38.348 10.4911 38.3033 10.4912 38.2586 10.5359C38.1692 10.5807 38.1244 10.5807 38.035 10.6254C37.9455 10.6254 37.8561 10.6702 37.8113 10.6702L37.5877 10.715H37.3641C37.1852 10.715 37.051 10.7149 36.8721 10.6702C36.7379 10.6254 36.6484 10.5807 36.559 10.5359C36.4695 10.4912 36.4248 10.4016 36.3801 10.3121C36.3353 10.2226 36.3353 10.1331 36.3353 10.0435C36.3353 9.95402 36.3353 9.81975 36.3801 9.73022C36.4248 9.6407 36.4695 9.55118 36.559 9.46166C36.6484 9.37214 36.7379 9.32738 36.8273 9.28262C36.9615 9.23786 37.0957 9.23785 37.2299 9.23785H37.7219V9.14833C37.7219 9.10357 37.7219 9.05881 37.7219 9.01405C37.7219 8.96929 37.6771 8.92452 37.6771 8.92452C37.6324 8.87976 37.5877 8.87977 37.543 8.83501C37.4983 8.83501 37.4088 8.79025 37.3641 8.79025H37.051L36.8721 8.83501L36.7379 8.87976C36.6932 8.87976 36.6932 8.87976 36.6485 8.87976L36.6037 8.83501L36.5143 8.52168C36.5143 8.52168 36.5143 8.52168 36.5143 8.47692V8.43215C36.5143 8.43215 36.5143 8.43216 36.5143 8.3874C36.5143 8.3874 36.5142 8.3874 36.559 8.3874C36.6932 8.34264 36.8273 8.29788 36.9615 8.29788C37.0957 8.29788 37.2299 8.25311 37.4088 8.25311C37.6772 8.25311 37.9008 8.29787 38.1244 8.47692C38.2139 8.56644 38.2586 8.65596 38.3033 8.74548C38.3481 8.835 38.348 8.96929 38.348 9.05881V10.3569ZM35.7986 10.5359C35.7986 10.5807 35.7986 10.5807 35.7986 10.5807C35.7539 10.5807 35.7539 10.5807 35.7092 10.5807H35.2172C35.1724 10.5807 35.1277 10.5359 35.1277 10.4911V8.11883H33.9649V10.5359C33.9649 10.5807 33.9649 10.5807 33.9649 10.6254C33.9201 10.6254 33.9201 10.6254 33.8754 10.6254H33.3834C33.3387 10.6254 33.294 10.5807 33.294 10.5359V7.85027C33.294 7.76075 33.2939 7.67122 33.3834 7.62646C33.4281 7.5817 33.4281 7.5817 33.4728 7.5817C33.5175 7.5817 33.5623 7.5817 33.607 7.5817H35.575C35.6197 7.5817 35.6644 7.5817 35.7092 7.5817C35.7539 7.5817 35.7986 7.62646 35.7986 7.62646C35.8434 7.67122 35.8881 7.76075 35.8434 7.85027L35.7986 10.5359ZM32.131 8.83501V10.5359C32.131 10.5807 32.131 10.5807 32.131 10.6254C32.0863 10.6254 32.0863 10.6254 32.0416 10.6254H31.5943C31.5496 10.6254 31.5049 10.5807 31.5049 10.5359V8.83501H30.8787C30.834 8.83501 30.7892 8.79024 30.7892 8.74548V8.43215C30.7892 8.38739 30.7892 8.34264 30.7892 8.34264C30.7892 8.34264 30.7893 8.34264 30.834 8.34264C30.8787 8.34264 30.8787 8.34264 30.8787 8.34264H32.8019C32.8466 8.34264 32.8467 8.34264 32.8914 8.34264C32.8914 8.34264 32.8914 8.38739 32.8914 8.43215V8.74548C32.8914 8.79024 32.8466 8.83501 32.8019 8.83501H32.131ZM29.5369 8.79025C29.4922 8.79025 29.4027 8.79025 29.358 8.83501C29.3133 8.83501 29.2685 8.87976 29.2238 8.92452C29.1343 9.01404 29.0896 9.14833 29.0896 9.23785H29.8947C29.8947 9.19309 29.8947 9.10357 29.8947 9.05881C29.8947 9.01405 29.85 8.96928 29.85 8.92452C29.8052 8.87976 29.7606 8.83501 29.7158 8.83501C29.7158 8.79025 29.6264 8.79025 29.5369 8.79025ZM29.5369 8.25311C29.6711 8.25311 29.8053 8.25311 29.9395 8.29788C30.0736 8.34264 30.2078 8.43216 30.2972 8.52168C30.3867 8.6112 30.4761 8.74548 30.5209 8.87976C30.5656 9.01404 30.5656 9.14833 30.5656 9.28262C30.5656 9.4169 30.5656 9.50641 30.4762 9.59593C30.4314 9.64069 30.3867 9.6407 30.342 9.6407C30.2972 9.6407 30.2525 9.6407 30.2078 9.6407H29.0449C29.0449 9.73022 29.0449 9.81974 29.0896 9.8645C29.1344 9.90926 29.1343 9.95402 29.2238 9.99878C29.2685 10.0435 29.3133 10.0435 29.4027 10.0883C29.4474 10.0883 29.5369 10.0883 29.6263 10.0883C29.7158 10.0883 29.8052 10.0883 29.8947 10.0435C29.9841 10.0435 30.0736 9.99879 30.1183 9.95403C30.163 9.95403 30.1631 9.95403 30.2078 9.95403L30.2525 9.99878L30.3867 10.3121C30.3867 10.3121 30.3867 10.3121 30.3867 10.3569C30.3867 10.4016 30.3867 10.3569 30.3867 10.4016L30.342 10.4464C30.2078 10.5359 30.0736 10.5807 29.9395 10.5807C29.8053 10.6254 29.6711 10.6254 29.5369 10.6254C29.4027 10.6254 29.2238 10.6254 29.0896 10.5807C28.9555 10.5359 28.8213 10.4464 28.6871 10.3569C28.4635 10.0883 28.374 9.77498 28.4187 9.46166C28.4187 9.28261 28.4634 9.10357 28.5082 8.92452C28.5529 8.79024 28.6424 8.65596 28.7318 8.52168C28.8213 8.43216 28.9555 8.34264 29.0896 8.29788C29.2238 8.29788 29.4027 8.25311 29.5369 8.25311ZM26.4955 10.5359C26.4955 10.5807 26.4955 10.5807 26.4955 10.6254C26.4507 10.6254 26.4508 10.6254 26.406 10.6254H25.9588C25.914 10.6254 25.8693 10.5807 25.8693 10.5359V8.43215C25.8693 8.38739 25.914 8.34264 25.9588 8.34264H26.406C26.4508 8.34264 26.4507 8.34264 26.4955 8.34264V8.3874V9.14833H27.3006V8.3874C27.3006 8.34264 27.3453 8.29788 27.39 8.29788H27.8373C27.882 8.29788 27.9268 8.29788 27.9268 8.29788V8.34264V10.4911C27.9268 10.5359 27.9268 10.5359 27.9268 10.5807C27.882 10.5807 27.882 10.5807 27.8373 10.5807H27.39C27.3453 10.5807 27.3006 10.5359 27.3006 10.4911V9.6407H26.4955V10.5359ZM24.7064 9.46166C24.7064 9.37214 24.7064 9.23785 24.6617 9.14833C24.6617 9.0588 24.617 9.01405 24.5723 8.96929C24.5275 8.92453 24.4828 8.87976 24.3933 8.87976C24.3039 8.87976 24.2592 8.83501 24.1697 8.83501H23.9908C23.9461 8.83501 23.8566 8.835 23.8119 8.87976V10.0883C23.9013 10.0883 23.9461 10.1331 24.0355 10.1331H24.2144C24.2591 10.1331 24.3486 10.1331 24.3933 10.0883C24.4381 10.0435 24.5275 10.0435 24.5723 9.95403C24.6617 9.81975 24.7064 9.6407 24.7064 9.46166ZM23.8566 11.4759V11.5207C23.8119 11.5207 23.8119 11.5207 23.7672 11.5207H23.3199C23.2752 11.5207 23.2752 11.5207 23.2305 11.5207C23.2305 11.5207 23.2305 11.5207 23.2305 11.4759V11.4311V8.56644C23.2305 8.52168 23.2305 8.52168 23.2305 8.47692C23.2305 8.43215 23.2752 8.43215 23.3199 8.43215C23.4541 8.34263 23.633 8.29788 23.8119 8.29788C23.9908 8.25311 24.1249 8.25311 24.3039 8.25311C24.4828 8.25311 24.6617 8.29788 24.8406 8.34264C24.9748 8.3874 25.1089 8.47692 25.1984 8.61121C25.2878 8.74549 25.3326 8.87977 25.3773 9.01405C25.422 9.14833 25.422 9.32737 25.422 9.46166C25.422 9.59594 25.422 9.77498 25.3773 9.90926C25.3326 10.0435 25.2878 10.1778 25.1984 10.3121C25.1089 10.4464 25.0195 10.4912 24.8853 10.5807C24.7511 10.6254 24.5722 10.6702 24.4381 10.6702C24.3486 10.6702 24.2591 10.6702 24.2144 10.6702C24.125 10.6702 24.0355 10.6254 23.9461 10.6254V11.4759H23.8566ZM21.7097 8.79025C21.665 8.79025 21.6203 8.79025 21.5308 8.83501C21.4861 8.83501 21.4413 8.87976 21.3966 8.92452C21.3072 9.01404 21.2625 9.14833 21.2625 9.23785H22.0675C22.0675 9.19309 22.0675 9.10357 22.0675 9.05881C22.0675 9.01405 22.0228 8.96928 22.0228 8.92452C21.9781 8.87976 21.9334 8.83501 21.8887 8.83501C21.8887 8.79025 21.7992 8.79025 21.7097 8.79025ZM21.7097 8.25311C21.8439 8.25311 21.9781 8.25311 22.1123 8.29788C22.2465 8.34264 22.3806 8.43216 22.4701 8.52168C22.5595 8.6112 22.649 8.74548 22.6937 8.87976C22.7384 9.01404 22.7384 9.14833 22.7384 9.28262C22.7384 9.4169 22.7384 9.50641 22.649 9.59593C22.6043 9.64069 22.5148 9.68546 22.4254 9.68546H21.2625C21.2625 9.77498 21.2625 9.8645 21.3072 9.90926C21.3519 9.95403 21.3519 9.99878 21.3966 10.0435C21.4413 10.0883 21.4861 10.0883 21.5755 10.1331C21.6203 10.1331 21.7097 10.1331 21.7992 10.1331C21.8886 10.1331 21.9781 10.1331 22.0675 10.0883C22.157 10.0883 22.2465 10.0435 22.3359 9.99878C22.3807 9.99878 22.3806 9.99878 22.4254 9.99878L22.4701 10.0435L22.6043 10.3569V10.4016L22.5596 10.4464C22.4254 10.5359 22.2912 10.5807 22.157 10.5807C22.0228 10.6254 21.8886 10.6254 21.7545 10.6254C21.6203 10.6254 21.4414 10.6254 21.3072 10.5807C21.173 10.5359 21.0388 10.4464 20.9046 10.3569C20.681 10.0883 20.5916 9.77498 20.6363 9.46166C20.6363 9.28261 20.681 9.10357 20.7257 8.92452C20.7704 8.79024 20.8599 8.65596 20.9494 8.52168C21.0388 8.43216 21.173 8.34264 21.3072 8.29788C21.3966 8.29788 21.5308 8.25311 21.7097 8.25311ZM19.7865 8.83501V10.5359C19.7865 10.5807 19.7865 10.5807 19.7865 10.6254C19.7417 10.6254 19.7418 10.6254 19.697 10.6254H19.2498C19.205 10.6254 19.1603 10.5807 19.1603 10.5359V8.83501H18.5342C18.4894 8.83501 18.4447 8.79024 18.4447 8.74548V8.43215C18.4447 8.38739 18.4447 8.34264 18.4447 8.34264C18.4447 8.34264 18.4894 8.34264 18.5342 8.34264H20.4574C20.5021 8.34264 20.5021 8.34264 20.5469 8.34264C20.5469 8.34264 20.5469 8.38739 20.5469 8.43215V8.74548C20.5469 8.79024 20.5021 8.83501 20.4574 8.83501H19.7865ZM16.6556 10.5359C16.6556 10.5807 16.6556 10.5807 16.6556 10.6254C16.6109 10.6254 16.6109 10.6254 16.5662 10.6254H16.1189C16.0742 10.6254 16.0294 10.5807 16.0294 10.5359V8.43215C16.0294 8.38739 16.0742 8.34264 16.1189 8.34264H16.5662C16.6109 8.34264 16.6556 8.34264 16.6556 8.34264V8.3874V9.14833H17.5054V8.3874C17.5054 8.34264 17.5501 8.29788 17.5949 8.29788H18.0421C18.0868 8.29788 18.0869 8.29788 18.1316 8.29788C18.1316 8.29788 18.1316 8.29788 18.1316 8.34264V8.3874V10.5359C18.1316 10.5807 18.1316 10.5807 18.1316 10.6254C18.0869 10.6254 18.0868 10.6254 18.0421 10.6254H17.5949H17.5501H17.5054C17.5054 10.6254 17.5054 10.6254 17.5054 10.5807V10.5359V9.68546H16.6556V10.5359ZM14.6876 8.56644L14.2851 9.23785L13.5247 10.4464L13.4353 10.5359C13.4353 10.5807 13.3906 10.5807 13.3906 10.5807C13.3459 10.5807 13.3458 10.6254 13.3011 10.6254H13.0328C12.988 10.6254 12.9433 10.6254 12.8986 10.6254C12.8538 10.6254 12.8091 10.5807 12.8091 10.5359C12.7644 10.4912 12.7644 10.4016 12.7644 10.3121V7.62646C12.7644 7.5817 12.8091 7.53694 12.8538 7.53694H13.3458C13.3905 7.53694 13.3906 7.53694 13.4353 7.53694V7.5817V9.55117H13.48L13.8826 8.92452L14.6429 7.67123C14.6429 7.62647 14.6877 7.5817 14.7324 7.5817C14.7324 7.53694 14.7771 7.53694 14.7771 7.53694C14.8218 7.53694 14.8218 7.49219 14.8665 7.49219H15.1349C15.2243 7.49219 15.3138 7.49218 15.3585 7.53694C15.4032 7.62646 15.4033 7.67122 15.4033 7.76074V10.4464C15.4033 10.4911 15.3585 10.5359 15.3138 10.5359H14.8218C14.7771 10.5359 14.7771 10.5359 14.7324 10.5359V10.4911L14.6876 8.56644Z" fill="#8F9194"/>
</svg>
