<svg width="37" height="42" viewBox="0 0 37 42" fill="none" xmlns="http://www.w3.org/2000/svg">
<path fill-rule="evenodd" clip-rule="evenodd" d="M3.60994 39.3227C3.60994 39.8151 3.25211 40.1284 2.76012 40.1284H1.50778V38.5171H2.76012C3.20738 38.5618 3.60994 38.8304 3.60994 39.3227ZM34.8291 36.3685V41.2027C34.8291 41.2922 34.7397 41.337 34.6502 41.337H33.6215C33.5321 41.337 33.4426 41.2922 33.4426 41.2027V36.3685H31.8772C31.7877 36.3685 31.743 36.279 31.743 36.1895V35.3838C31.743 35.2943 31.7877 35.2048 31.8772 35.2048H36.3946C36.484 35.2048 36.5288 35.2943 36.5288 35.3838V36.1895C36.5288 36.279 36.484 36.3685 36.3946 36.3685H34.8291ZM9.60329 41.1132V40.3075C9.60329 40.2627 9.55857 40.1732 9.46912 40.1732H7.09861C6.96443 40.1732 6.65134 40.0837 6.65134 39.7256V38.5618H9.15603C9.24548 38.5618 9.29023 38.4723 9.29023 38.4275V37.6218C9.29023 37.5323 9.24549 37.4876 9.11131 37.4876H6.65134V36.8609C6.65134 36.5923 6.87498 36.4133 7.09861 36.4133H9.46912C9.55857 36.4133 9.60329 36.3238 9.60329 36.279V35.3838C9.60329 35.2943 9.55858 35.2495 9.4244 35.2495H6.96444C6.02518 35.2495 5.30954 36.0104 5.30954 36.8609V39.7256C5.30954 40.6208 6.06989 41.337 6.91969 41.337H9.4244C9.51386 41.337 9.55858 41.2922 9.55858 41.2027C9.6033 41.1579 9.60329 41.1132 9.60329 41.1132ZM19.5774 38.0694C19.7563 37.9352 19.9352 37.7561 20.0246 37.5771C20.1588 37.398 20.2483 37.1742 20.293 36.9504L20.6955 35.3838C20.6955 35.2943 20.6508 35.2048 20.5613 35.2048H19.6221C19.5774 35.2048 19.5773 35.2048 19.5326 35.2048C19.4879 35.2048 19.4879 35.2495 19.4432 35.2943L19.0406 36.7714C18.9959 36.9504 18.9512 37.0847 18.8617 37.1742C18.7723 37.2638 18.6828 37.3533 18.5934 37.398C18.5039 37.4428 18.4144 37.4876 18.325 37.4876C18.2355 37.4876 18.1461 37.5323 18.0566 37.4876H17.3857V35.2495C17.3857 35.16 17.2963 35.1152 17.2516 35.1152H16.2229C16.1334 35.1152 16.0887 35.16 16.0887 35.2495V41.0684C16.0887 41.1579 16.1781 41.2027 16.2229 41.2027H17.2516C17.341 41.2027 17.4305 41.1579 17.4305 41.0684V38.4723H18.1461C18.3697 38.4723 18.5039 38.4723 18.6381 38.5171C18.7723 38.5618 18.9064 38.6513 18.9959 38.7409C19.0853 38.8304 19.1748 39.0094 19.2195 39.1885L19.7563 41.0684C19.801 41.1579 19.8457 41.1579 19.8904 41.1579H20.9192C21.0533 41.1579 21.0981 41.0237 21.0533 40.9789L20.5166 38.9647C20.4719 38.8304 20.4272 38.6961 20.4272 38.6066C20.3824 38.5171 20.3377 38.3828 20.293 38.338C20.2483 38.2933 20.1588 38.159 20.0693 38.1142C19.8457 38.2037 19.7563 38.1142 19.5774 38.0694ZM23.2449 38.9647L23.558 37.8456L23.8711 36.5923H23.9158L24.2289 37.8456L24.542 38.9647H23.2449ZM24.8998 40.0389L25.2576 41.1579C25.3024 41.2475 25.3471 41.2922 25.3918 41.2922H26.51C26.5995 41.2922 26.6889 41.2027 26.6441 41.1132L24.8551 35.6971C24.7656 35.4286 24.6315 35.2048 24.3184 35.2048H23.558C23.4238 35.2048 23.2897 35.2495 23.1555 35.3838C23.1108 35.4733 23.066 35.5628 23.0213 35.6971L21.2322 41.1132C21.1875 41.2475 21.277 41.2922 21.3664 41.2922H22.4399C22.4846 41.2922 22.5293 41.2922 22.574 41.2027C22.574 41.2027 22.574 41.1579 22.6188 41.1132L22.9766 39.9942H24.8998V40.0389ZM30.3118 37.1742C30.3118 37.5771 29.9539 37.9799 29.5067 37.9799H28.3438V36.3685H29.4619C29.9987 36.3238 30.3118 36.7266 30.3118 37.1742ZM28.3438 41.1132V39.0542H29.775C30.759 39.0542 31.6983 38.2485 31.6983 37.0847C31.6983 36.8161 31.6088 36.5476 31.5194 36.3238C31.2957 35.7867 30.8485 35.4286 30.3118 35.2495C30.0881 35.2048 29.8645 35.16 29.6409 35.16H27.4492C27.2256 35.16 27.002 35.339 27.002 35.5628C27.002 35.6076 27.002 35.6524 27.002 35.6971V41.1132C27.002 41.2027 27.0467 41.2475 27.1362 41.2475H28.1649C28.2096 41.2475 28.2543 41.2027 28.3438 41.1132C28.3438 41.2027 28.3438 41.1579 28.3438 41.1132ZM0.613243 41.2922H2.89429C4.01246 41.337 4.95172 40.5313 4.99645 39.3675C4.99645 39.278 4.99645 39.1437 4.99645 39.0094C4.81754 38.0694 4.0572 37.398 3.07321 37.398H1.55249V36.3238H4.19138C4.28083 36.3238 4.37028 36.2343 4.32555 36.1447V35.3838C4.32555 35.2943 4.28083 35.2048 4.19138 35.2048H0.702702C0.344888 35.2048 0.255435 35.4733 0.255435 35.6524V40.8894C0.210708 41.1132 0.389609 41.2922 0.613243 41.2922ZM11.0346 35.7866L10.9451 37.0847C10.9004 37.5323 10.9004 37.9352 10.8557 38.2485C10.8109 38.7856 10.7662 40.1284 10.0506 40.1284H10.0058C9.96112 40.1284 9.87167 40.1732 9.87167 40.2627V41.1132C9.87167 41.2027 9.91639 41.2922 10.0058 41.2922H10.0506C10.5873 41.2922 11.0793 41.2475 11.4818 40.6208C11.616 40.4418 11.7055 40.218 11.7949 39.9494C11.8844 39.7256 11.9291 39.4123 11.9738 39.1437C12.0186 38.8304 12.0633 38.5171 12.108 38.159C12.1527 37.8009 12.1527 37.398 12.1975 36.9504L12.2422 36.3238H13.9418V41.1132C13.9418 41.2027 14.0312 41.2475 14.1207 41.2475H15.1494C15.2389 41.2475 15.3283 41.1579 15.3283 41.0684V35.5628C15.3283 35.339 15.1494 35.1152 14.8811 35.1152H11.5713C11.3029 35.1152 11.1687 35.339 11.1687 35.5181C11.0345 35.6971 11.0346 35.7419 11.0346 35.7866Z" fill="#8F9194"/>
<path fill-rule="evenodd" clip-rule="evenodd" d="M21.5009 19.8963C21.322 19.8963 21.1431 20.0306 21.1431 20.2544V23.2981L23.2005 25.8943L18.5937 21.2839C18.4595 21.1496 18.2358 21.1496 18.1017 21.2839L15.9101 23.4772L15.5075 26.7447V20.2097C15.5075 20.0306 15.3733 19.8516 15.1497 19.8516H11.8847L9.46941 21.821L14.0763 17.2107C14.2104 17.0764 14.2104 16.8526 14.0763 16.7183L11.7505 14.3908L8.61962 14.0774H15.1497C15.3286 14.0774 15.5075 13.9432 15.5075 13.7193V10.6309L13.4948 8.07949L18.1017 12.6898C18.2358 12.8241 18.4595 12.8241 18.5937 12.6898L20.8747 10.4071L21.1878 7.22904V13.7641C21.1878 13.9432 21.322 14.1222 21.5456 14.1222H24.7659L27.2259 12.1527L22.6191 16.7631C22.4849 16.8974 22.4849 17.1212 22.6191 17.2554L24.8554 19.4935L28.031 19.8068H21.5009V19.8963ZM34.6058 19.1354L27.6732 12.1975L31.296 14.167C31.4749 14.167 31.6539 14.0327 31.6539 13.8089V7.27381C31.6539 7.09476 31.5197 6.91571 31.296 6.91571H21.5009L25.4816 5.79669C25.6157 5.66241 25.6157 5.43861 25.4816 5.30432L20.8747 0.693973C20.7405 0.559691 20.5169 0.559691 20.3827 0.693973L15.5075 5.57289L13.4054 7.67665L15.5075 3.9615C15.5075 3.78246 15.3733 3.60342 15.1497 3.60342H8.61962C8.44071 3.60342 8.26178 3.7377 8.26178 3.9615V13.7641L7.0989 9.7804C6.96472 9.64612 6.7411 9.64612 6.60692 9.7804L2.00005 14.3908C1.86587 14.525 1.86587 14.7488 2.00005 14.8831L8.93268 21.821L5.35455 19.8516C5.17564 19.8516 4.99674 19.9859 4.99674 20.2097V26.7447C4.99674 26.9238 5.13092 27.1028 5.35455 27.1028H15.1497L11.169 28.2218C11.0348 28.3561 11.0348 28.5799 11.169 28.7142L15.7759 33.3245C15.9101 33.4588 16.1337 33.4588 16.2679 33.3245L23.1558 26.4314L21.1431 30.057C21.1431 30.2361 21.2773 30.4151 21.5009 30.4151H28.031C28.2099 30.4151 28.3888 30.2808 28.3888 30.057V20.2544L29.5517 24.2381C29.6858 24.3724 29.9095 24.3724 30.0437 24.2381L34.6505 19.6278C34.74 19.4935 34.74 19.2697 34.6058 19.1354Z" fill="#8F9194"/>
</svg>
