<svg width="56" height="14" viewBox="0 0 56 14" fill="none" xmlns="http://www.w3.org/2000/svg">
<path d="M2.80697 9.65625C2.80697 9.83529 2.80701 10.0143 2.85174 10.1934C3.07537 11.0886 3.88041 11.76 4.81967 11.76C6.20619 11.76 7.056 10.641 7.056 8.85056C7.056 7.28393 6.29565 6.03064 4.81967 6.03064C3.92513 6.03064 3.1201 6.70204 2.85174 7.64201C2.80701 7.82106 2.76225 8.00011 2.76225 8.22391L2.80697 9.65625ZM0.481201 13.2819C0.525928 12.7 0.570633 11.7152 0.570633 10.82V0.435547H2.80697V5.67254H2.85174C3.38846 4.82209 4.37241 4.24021 5.66948 4.24021C7.81637 4.24021 9.3371 6.03064 9.3371 8.71628C9.3371 11.8943 7.32439 13.4609 5.35642 13.4609C4.19353 13.4609 3.20951 13.0133 2.58333 11.939H2.53862L2.44919 13.2371H0.481201V13.2819Z" fill="#8F9194"/>
<path d="M17.2084 7.95505C17.2084 7.14936 16.8506 5.80654 15.3747 5.80654C13.9881 5.80654 13.4066 7.05984 13.3172 7.95505H17.2084ZM13.362 9.52168C13.4067 11.1331 14.659 11.8045 16.0903 11.8045C17.119 11.8045 17.8793 11.6702 18.5502 11.4016L18.8633 12.9235C18.1029 13.2368 17.0742 13.4606 15.7771 13.4606C12.9146 13.4606 11.2598 11.715 11.2598 9.02931C11.2598 6.56747 12.7357 4.28467 15.5535 4.28467C18.416 4.28467 19.3553 6.65699 19.3553 8.5817C19.3553 8.98455 19.3106 9.34264 19.2659 9.52168H13.362Z" fill="#8F9194"/>
<path d="M24.052 6.92584C24.3204 7.01536 24.6782 7.01535 25.1255 7.01535C26.7803 7.01535 27.8091 6.20966 27.8091 4.77732C27.8091 3.4345 26.8698 2.71832 25.3491 2.71832C24.7229 2.71832 24.3204 2.76309 24.052 2.80785V6.92584ZM21.8157 1.24122C22.6208 1.10694 23.6942 0.972656 25.2149 0.972656C26.8251 0.972656 28.0327 1.33075 28.7931 1.9574C29.5087 2.53929 30.0007 3.52402 30.0007 4.64304C30.0007 5.80682 29.6428 6.74679 28.9719 7.4182C28.0774 8.31341 26.6909 8.71627 25.1255 8.71627C24.7229 8.71627 24.3204 8.71626 24.052 8.62674V13.2371H21.8604L21.8157 1.24122Z" fill="#8F9194"/>
<path d="M36.7545 8.9847C35.189 8.93994 33.6683 9.29803 33.6683 10.6409C33.6683 11.4913 34.2498 11.8942 34.9207 11.8942C35.8152 11.8942 36.4414 11.3123 36.6651 10.6856C36.7098 10.5066 36.7545 10.3275 36.7545 10.1932V8.9847ZM37.0676 13.2817L36.9334 12.297H36.8887C36.352 12.9684 35.4127 13.4608 34.2945 13.4608C32.5054 13.4608 31.5215 12.1627 31.5215 10.8199C31.5215 8.58186 33.4894 7.46284 36.7545 7.5076V7.37333C36.7545 6.79144 36.5309 5.85145 34.9654 5.85145C34.1156 5.85145 33.1764 6.12002 32.5949 6.52286L32.1477 5.09053C32.8186 4.68768 33.9367 4.32959 35.3233 4.32959C38.141 4.32959 38.9461 6.12003 38.9461 8.04474V11.2227C38.9461 12.0284 38.9908 12.7894 39.0803 13.3265H37.0676V13.2817Z" fill="#8F9194"/>
<path d="M41.9427 4.46384H44.179V13.2817H41.9427V4.46384ZM44.3132 2.002C44.3132 2.67341 43.8212 3.21053 43.0609 3.21053C42.3005 3.21053 41.8533 2.67341 41.8533 2.002C41.8533 1.33059 42.3453 0.793457 43.1056 0.793457C43.8213 0.793457 44.2685 1.33059 44.3132 2.002Z" fill="#8F9194"/>
<path d="M53.0795 8.13438C53.0795 7.95534 53.0795 7.73154 53.0348 7.5525C52.8559 6.70205 52.1402 5.98587 51.1115 5.98587C49.6802 5.98587 48.8752 7.23917 48.8752 8.89532C48.8752 10.5067 49.6802 11.6705 51.0668 11.6705C51.9613 11.6705 52.7664 11.0438 52.99 10.1039C53.0348 9.92481 53.0795 9.70101 53.0795 9.43244V8.13438ZM55.3158 0.435547V10.82C55.3158 11.7152 55.3606 12.7 55.4053 13.2819H53.4373L53.3478 11.8943H53.3031C52.7664 12.879 51.6929 13.5057 50.4406 13.5057C48.3384 13.5057 46.6836 11.7152 46.6836 8.98483C46.6836 6.03063 48.5174 4.28496 50.6195 4.28496C51.8271 4.28496 52.6769 4.77733 53.0795 5.44874H53.1242V0.435547H55.3158Z" fill="#8F9194"/>
</svg>
