<svg width="21" height="22" viewBox="0 0 21 22" fill="none" xmlns="http://www.w3.org/2000/svg">
<path fill-rule="evenodd" clip-rule="evenodd" d="M18.7843 6.28557V4.86557C18.7843 4.07129 18.1415 3.42843 17.3472 3.42843H14.4986V4.857H13.07V3.42843H7.35575V4.857H5.92718V3.42843H3.07861C2.28432 3.42843 1.64146 4.07129 1.64146 4.86557V19.1341C1.64146 19.9284 2.28432 20.5713 3.07861 20.5713H17.3472C18.1415 20.5713 18.7843 19.9284 18.7843 19.1341V7.71415H1.64146V6.28557H18.7843ZM14.4986 1.99986H17.3472C18.93 1.99986 20.2129 3.28129 20.2129 4.86557V19.1341C20.2131 19.5105 20.1391 19.8833 19.9951 20.231C19.8512 20.5788 19.6401 20.8948 19.374 21.1609C19.1078 21.4271 18.7918 21.6382 18.4441 21.7821C18.0963 21.9261 17.7236 22 17.3472 21.9999H3.07861C2.70222 22 2.32949 21.9261 1.98172 21.7821C1.63395 21.6382 1.31796 21.4271 1.05182 21.1609C0.785677 20.8948 0.574597 20.5788 0.430648 20.231C0.286699 19.8833 0.212703 19.5105 0.212891 19.1341V4.86557C0.212891 3.28272 1.49432 1.99986 3.07861 1.99986H5.92718V0.571289H7.35575V1.99986H13.07V0.571289H14.4986V1.99986ZM4.4986 10.5713H7.35575V11.9999H4.4986V10.5713ZM8.78432 10.5713H11.6415V11.9999H8.78432V10.5713ZM13.07 10.5713H15.9272V11.9999H13.07V10.5713ZM4.4986 13.4284H7.35575V14.857H4.4986V13.4284ZM8.78432 13.4284H11.6415V14.857H8.78432V13.4284ZM13.07 13.4284H15.9272V14.857H13.07V13.4284ZM4.4986 16.2856H7.35575V17.7141H4.4986V16.2856ZM8.78432 16.2856H11.6415V17.7141H8.78432V16.2856ZM13.07 16.2856H15.9272V17.7141H13.07V16.2856Z" fill="#69EBD0"/>
</svg>
