<svg width="50" height="18" viewBox="0 0 50 18" fill="none" xmlns="http://www.w3.org/2000/svg">
<path d="M21.9117 8.47814H25.2662C25.0426 7.7172 24.4164 7.22483 23.6113 7.22483C22.8062 7.22483 22.1801 7.7172 21.9117 8.47814ZM26.2502 6.91151C26.9211 7.7172 27.1447 8.65718 26.9658 9.7762H21.8669C22.0906 10.5819 22.8062 11.119 23.656 11.119C24.4164 11.119 24.9531 10.8057 25.3109 10.179L26.7422 10.8057C26.1607 11.8799 24.9978 12.5514 23.6113 12.5514C22.5826 12.5514 21.7775 12.238 21.1066 11.5666C20.4357 10.8952 20.0779 10.0895 20.0779 9.10478C20.0779 8.12005 20.391 7.31436 21.0619 6.64294C21.7328 5.97153 22.5379 5.6582 23.5219 5.6582C24.6848 5.74772 25.5793 6.15058 26.2502 6.91151Z" fill="#8F9194"/>
<path d="M31.3938 11.0293C31.8858 11.0293 32.2883 10.8502 32.6461 10.4922C33.004 10.1341 33.1381 9.68646 33.1381 9.19409C33.1381 8.65696 32.9592 8.20935 32.6461 7.89603C32.3331 7.53794 31.8858 7.35891 31.3938 7.35891C30.9018 7.35891 30.4992 7.53794 30.1414 7.89603C29.8283 8.25411 29.6494 8.70172 29.6494 9.19409C29.6494 9.73122 29.8283 10.1788 30.1414 10.4922C30.4992 10.8502 30.9018 11.0293 31.3938 11.0293ZM33.9879 6.73225C34.6141 7.40366 34.8825 8.20935 34.8825 9.19409C34.8825 10.1788 34.5694 10.9845 33.9879 11.6559C33.4065 12.3273 32.6461 12.6407 31.7068 12.6407C30.857 12.6407 30.1414 12.3273 29.6047 11.7455V15.1025H27.8604V5.92656H29.6047V6.6875C30.1414 6.10561 30.857 5.79228 31.7068 5.79228C32.6461 5.74752 33.4065 6.06084 33.9879 6.73225Z" fill="#8F9194"/>
<path d="M37.5212 9.95555L40.652 5.88232H42.3069V12.5069H40.5626V8.43369L37.4317 12.5069H35.7769V5.88232H37.5212V9.95555Z" fill="#8F9194"/>
<path d="M45.4377 12.462H43.6934V5.8374H49.9998V12.462H48.2555V7.35928H45.393V12.462H45.4377Z" fill="#8F9194"/>
<path d="M6.83884 0.600586L10.8195 5.4795L12.206 3.7786C12.5639 3.33099 12.5639 2.7491 12.206 2.30149L11.1774 1.04819C10.9537 0.779629 10.6406 0.645349 10.2828 0.645349H6.83884V0.600586ZM0.845459 0.600586L6.83884 7.89658L8.85155 5.4795L4.87086 0.600586H0.845459Z" fill="#8F9194"/>
<path d="M7.19653 17.2515H10.6405C10.9983 17.2515 11.3114 17.1172 11.535 16.8487L17.26 9.86599C17.6178 9.41838 17.6178 8.8365 17.26 8.38889L15.8735 6.68799L7.19653 17.2515Z" fill="#8F9194"/>
<path d="M12.2059 3.77822L10.8194 5.47913L1.15845 17.2512H5.13913L14.1739 6.1953C14.5317 5.74769 14.5317 5.1658 14.1739 4.71819L12.1612 2.25635C12.5637 2.70395 12.5637 3.33062 12.2059 3.77822Z" fill="#8F9194"/>
</svg>
