<svg width="49" height="50" viewBox="0 0 49 50" fill="none" xmlns="http://www.w3.org/2000/svg">
<rect opacity="0.2" x="0.5" y="0.5" width="48" height="49" rx="24" stroke="black"/>
<path d="M29.9973 14.1487C29.1096 14.0468 28.2174 13.9972 27.3247 14.0001C24.3653 14.0001 22.5261 16.04 22.5261 19.3236V21.5531H20.0401C19.9234 21.5531 19.8115 21.6032 19.729 21.6925C19.6465 21.7818 19.6001 21.9029 19.6001 22.0292V25.6957C19.6001 25.822 19.6465 25.9431 19.729 26.0324C19.8115 26.1217 19.9234 26.1718 20.0401 26.1718H22.5261V33.5238C22.5261 33.6501 22.5725 33.7712 22.655 33.8605C22.7375 33.9498 22.8494 34 22.9661 34H26.4667C26.5834 34 26.6953 33.9498 26.7779 33.8605C26.8604 33.7712 26.9067 33.6501 26.9067 33.5238V26.1718H29.3848C29.4916 26.1719 29.5948 26.1299 29.6752 26.0537C29.7555 25.9775 29.8074 25.8722 29.8213 25.7576L30.2587 22.0911C30.2668 22.0239 30.2616 21.9556 30.2434 21.8908C30.2252 21.8259 30.1944 21.766 30.1531 21.7151C30.1117 21.6641 30.0608 21.6233 30.0038 21.5954C29.9467 21.5675 29.8848 21.553 29.8222 21.5531H26.9067V19.6874C26.9067 18.7637 27.0783 18.378 28.1458 18.378H29.9401C30.0568 18.378 30.1687 18.3278 30.2512 18.2385C30.3337 18.1492 30.3801 18.0281 30.3801 17.9018V14.621C30.3801 14.5054 30.3413 14.3938 30.2709 14.3068C30.2005 14.2199 30.1032 14.1637 29.9973 14.1487ZM29.5001 17.4247L28.1449 17.4257C26.2467 17.4257 26.0267 18.717 26.0267 19.6874V22.0302C26.0267 22.1563 26.073 22.2773 26.1553 22.3665C26.2376 22.4558 26.3493 22.5061 26.4659 22.5063H29.3223L28.9976 25.2205H26.4667C26.35 25.2205 26.2381 25.2706 26.1556 25.3599C26.0731 25.4492 26.0267 25.5704 26.0267 25.6966V33.0467H23.4061V25.6966C23.4061 25.5704 23.3597 25.4492 23.2772 25.3599C23.1947 25.2706 23.0828 25.2205 22.9661 25.2205H20.481V22.5063H22.9661C23.0828 22.5063 23.1947 22.4562 23.2772 22.3669C23.3597 22.2776 23.4061 22.1565 23.4061 22.0302V19.3236C23.4061 16.5867 24.8713 14.9525 27.3247 14.9525C28.2127 14.9525 29.0143 15.0048 29.5001 15.0505V17.4247Z" fill="black"/>
</svg>
