<svg width="130" height="66" viewBox="0 0 130 66" fill="none" xmlns="http://www.w3.org/2000/svg">
<g clip-path="url(#clip0_145_1211)">
<path fill-rule="evenodd" clip-rule="evenodd" d="M11.3691 43.5593C11.2255 43.7091 8.76715 46.9572 8.66797 47.1175L49.0355 47.1633C45.9936 40.6546 43.4754 32.0334 40.0355 25.8574L43.524 28.814C41.7876 25.9644 40.5717 21.5643 40.0416 19.7732C41.5261 21.3823 42.2559 21.9459 43.552 22.439C43.4953 22.2979 40.0261 17.9143 40.0696 13.3306L34.3765 13.3341C34.3217 17.9558 31.0882 22.1243 31.0396 22.4503C32.853 21.2647 33.1785 21.0857 34.352 20.0083C33.8767 22.3459 32.7563 24.7099 31.0576 28.7905L34.4048 25.8391L31.0634 35.2193C39.3045 32.6145 42.6883 37.5598 43.3353 39.3396L44.8707 43.5654C44.8962 43.6347 22.6279 43.5374 11.3691 43.5593Z" fill="#2D6241"/>
<path fill-rule="evenodd" clip-rule="evenodd" d="M26.8699 35.1845C27.7876 35.1729 30.1703 35.1307 31.0636 35.2193C30.6208 34.7194 28.5824 32.8688 24.9052 28.813L26.913 28.8398C26.3904 28.0764 22.9955 22.5517 22.8802 22.4985C22.7018 22.696 19.0107 28.4182 18.824 28.8008L20.8724 28.7921C19.0217 30.8472 16.6126 33.7983 14.5693 35.189L18.8388 35.1868C16.2117 37.019 11.7203 39.6964 11.3948 40.166L34.442 40.1914C34.0398 39.8336 31.3457 37.9446 26.8699 35.1845Z" fill="#2D6241"/>
<path fill-rule="evenodd" clip-rule="evenodd" d="M60.8535 38.0826C63.3605 38.0111 67.0683 37.5953 68.6038 39.2015C72.558 43.3381 66.2085 49.4259 62.1085 45.8313C60.3811 44.3169 60.8545 40.7159 60.8535 38.0826ZM70.7562 43.1742C71.6363 39.9555 68.9107 37.1531 66.0887 36.965C64.4512 36.8559 62.1816 36.8852 60.5141 36.9125C59.3422 36.9319 59.7312 37.691 59.7409 38.9477C59.7715 42.8518 59.3764 47.4574 64.4963 47.9225C68.0998 48.2497 69.993 45.9662 70.7562 43.1742Z" fill="#2D6241"/>
<path fill-rule="evenodd" clip-rule="evenodd" d="M33.2012 10.8775L41.3591 10.901L40.062 8.19043L34.374 8.19333L33.2012 10.8775Z" fill="#2D6241"/>
<path fill-rule="evenodd" clip-rule="evenodd" d="M34.3674 7.65333L36.4671 7.65236L37.2799 4.69899C37.296 4.64069 38.044 7.55703 38.093 7.65397L40.0422 7.64624C38.6282 4.73635 37.9561 2.71182 37.2766 0C36.4729 2.8297 35.7934 5.03813 34.3674 7.65333Z" fill="#2D6241"/>
<path d="M28.7524 7.53359L31.0523 8.22733C30.8984 8.87179 30.6553 9.41125 30.3213 9.84186C29.9893 10.2747 29.5784 10.6007 29.0844 10.8203C28.5923 11.0396 27.966 11.1501 27.2054 11.1501C26.2805 11.1501 25.5276 11.0158 24.9409 10.7491C24.3561 10.4802 23.8521 10.008 23.4273 9.33396C23.0026 8.66019 22.7891 7.79447 22.7891 6.74323C22.7891 5.3403 23.1626 4.26105 23.9094 3.50612C24.6584 2.75344 25.7153 2.37598 27.0827 2.37598C28.1518 2.37598 28.9936 2.59112 29.6061 3.02398C30.2166 3.45684 30.673 4.12095 30.9696 5.01791L28.6577 5.53C28.5766 5.27299 28.4915 5.08522 28.4027 4.9667C28.2545 4.76702 28.0748 4.61307 27.8633 4.50614C27.6498 4.3976 27.4127 4.34414 27.15 4.34414C26.5533 4.34414 26.0966 4.58312 25.7807 5.05946C25.5414 5.41341 25.421 5.97059 25.421 6.72745C25.421 7.66821 25.5633 8.31042 25.8499 8.66019C26.1362 9.00802 26.5375 9.18194 27.055 9.18194C27.557 9.18194 27.9364 9.04152 28.1933 8.75906C28.45 8.47822 28.6358 8.06919 28.7524 7.53359Z" fill="#2D6241"/>
<path d="M43.5342 2.46071H46.1542V5.42503H49.0232V2.46071H51.6551V10.9504H49.0232V7.51204H46.1542V10.9504H43.5342V2.46071ZM58.6206 9.55138H55.6486L55.2219 10.9504H52.5445L55.7394 2.46071H58.6106L61.7919 10.9504H59.0453L58.6206 9.55138ZM58.0651 7.71365L57.1386 4.66237L56.2079 7.71365H58.0651ZM62.027 2.46071H70.0059V4.55963H67.3266V10.9504H64.7063V4.55963H62.027V2.46071ZM70.8496 6.7117C70.8496 5.32616 71.2351 4.24723 72.0076 3.47651C72.7802 2.70387 73.8551 2.31835 75.2343 2.31835C76.6471 2.31835 77.7359 2.69807 78.5004 3.45494C79.2652 4.21373 79.6465 5.27688 79.6465 6.64245C79.6465 7.63443 79.4806 8.44668 79.1467 9.08116C78.8127 9.71531 78.3287 10.2094 77.6982 10.5633C77.066 10.917 76.2796 11.0928 75.3371 11.0928C74.3806 11.0928 73.5881 10.9408 72.9599 10.6364C72.3335 10.3301 71.8237 9.84768 71.4344 9.18776C71.0454 8.52978 70.8496 7.70367 70.8496 6.7117ZM73.4696 6.71749C73.4696 7.57323 73.6297 8.18967 73.9478 8.56327C74.2679 8.93687 74.7027 9.12464 75.2521 9.12464C75.8153 9.12464 76.2539 8.94074 76.5621 8.57519C76.8722 8.20771 77.0264 7.55133 77.0264 6.60091C77.0264 5.8025 76.8645 5.21955 76.5424 4.85207C76.2181 4.48234 75.7815 4.29876 75.2282 4.29876C74.6988 4.29876 74.2721 4.48652 73.952 4.8598C73.6297 5.2334 73.4696 5.85403 73.4696 6.71749ZM81.0457 2.46071H85.4085C86.3588 2.46071 87.0702 2.68616 87.5445 3.13866C88.0166 3.59117 88.254 4.23531 88.254 5.0714C88.254 5.92907 87.995 6.60091 87.4792 7.08304C86.9636 7.56743 86.1753 7.80834 85.1161 7.80834H83.6776V10.9504H81.0457V2.46071ZM83.6776 6.08914H84.3236C84.8334 6.08914 85.1911 6.00025 85.3966 5.8244C85.6021 5.64855 85.7048 5.4231 85.7048 5.14837C85.7048 4.8817 85.6159 4.65625 85.4362 4.47074C85.2581 4.28491 84.9222 4.19183 84.4283 4.19183H83.6776V6.08914ZM97.7403 2.46071V10.9504H95.2745V6.28882L92.1186 10.9504H89.631V2.46071H92.109V7.15809L95.2883 2.46071H97.7403ZM107.616 2.46071V10.9504H105.15V6.28882L101.995 10.9504H99.5069V2.46071H101.985V7.15809L105.164 2.46071H107.616ZM105.696 0.374023C105.615 0.860026 105.379 1.25134 104.992 1.5499C104.605 1.84813 104.143 1.99822 103.607 1.99822C103.073 1.99822 102.613 1.84813 102.222 1.54764C101.833 1.24747 101.599 0.856161 101.522 0.374023H102.518C102.682 0.856161 103.036 1.09707 103.583 1.09707C104.168 1.09707 104.54 0.856161 104.7 0.374023H105.696Z" fill="#2D6241"/>
<path fill-rule="evenodd" clip-rule="evenodd" d="M58.1438 35.2652C62.4927 34.9666 68.0603 34.7872 70.6201 37.3C73.5222 40.1484 73.0215 44.8309 70.3686 47.613C66.8975 51.2537 58.157 50.518 58.1248 42.4541C58.1167 40.4772 57.8922 37.0691 58.1438 35.2652ZM75.2634 19.7563L75.2283 16.1433C75.2283 16.1433 63.1697 16.1797 54.1023 16.1191C54.1023 21.0739 54.119 36.949 54.1339 41.9236C54.3886 45.9363 54.8652 46.7002 56.912 49.5373C60.3654 53.5323 66.9454 55.1874 71.5376 51.3216C75.5587 48.0726 77.536 41.9626 73.9525 36.6456C72.6592 34.727 70.1677 32.6567 67.6964 32.1028C67.5554 32.0815 66.7261 31.9997 66.6408 31.9988C64.2523 31.9752 59.4692 32.0351 57.9927 32.0004C57.9924 31.9662 57.9798 22.7016 57.9972 19.7804L75.2576 19.7833C75.267 19.7833 75.2634 19.7656 75.2634 19.7563Z" fill="#2D6241"/>
<path fill-rule="evenodd" clip-rule="evenodd" d="M83.6584 13.3138L80.8033 13.3473C80.7534 14.8729 80.774 24.4332 80.7772 25.8799C80.7849 29.7686 81.278 30.8697 83.1651 33.2173C84.7301 35.1642 86.3303 36.1858 89.3792 36.6035C93.5302 37.172 95.862 35.3394 97.4708 35.2911C97.752 36.7288 97.5668 42.3154 97.523 44.1007C97.3446 51.3611 87.9787 52.5009 84.7636 47.2582C83.7341 45.5793 84.3141 44.7264 83.8642 43.6034L80.8291 43.4855C79.6356 51.6139 93.7009 58.692 99.327 48.3626C101.357 44.6353 100.681 37.9395 100.681 32.8952C100.681 30.1055 100.682 27.3157 100.682 24.526C100.682 22.6042 100.704 16.1084 100.537 13.3154L97.581 13.2954C97.647 16.8034 97.7587 25.0261 97.4831 28.0758C97.0944 31.0466 94.1469 33.5835 90.876 33.5603C87.6052 33.5374 84.6654 31.0382 84.0522 28.288C83.3934 25.335 83.8671 16.8243 83.6584 13.3138Z" fill="#2D6241"/>
<path fill-rule="evenodd" clip-rule="evenodd" d="M127.172 42.158L124.403 42.1642C123.807 42.8521 125.068 47.7901 119.561 49.5225C115.829 50.6967 112.566 49.3022 110.682 47.0947C105.747 41.312 110.324 33.8709 117.281 33.5166C124.437 33.1523 129.964 27.3744 125.93 20.4113C124.539 18.0109 121.483 16.1046 118.227 15.9706C114.79 15.8289 109.446 15.7477 106.074 15.9967C106.013 20.0889 105.338 19.5166 109.188 19.5166C111.357 19.5166 113.527 19.5101 115.696 19.5172C119.92 19.5308 123.813 19.8238 124.07 24.1444C124.362 29.0598 121.759 30.1065 117.653 30.7652C112.719 31.5568 111.446 31.2264 108.645 34.8992C106.207 38.0948 105.442 40.4317 106.549 45.2821C107.314 48.6287 109.772 51.0752 112.669 52.3032C116.26 53.8256 120.38 52.8543 122.879 50.8558C124.329 49.6964 128.078 45.2438 127.172 42.158Z" fill="#2D6241"/>
<path d="M15.9036 59.9859C19.9235 59.9859 23.5624 58.3562 26.1966 55.722C26.9705 54.9481 27.5566 54.0872 28.141 53.1558L29.4523 55.5974C28.6054 57.3066 29.5592 56.4154 28.2244 57.7504C25.0715 60.9038 20.7151 62.8545 15.9036 62.8545C11.0922 62.8545 6.73613 60.9041 3.58282 57.7504C2.77099 56.8441 2.67084 56.8644 1.84741 55.6901L3.65947 53.5149C4.24395 54.4466 4.8368 54.9481 5.61064 55.722C8.24483 58.3565 11.8841 59.9859 15.9036 59.9859ZM2.11405 55.676C2.88789 54.902 3.02443 54.5268 3.60891 53.5954L4.65292 56.0206C3.80599 57.7301 4.75791 56.2566 3.42342 57.5916C3.26563 54.7304 2.87243 56.5977 2.11405 55.676ZM65.2899 59.9859C69.3095 59.9859 72.9487 58.3562 75.5829 55.722C76.3458 54.8566 77.4442 54.0872 78.0287 53.1558L78.9352 55.027C78.0883 56.7365 78.9455 56.4154 77.6107 57.7504C74.4577 60.9038 70.1013 62.8545 65.2899 62.8545C60.4785 62.8545 56.1224 60.9041 52.9691 57.7504C51.6343 56.4154 52.6326 56.9195 51.7857 55.2102L52.8329 53.1558C53.4174 54.0872 54.2231 54.9481 54.9969 55.722C57.6311 58.3565 61.2704 59.9859 65.2899 59.9859ZM40.3694 59.9859C44.389 59.9859 48.0282 58.3562 50.6621 55.722C51.4359 54.9481 52.2481 54.0872 52.8329 53.1558L53.6103 55.1996C52.7633 56.9088 54.025 56.4154 52.6902 57.7504C49.5369 60.9038 45.1809 62.8545 40.3694 62.8545C35.5577 62.8545 31.2016 60.9041 28.0483 57.7504C26.7138 56.4154 27.9803 56.9484 27.1334 55.2392L28.141 53.1558C28.7258 54.0872 29.3026 54.9481 30.0764 55.722C32.7103 58.3565 36.3495 59.9859 40.3694 59.9859ZM115.548 59.9859C119.568 59.9859 123.207 58.3565 125.841 55.722C126.615 54.9481 127.302 54.0872 127.886 53.1558L129.979 55.3104L128.265 57.3353C128.105 57.523 127.698 57.8641 127.011 58.5533C123.488 61.2503 120.36 62.8545 115.548 62.8545C110.737 62.8545 106.381 60.9041 103.227 57.7504C102.658 57.0058 102.553 56.2116 103.147 53.1674C103.731 54.0988 104.481 54.9481 105.255 55.722C107.889 58.3565 111.529 59.9859 115.548 59.9859ZM90.6278 59.9859C94.6473 59.9859 98.2866 58.3562 100.92 55.722C101.694 54.9481 102.562 54.0988 103.147 53.1674L103.931 55.2354C103.084 56.9446 104.283 56.4154 102.949 57.7504C99.7953 60.9038 95.4392 62.8545 90.6278 62.8545C85.8163 62.8545 81.4599 60.9041 78.3066 57.7504C76.9721 56.4154 77.9852 56.5726 77.1383 54.8634L78.0287 53.1558C78.6132 54.0872 79.5609 54.9481 80.3348 55.722C82.9686 58.3565 86.6079 59.9859 90.6278 59.9859Z" fill="#2D6241"/>
<path d="M3.37207 53.8864L11.4102 43.5483L12.1651 44.1355L4.1269 54.4736L3.37207 53.8864Z" fill="#2D6241"/>
<path d="M15.8377 55.4432C19.3262 55.4432 22.4847 54.029 24.7708 51.7426C26.2337 50.2795 27.3396 48.4588 27.9463 46.4233H28.9407C28.3079 48.7236 27.0858 50.7796 25.4467 52.4187C22.9877 54.8783 19.5903 56.3994 15.8377 56.3994C12.0851 56.3994 8.68801 54.8783 6.22868 52.4187C5.89667 52.0866 5.66931 51.8441 5.37305 51.4792L5.97524 50.7052C6.40193 51.2917 6.30081 51.1384 6.90461 51.7426C9.19069 54.029 12.3492 55.4432 15.8377 55.4432ZM40.5427 55.4432C44.0313 55.4432 47.1897 54.029 49.4758 51.7426C50.9388 50.2795 52.0446 48.4588 52.6513 46.4233L52.795 46.518L52.8291 48.6224C52.1573 50.0399 51.2479 51.3227 50.1518 52.4187C47.6927 54.8783 44.2953 56.3994 40.5427 56.3994C36.7901 56.3994 33.3931 54.8783 30.9337 52.4187C29.2946 50.7796 28.0725 48.7236 27.4397 46.4233H28.4342C29.0409 48.4588 30.1467 50.2795 31.6097 51.7426C33.8958 54.029 37.0542 55.4432 40.5427 55.4432Z" fill="#2D6241"/>
<path d="M15.9552 65.0437C20.568 65.0437 25.324 63.7071 28.1453 60.6217C28.238 61.2784 28.6905 61.3186 28.943 61.4481C25.3691 64.3416 20.9112 65.9999 15.9552 65.9999C10.2025 65.9323 8.49801 65.4489 4.38571 62.5905C4.04017 62.3502 2.66285 61.0011 1.67036 59.6593C1.03758 58.8039 0.170353 57.5952 0 57.3872L0.729072 56.5771C0.948374 56.9343 1.6227 57.8232 2.26708 58.7266C3.24476 60.0977 4.38474 61.2884 4.6897 61.5006C8.32347 64.0298 10.474 65.0437 15.9552 65.0437ZM65.4117 65.0437C70.066 65.0437 74.4707 63.4887 77.986 60.5969C78.2008 60.7837 78.2816 61.0175 78.7321 61.1843C75.1077 64.2511 70.5307 65.9999 65.4117 65.9999C60.4583 65.9999 55.8227 64.3049 52.1081 61.1795C52.1944 61.136 52.833 60.6871 52.8751 60.5843C56.3946 63.4923 60.7423 65.0437 65.4117 65.0437ZM40.3395 65.0437C45.1284 65.0437 49.4462 63.4089 52.8751 60.5843C53.0845 60.8207 53.0449 60.9367 53.6448 61.1889C50.0284 64.2266 45.4315 65.9999 40.3395 65.9999C35.5217 65.9999 31.0406 64.4414 27.365 61.46C27.4297 61.4079 28.1437 60.5962 28.1446 60.5953C31.2397 63.8156 35.8318 65.0437 40.3395 65.0437ZM115.634 65.0437C121.116 65.0437 124.032 63.8366 127.993 60.7132C128.08 60.6397 129.331 59.4133 129.406 59.3566L129.927 60.0262C127.126 63.7467 121.266 65.9999 115.634 65.9999C110.686 65.9999 106.041 64.3068 102.329 61.1892C102.544 61.0636 102.713 61.0095 102.858 60.8046L103.006 60.7305C103.034 60.7186 103.076 60.5988 103.098 60.584C106.614 63.4842 110.968 65.0437 115.634 65.0437ZM90.5621 65.0437C95.3687 65.0437 99.6639 63.4269 103.098 60.584C103.243 60.783 103.361 60.9145 103.567 60.9992C103.608 61.0526 103.811 61.1441 103.865 61.1856C100.244 64.2421 95.6718 65.9999 90.5621 65.9999C85.5952 65.9999 80.9673 64.3274 77.243 61.1785C77.3892 61.0658 77.8655 60.7132 77.986 60.5969C81.517 63.5197 85.8979 65.0437 90.5621 65.0437Z" fill="#2D6241"/>
<path d="M75.2345 23.4095V22.4359L75.3511 22.4334L75.468 22.4256L75.5852 22.4131L75.7018 22.3957L75.818 22.3731L75.9336 22.3461L76.048 22.3145L76.1607 22.2781L76.2718 22.2375L76.3806 22.1925L76.4872 22.1432L76.5909 22.09L76.6917 22.0333L76.7893 21.9725L76.883 21.9084L76.9731 21.8408L77.0588 21.7699L77.1403 21.6961L77.2172 21.6198L77.2894 21.5406L77.3564 21.4591L77.4182 21.375L77.4749 21.289L77.5261 21.2008L77.5715 21.1106L77.6117 21.0188L77.6459 20.9248L77.6742 20.8288L77.6964 20.7309L77.7128 20.6311L77.7228 20.5286L77.726 20.4233H78.6995L78.6944 20.5908L78.6783 20.7557L78.6522 20.9174L78.6161 21.0755L78.5704 21.2295L78.516 21.3792L78.4529 21.5248L78.3817 21.6652L78.3028 21.8011L78.2171 21.9316L78.1244 22.0572L78.0255 22.1776L77.9209 22.2926L77.8104 22.4024L77.6951 22.5071L77.575 22.606L77.4504 22.6997L77.3216 22.7876L77.1889 22.8704L77.0527 22.9474L76.9129 23.0189L76.7706 23.0846L76.625 23.1448L76.4772 23.1989L76.3272 23.2472L76.1752 23.2894L76.0212 23.3255L75.866 23.3554L75.7092 23.379L75.5517 23.3957L75.3933 23.406L75.2345 23.4095ZM60.9815 22.4359H75.2345V23.4095H60.9815L60.4949 22.9226L60.9815 22.4359ZM60.4949 29.2493V22.9226H61.4684V29.2493L60.9815 29.736L60.4949 29.2493ZM68.2797 29.736H60.9815V28.7623H68.2797L68.3289 28.7649L68.2797 29.736ZM71.2082 29.7553L70.766 30.6229L70.7458 30.6117L70.672 30.5698L70.5986 30.5286L70.5258 30.4883L70.4537 30.4487L70.3815 30.41L70.3101 30.3724L70.2386 30.3353L70.1671 30.2992L70.0956 30.2641L70.0244 30.23L69.9526 30.1968L69.8808 30.1646L69.8087 30.1334L69.7359 30.1028L69.6628 30.0735L69.5887 30.0451L69.514 30.0178L69.4386 29.991L69.3623 29.9656L69.2847 29.9414L69.2058 29.9179L69.126 29.8957L69.0445 29.8741L68.9614 29.8542L68.877 29.8348L68.7907 29.8168L68.7025 29.8L68.6123 29.7843L68.5202 29.7698L68.4262 29.7566L68.3296 29.7443L68.2307 29.7337L68.3289 28.7649L68.4426 28.7772L68.5544 28.7913L68.6642 28.8068L68.772 28.8239L68.8777 28.8422L68.9817 28.8622L69.0838 28.8834L69.1842 28.9063L69.2828 28.9301L69.38 28.9556L69.4754 28.9823L69.5694 29.0103L69.6618 29.0393L69.7529 29.0696L69.8428 29.1012L69.9313 29.1337L70.0186 29.1672L70.1049 29.2016L70.1899 29.2374L70.274 29.2738L70.3571 29.3111L70.4392 29.3491L70.5203 29.3881L70.6012 29.4277L70.681 29.468L70.7602 29.5089L70.8391 29.5504L70.9177 29.5926L70.9957 29.6355L71.0736 29.6786L71.1512 29.7221L71.2288 29.7662L71.2082 29.7553ZM76.577 35.1087L75.7642 35.6443L75.7546 35.6292L75.6399 35.443L75.5224 35.2569L75.4013 35.071L75.2773 34.8858L75.1505 34.701L75.0204 34.5171L74.8874 34.3341L74.7511 34.1525L74.6127 33.9721L74.471 33.7934L74.3267 33.6166L74.1795 33.4414L74.0301 33.2684L73.8778 33.0977L73.7232 32.9296L73.5661 32.764L73.4064 32.6014L73.2444 32.442L73.0801 32.2854L72.914 32.1325L72.7452 31.983L72.5746 31.8371L72.4019 31.6954L72.2271 31.5576L72.0506 31.4242L71.8722 31.2951L71.6919 31.1704L71.5099 31.051L71.3264 30.936L71.1412 30.8265L70.9544 30.7218L70.766 30.6229L71.2082 29.7553L71.4188 29.8661L71.6268 29.9827L71.8326 30.1044L72.0355 30.2313L72.2361 30.3633L72.4342 30.4999L72.6293 30.6413L72.8222 30.7869L73.0122 30.9366L73.1996 31.0906L73.3845 31.2484L73.5664 31.4097L73.7455 31.5746L73.9219 31.7428L74.0955 31.9138L74.2665 32.088L74.4343 32.2648L74.5995 32.4442L74.7615 32.6259L74.9205 32.8098L75.0767 32.9956L75.2297 33.1834L75.3797 33.3731L75.5269 33.5637L75.6705 33.756L75.8113 33.9496L75.9488 34.1438L76.0831 34.339L76.2138 34.5348L76.3416 34.7309L76.4659 34.9274L76.5867 35.1242L76.577 35.1087ZM71.1505 55.056L70.728 54.1787L71.338 53.8618L71.9228 53.5117L72.4821 53.1301L73.0157 52.7185L73.5233 52.2782L74.004 51.8109L74.4581 51.3181L74.8848 50.8018L75.2838 50.2633L75.6541 49.7042L75.9958 49.1264L76.3085 48.5313L76.5912 47.9206L76.844 47.2964L77.0662 46.6597L77.2572 46.013L77.4169 45.3573L77.5444 44.6951L77.6397 44.0271L77.7022 43.3563L77.7318 42.6831L77.728 42.01L77.69 41.3388L77.6178 40.6708L77.5109 40.0077L77.3692 39.3513L77.1921 38.7033L76.9796 38.0653L76.7307 37.4389L76.4457 36.8257L76.1236 36.2269L75.7642 35.6443L76.577 35.1087L76.9667 35.7403L77.3161 36.3893L77.6249 37.0537L77.8941 37.7316L78.1241 38.4209L78.315 39.1201L78.4677 39.8273L78.5826 40.541L78.6602 41.2589L78.7008 41.9797L78.7053 42.7015L78.6738 43.4226L78.6065 44.1415L78.5047 44.8561L78.3678 45.5647L78.1972 46.2661L77.993 46.9583L77.755 47.6394L77.4845 48.3081L77.1815 48.9625L76.8463 49.6008L76.4792 50.2211L76.0808 50.8221L75.6515 51.4019L75.1917 51.9587L74.7016 52.4904L74.1815 52.9955L73.6321 53.4721L73.0541 53.9182L72.4474 54.332L71.8123 54.7121L71.1505 55.056ZM53.1785 49.3364L54.0112 48.8324L54.3333 49.3361L54.6791 49.8234L55.0475 50.2936L55.4378 50.7461L55.8487 51.1809L56.2793 51.597L56.7282 51.9941L57.1948 52.3716L57.6775 52.7288L58.1757 53.0653L58.688 53.3806L59.2133 53.6741L59.7501 53.9449L60.2982 54.1929L60.8556 54.4177L61.4217 54.6184L61.9953 54.7949L62.5749 54.9462L63.1597 55.0722L63.7484 55.172L64.3403 55.2458L64.9338 55.2924L65.5279 55.3118L66.1214 55.3034L66.7136 55.2667L67.3033 55.201L67.889 55.1063L68.4703 54.982L69.0458 54.8277L69.6145 54.6425L70.1758 54.4264L70.728 54.1787L71.1505 55.056L70.55 55.3253L69.9404 55.5601L69.3227 55.7611L68.6983 55.9285L68.0687 56.0635L67.4347 56.1659L66.7974 56.2368L66.1585 56.2764L65.5189 56.2854L64.8797 56.2645L64.2421 56.2145L63.607 56.1353L62.9759 56.0284L62.3495 55.8934L61.7293 55.7314L61.1158 55.543L60.511 55.3282L59.9153 55.0883L59.3302 54.8232L58.7563 54.534L58.1953 54.2206L57.6479 53.8837L57.1156 53.524L56.599 53.1417L56.0996 52.7378L55.6181 52.312L55.1564 51.8656L54.7152 51.3986L54.2956 50.912L53.8985 50.4054L53.5259 49.8801L53.1785 49.3364ZM51.4949 44.2413L52.4652 44.163L52.4822 44.3624L52.4999 44.5534L52.5189 44.7373L52.5389 44.9138L52.5602 45.0835L52.5827 45.2471L52.6069 45.4046L52.6323 45.5566L52.6593 45.7038L52.6883 45.8462L52.7189 45.9847L52.7514 46.1196L52.7859 46.2513L52.8226 46.3805L52.8616 46.5077L52.9028 46.6333L52.9466 46.7579L52.993 46.8819L53.0422 47.0059L53.0947 47.1309L53.1501 47.2565L53.2091 47.3837L53.2712 47.5126L53.3372 47.6443L53.4071 47.7786L53.4805 47.9161L53.5581 48.0575L53.6399 48.2027L53.7262 48.3525L53.8167 48.5071L53.9117 48.6668L54.0112 48.8324L53.1785 49.3364L53.0764 49.1667L52.9782 49.0018L52.8841 48.8411L52.794 48.6842L52.7077 48.5309L52.6249 48.3805L52.5457 48.2327L52.47 48.0868L52.3979 47.9425L52.3289 47.7998L52.2629 47.6575L52.2005 47.5161L52.1412 47.3744L52.0849 47.2327L52.0314 47.09L51.9808 46.9467L51.9335 46.8021L51.8887 46.6558L51.8465 46.5077L51.8073 46.357L51.7702 46.204L51.7358 46.0478L51.7036 45.8887L51.6736 45.7257L51.6453 45.5586L51.6192 45.3872L51.5947 45.2107L51.5722 45.0291L51.5509 44.842L51.531 44.6484L51.5123 44.4484L51.4949 44.2413ZM51.3252 39.3987L52.2987 39.3835L52.3009 39.533L52.3032 39.6827L52.3054 39.8325L52.3077 39.9823L52.3099 40.1323L52.3122 40.2824L52.3148 40.4328L52.3174 40.5829L52.3199 40.733L52.3228 40.8834L52.3257 41.0338L52.3289 41.1839L52.3322 41.3343L52.3357 41.4844L52.3396 41.6345L52.3438 41.7846L52.3483 41.9346L52.3531 42.0844L52.3579 42.2342L52.3634 42.3839L52.3695 42.5334L52.3756 42.6825L52.3824 42.8319L52.3895 42.9807L52.3969 43.1295L52.4053 43.278L52.4136 43.4261L52.423 43.574L52.4326 43.7218L52.4429 43.869L52.4539 44.0162L52.4652 44.163L51.4949 44.2413L51.483 44.0902L51.4717 43.9389L51.4611 43.7875L51.4514 43.6361L51.4418 43.4844L51.4331 43.3327L51.4247 43.1807L51.417 43.0287L51.4099 42.8767L51.4028 42.7247L51.3967 42.5727L51.3906 42.4206L51.3851 42.2686L51.3799 42.1163L51.3751 41.9643L51.3706 41.8123L51.3664 41.6606L51.3625 41.5085L51.359 41.3568L51.3555 41.2052L51.3522 41.0535L51.3493 40.9021L51.3464 40.7507L51.3439 40.5997L51.3413 40.4489L51.339 40.2982L51.3365 40.1475L51.3342 39.9974L51.3319 39.8473L51.3297 39.6975L51.3274 39.5478L51.3252 39.3987ZM51.2196 30.448L52.1931 30.4355V30.4358L52.1966 30.7157L52.1998 30.9956L52.203 31.2751L52.2059 31.555L52.2092 31.8349L52.2124 32.1144L52.2153 32.3943L52.2182 32.6739L52.2211 32.9537L52.2243 33.2333L52.2272 33.5129L52.2301 33.7927L52.233 34.0723L52.2359 34.3518L52.2388 34.6317L52.242 34.9113L52.2449 35.1908L52.2481 35.4704L52.251 35.7499L52.2542 36.0298L52.2575 36.3094L52.2607 36.5889L52.2642 36.8685L52.2674 37.1477L52.271 37.4273L52.2745 37.7068L52.2784 37.9864L52.2823 38.2656L52.2861 38.5452L52.29 38.8247L52.2942 39.104L52.2987 39.3835L51.3252 39.3987L51.321 39.1188L51.3168 38.8389L51.3126 38.559L51.3088 38.2792L51.3049 37.9993L51.301 37.7197L51.2975 37.4398L51.2939 37.16L51.2907 36.8801L51.2872 36.6002L51.284 36.3207L51.2807 36.0408L51.2775 35.7609L51.2746 35.4813L51.2714 35.2015L51.2685 34.9219L51.2653 34.642L51.2624 34.3625L51.2595 34.0826L51.2566 33.803L51.2537 33.5232L51.2508 33.2436L51.2476 32.964L51.2447 32.6842L51.2418 32.4046L51.2389 32.1251L51.2357 31.8455L51.2324 31.5659L51.2295 31.2864L51.2263 31.0068L51.2231 30.7273L51.2196 30.4477V30.448ZM51.2192 30.4097H52.1931V30.4107V30.412V30.4129V30.4139V30.4149V30.412V30.4129V30.4178V30.4191V30.42V30.4168V30.4178V30.4229V30.4197V30.4207V30.4216V30.4226V30.4278V30.4245V30.4255V30.4268V30.4236V30.4287V30.4297V30.4307V30.4316V30.4287V30.43V30.4348V30.4358V30.4332V30.4355L51.2196 30.448V30.4484V30.4435V30.4426V30.4455V30.4445V30.4397V30.4387V30.4377V30.4368V30.4397V30.4348V30.4339V30.4329V30.4278V30.4307V30.4297V30.4287V30.4278V30.4229V30.4258V30.4249V30.42V30.4191V30.4178V30.421V30.42L51.2192 30.4149V30.4139V30.4129V30.412V30.4107V30.4097ZM52.1931 16.4983V30.4097H51.2192V16.4983H52.1931ZM54.3703 13.3471V14.3208L54.2582 14.3237L54.1478 14.332L54.0392 14.3459L53.9323 14.3652L53.8273 14.3894L53.7246 14.419L53.6235 14.4531L53.525 14.4921L53.4287 14.5359L53.335 14.5839L53.2435 14.6364L53.1553 14.6934L53.0696 14.7543L52.9872 14.819L52.908 14.8876L52.8323 14.9601L52.7598 15.0361L52.6912 15.1153L52.6262 15.1978L52.5653 15.2831L52.5086 15.3717L52.4561 15.4628L52.4078 15.5569L52.364 15.6532L52.3251 15.7517L52.2909 15.8525L52.2616 15.9556L52.2372 16.0606L52.2182 16.1675L52.2043 16.276L52.1956 16.3862L52.1931 16.4983H51.2192L51.2234 16.3369L51.2357 16.1772L51.2556 16.0197L51.2836 15.8648L51.3191 15.7121L51.3616 15.5627L51.4112 15.4161L51.4678 15.2728L51.5313 15.1333L51.6008 14.9974L51.6768 14.8654L51.759 14.7375L51.8469 14.6142L51.9406 14.4953L52.0394 14.381L52.1438 14.2715L52.2529 14.1675L52.3673 14.0683L52.4861 13.9749L52.6098 13.8869L52.7376 13.8048L52.8693 13.7288L53.0052 13.6589L53.145 13.5958L53.2879 13.5391L53.4345 13.4895L53.5842 13.4467L53.7365 13.4112L53.8918 13.3835L54.0492 13.3636L54.209 13.3513L54.3703 13.3471ZM75.0468 14.3208H54.3703V13.3471H75.0468L75.0519 14.3208H75.0468ZM76.5677 14.3037L75.0519 14.3208L75.0413 13.3471L76.5568 13.3301L76.5677 14.3037ZM77.9347 13.4267L77.7009 14.372H77.7013L77.6916 14.37L77.6745 14.3665L77.6513 14.363L77.6227 14.3588L77.5898 14.3546L77.5538 14.3504L77.5142 14.3465L77.4723 14.3427L77.4282 14.3391L77.3824 14.3356L77.3351 14.3324L77.2868 14.3291L77.2375 14.3262L77.1883 14.3237L77.1387 14.3211L77.0891 14.3188L77.0401 14.3166L76.9918 14.3146L76.9448 14.313L76.8991 14.3114L76.855 14.3101L76.8128 14.3088L76.7725 14.3076L76.7352 14.3066L76.7004 14.3059L76.6688 14.3053L76.6405 14.3047L76.616 14.3043L76.5954 14.304H76.5796H76.5696L76.5677 14.3037L76.5564 13.3301H76.5719H76.588L76.6076 13.3304L76.6305 13.3307L76.6576 13.331L76.6878 13.3317L76.7216 13.3323L76.7584 13.3333L76.7983 13.3343L76.8401 13.3356L76.8849 13.3368L76.9313 13.3381L76.9796 13.3397L77.0295 13.3417L77.0807 13.3439L77.1329 13.3462L77.1857 13.3484L77.2391 13.3513L77.2929 13.3542L77.3464 13.3571L77.3998 13.3607L77.453 13.3645L77.5055 13.3684L77.557 13.3726L77.6075 13.3774L77.6571 13.3823L77.7054 13.3877L77.7525 13.3938L77.7985 13.4003L77.8436 13.4077L77.8887 13.4164L77.9347 13.4267ZM78.7858 14.7092H77.8123V14.6876L77.8117 14.666L77.8107 14.6444L77.8091 14.6232L77.8072 14.6023L77.8049 14.582L77.8024 14.5623L77.7991 14.5436L77.7959 14.5256L77.7921 14.5082L77.7882 14.4921L77.7837 14.477L77.7792 14.4631L77.7747 14.4502L77.7702 14.439L77.7653 14.4287L77.7608 14.42L77.7566 14.4122L77.7528 14.4058L77.7492 14.4006L77.746 14.3964L77.7431 14.3932L77.7405 14.3907L77.7383 14.3884L77.736 14.3868L77.7338 14.3849L77.7309 14.3832L77.7277 14.3813L77.7235 14.3794L77.7177 14.3771L77.7106 14.3745L77.7009 14.372L77.9347 13.4267L77.9965 13.4438L78.0571 13.4644L78.116 13.4882L78.173 13.5156L78.2278 13.5459L78.2799 13.579L78.3295 13.6148L78.3762 13.6531L78.42 13.6934L78.4606 13.7352L78.4986 13.779L78.533 13.8235L78.5649 13.8689L78.5936 13.915L78.62 13.9613L78.6435 14.008L78.6644 14.0547L78.6834 14.1014L78.7005 14.1478L78.7153 14.1939L78.7282 14.2396L78.7398 14.285L78.7498 14.3301L78.7581 14.3745L78.7652 14.4183L78.771 14.4618L78.7759 14.5047L78.7797 14.5469L78.7826 14.5884L78.7846 14.6293L78.7855 14.6699L78.7858 14.7092ZM78.6995 20.4233H77.726L77.7264 20.2961L77.727 20.1599L77.7283 20.0153L77.7299 19.8629L77.7318 19.7035L77.7341 19.537L77.7367 19.3644L77.7396 19.1863L77.7428 19.0027L77.7463 18.8149L77.7499 18.6233L77.7534 18.4281L77.7573 18.2304L77.7611 18.03L77.7653 17.8284L77.7692 17.6255L77.7734 17.4223L77.7772 17.2191L77.7814 17.0165L77.7853 16.8152L77.7888 16.6155L77.7924 16.4184L77.7959 16.2245L77.7991 16.0338L77.802 15.8474L77.8046 15.6657L77.8069 15.4896L77.8088 15.3192L77.8104 15.1556L77.8114 14.9987L77.812 14.8499L77.8123 14.7092H78.7858V14.8531L78.7849 15.0048L78.7839 15.1636L78.7823 15.3295L78.7804 15.5015L78.7781 15.6792L78.7752 15.8622L78.7723 16.0493L78.7694 16.2409L78.7659 16.4358L78.7623 16.6335L78.7585 16.8335L78.7546 17.0352L78.7507 17.2381L78.7469 17.4413L78.7427 17.6448L78.7388 17.8477L78.7346 18.0494L78.7308 18.2494L78.7269 18.4468L78.723 18.6416L78.7195 18.8329L78.7163 19.0201L78.7131 19.2024L78.7102 19.3798L78.7076 19.5512L78.7053 19.7161L78.7034 19.8742L78.7018 20.0246L78.7005 20.1666L78.6999 20.2997L78.6995 20.4233Z" fill="#2D6241"/>
<path d="M102.74 14.083C102.74 13.8382 102.939 13.6401 103.183 13.6401C103.428 13.6401 103.626 13.8382 103.626 14.083H102.74ZM102.74 30.4595V14.083H103.626V30.4595H102.74ZM103.626 30.4927L102.74 30.4827V30.4818V30.4808V30.4798V30.475V30.4782V30.4773V30.4763V30.4795V30.4744V30.4737V30.4728V30.4718V30.4753V30.4702V30.4692V30.4728V30.4718V30.4666V30.466V30.4692V30.4682V30.4676V30.4624V30.4615V30.4647V30.4641V30.4631V30.4621V30.4612V30.4602V30.4595H103.626V30.4602V30.4612V30.4621V30.4631V30.4641V30.4647V30.4699V30.4708V30.4676V30.4682V30.4692V30.4744V30.475V30.4718V30.4728V30.4776V30.4785V30.4753V30.4802V30.4811V30.4821V30.4827V30.4795V30.4847V30.4853V30.4863V30.4911V30.4879V30.4889V30.4898V30.4905V30.4927ZM103.525 39.5496L102.64 39.5367L102.644 39.254L102.648 38.9712L102.652 38.6884L102.656 38.4056L102.659 38.1229L102.663 37.8398L102.666 37.557L102.669 37.2742L102.673 36.9914L102.676 36.7083L102.679 36.4256L102.682 36.1428L102.685 35.8597L102.688 35.5769L102.691 35.2938L102.694 35.011L102.697 34.7279L102.7 34.4452L102.702 34.1621L102.705 33.879L102.708 33.5962L102.711 33.3131L102.714 33.03L102.716 32.7469L102.719 32.4641L102.722 32.181L102.725 31.8979L102.728 31.6148L102.731 31.3317L102.734 31.0489L102.737 30.7658L102.74 30.4827L103.626 30.4927L103.623 30.7755L103.619 31.0583L103.617 31.3414L103.614 31.6241L103.611 31.9069L103.608 32.19L103.605 32.4728L103.602 32.7559L103.599 33.039L103.597 33.3218L103.594 33.6049L103.591 33.8876L103.588 34.1707L103.585 34.4538L103.582 34.7369L103.579 35.02L103.577 35.3028L103.574 35.5859L103.571 35.869L103.568 36.1521L103.565 36.4352L103.561 36.7183L103.558 37.0014L103.555 37.2845L103.552 37.5676L103.548 37.8507L103.545 38.1338L103.541 38.4169L103.537 38.7003L103.533 38.9834L103.53 39.2665L103.525 39.5496ZM103.366 44.4673L102.482 44.4022L102.493 44.2525L102.503 44.1021L102.513 43.9517L102.522 43.8009L102.531 43.6499L102.539 43.4988L102.546 43.3475L102.553 43.1961L102.56 43.0444L102.566 42.8924L102.572 42.7404L102.578 42.5883L102.583 42.436L102.588 42.2837L102.592 42.1313L102.596 41.9787L102.6 41.826L102.604 41.6733L102.607 41.5207L102.61 41.368L102.614 41.215L102.617 41.0624L102.619 40.9094L102.622 40.7567L102.624 40.6041L102.627 40.4514L102.629 40.2988L102.631 40.1461L102.633 39.9934L102.636 39.8411L102.638 39.6888L102.64 39.5367L103.525 39.5496L103.523 39.7016L103.521 39.854L103.519 40.0063L103.517 40.159L103.514 40.3116L103.512 40.4646L103.51 40.6179L103.507 40.7712L103.505 40.9249L103.502 41.0785L103.499 41.2321L103.496 41.3861L103.493 41.54L103.489 41.694L103.486 41.8482L103.482 42.0022L103.477 42.1564L103.473 42.3107L103.468 42.465L103.463 42.6193L103.457 42.7735L103.451 42.9278L103.445 43.0821L103.438 43.2363L103.431 43.3906L103.423 43.5446L103.415 43.6985L103.406 43.8525L103.397 44.0064L103.387 44.1604L103.377 44.3137L103.366 44.4673ZM101.908 49.6507L101.112 49.261L101.197 49.0874L101.278 48.9189L101.356 48.7556L101.43 48.5972L101.5 48.4429L101.568 48.2925L101.632 48.1456L101.693 48.002L101.751 47.8613L101.806 47.7228L101.858 47.5862L101.908 47.4509L101.955 47.3173L101.999 47.1839L102.041 47.0513L102.081 46.9179L102.119 46.7843L102.155 46.6493L102.188 46.5131L102.22 46.3746L102.25 46.2338L102.278 46.0902L102.305 45.943L102.33 45.7923L102.353 45.6374L102.375 45.4779L102.396 45.3134L102.416 45.1436L102.434 44.9678L102.451 44.7861L102.467 44.5977L102.482 44.4022L103.366 44.4673L103.35 44.6696L103.333 44.8654L103.315 45.0554L103.296 45.2399L103.275 45.4193L103.253 45.5942L103.23 45.7649L103.204 45.9314L103.177 46.0944L103.148 46.2545L103.118 46.4113L103.085 46.5656L103.05 46.7179L103.013 46.8683L102.973 47.0174L102.932 47.1649L102.888 47.3118L102.841 47.458L102.793 47.6042L102.741 47.7505L102.687 47.8973L102.631 48.0448L102.572 48.1936L102.51 48.344L102.445 48.4964L102.377 48.651L102.307 48.8085L102.233 48.9689L102.157 49.1331L102.077 49.3009L101.994 49.4735L101.908 49.6507ZM92.492 56.2202L92.3932 55.34L92.7474 55.2949L93.0981 55.2392L93.4452 55.1732L93.7885 55.0972L94.1276 55.0112L94.4629 54.9152L94.7933 54.8093L95.1195 54.694L95.4409 54.5687L95.7574 54.434L96.0685 54.2898L96.3747 54.1365L96.6752 53.9738L96.9702 53.8018L97.2594 53.6211L97.5427 53.4314L97.8197 53.233L98.0905 53.0256L98.3546 52.8098L98.6119 52.5857L98.8624 52.3528L99.1059 52.1116L99.3422 51.862L99.5712 51.6047L99.7924 51.339L100.006 51.0652L100.211 50.7837L100.408 50.4945L100.597 50.1975L100.778 49.8929L100.949 49.5808L101.112 49.261L101.908 49.6507L101.732 49.9953L101.547 50.3322L101.352 50.661L101.148 50.9818L100.935 51.2945L100.713 51.5989L100.482 51.8949L100.243 52.1821L99.995 52.461L99.7393 52.7309L99.4756 52.9918L99.2044 53.244L98.9258 53.4868L98.6399 53.7203L98.3468 53.9448L98.047 54.1596L97.7408 54.3648L97.4278 54.5603L97.109 54.7461L96.784 54.922L96.453 55.0878L96.1168 55.2434L95.7751 55.389L95.428 55.5239L95.0763 55.6489L94.7195 55.7629L94.3585 55.8663L93.993 55.959L93.6236 56.0408L93.2501 56.1117L92.8727 56.1716L92.492 56.2202ZM81.4033 52.2114L82.0293 51.585L82.2886 51.8372L82.5536 52.082L82.8244 52.319L83.101 52.548L83.3831 52.7693L83.6704 52.9825L83.9628 53.1876L84.2603 53.3844L84.5624 53.5732L84.8693 53.7532L85.1804 53.9245L85.4957 54.0875L85.8148 54.2411L86.1378 54.3864L86.4646 54.5223L86.7947 54.6489L87.128 54.7664L87.4645 54.8746L87.8036 54.9732L88.1456 55.0621L88.4902 55.1416L88.837 55.2109L89.1858 55.2705L89.5368 55.3201L89.8894 55.359L90.2436 55.388L90.5995 55.4067L90.9563 55.4151L91.3144 55.4125L91.6731 55.3993L92.0328 55.3751L92.3932 55.34L92.492 56.2202L92.1053 56.2579L91.7192 56.2837L91.3337 56.2979L90.9495 56.3008L90.5663 56.2921L90.1844 56.2721L89.8044 56.2408L89.426 56.1987L89.0496 56.1455L88.6757 56.0817L88.3037 56.0074L87.9347 55.9226L87.5685 55.8273L87.2053 55.7217L86.8453 55.6061L86.4888 55.4801L86.1358 55.3445L85.7864 55.1993L85.4412 55.0444L85.1002 54.8798L84.7634 54.7062L84.4313 54.5229L84.1038 54.331L83.7815 54.1297L83.4643 53.9197L83.1522 53.701L82.8457 53.4736L82.5449 53.2376L82.2502 52.9934L81.9617 52.7406L81.679 52.48L81.4033 52.2114ZM77.8916 45.0538L78.7743 44.9804L78.7984 45.2403L78.8274 45.4944L78.8615 45.743L78.9002 45.9862L78.9437 46.2245L78.992 46.458L79.0451 46.6867L79.1031 46.9112L79.1659 47.1315L79.2335 47.3476L79.3063 47.5601L79.3836 47.7695L79.466 47.9756L79.5533 48.1785L79.6457 48.3788L79.7429 48.5769L79.8457 48.7724L79.9532 48.9663L80.0663 49.1582L80.1841 49.3483L80.3078 49.5373L80.4366 49.7254L80.5709 49.9122L80.7103 50.0984L80.8555 50.2842L81.0063 50.4694L81.1628 50.6546L81.3247 50.8401L81.4922 51.0253L81.6658 51.2114L81.8448 51.3979L82.0293 51.585L81.4033 52.2114L81.2101 52.0156L81.0224 51.8201L80.8398 51.6246L80.6626 51.4285L80.491 51.232L80.3245 51.0346L80.1632 50.8365L80.0073 50.6372L79.8569 50.4362L79.7117 50.2343L79.5716 50.0301L79.4373 49.8243L79.3082 49.6162L79.1845 49.4059L79.0664 49.1933L78.9533 48.9782L78.8461 48.7602L78.7443 48.5389L78.648 48.3151L78.5569 48.0877L78.4716 47.8571L78.3917 47.6229L78.3173 47.3849L78.2484 47.1434L78.185 46.8976L78.127 46.648L78.0745 46.3939L78.0272 46.1353L77.9853 45.8725L77.9489 45.6045L77.9177 45.3317L77.8916 45.0538ZM77.8813 44.8084H78.7669V44.8142V44.82L78.7672 44.8254V44.8312V44.837V44.8419V44.8473L78.7675 44.8535V44.8586V44.8634L78.7678 44.8686V44.8737L78.7682 44.8789V44.8844L78.7685 44.8889L78.7688 44.8947V44.8998L78.7691 44.9047L78.7694 44.9098L78.7698 44.915V44.9198L78.7701 44.9253L78.7704 44.9308L78.7707 44.9356L78.7711 44.9411L78.7717 44.9465L78.772 44.9523L78.7723 44.9575L78.7727 44.9626L78.7733 44.9688L78.7736 44.9746L78.7743 44.9804L77.8916 45.0538L77.8909 45.0457L77.8903 45.0383L77.8897 45.0306L77.889 45.0225L77.8884 45.0148L77.8881 45.0074L77.8874 44.9997L77.8871 44.9923L77.8864 44.9842L77.8861 44.9768L77.8855 44.9694L77.8852 44.9613L77.8848 44.9539L77.8845 44.9465L77.8842 44.9385L77.8839 44.9311L77.8835 44.924L77.8832 44.9159L77.8829 44.9085L77.8826 44.9008V44.8934L77.8823 44.8857L77.8819 44.8776V44.8699V44.8628L77.8816 44.8554V44.847V44.8399L77.8813 44.8319V44.8241V44.8164V44.8084ZM78.7669 43.2141V44.8084H77.8813V43.2141H78.7669ZM80.8346 40.2604V41.1461L80.728 41.149L80.6234 41.1571L80.5203 41.1703L80.4189 41.1883L80.319 41.2115L80.2215 41.2392L80.1255 41.2717L80.0318 41.3088L79.9403 41.3503L79.8515 41.396L79.7648 41.446L79.6808 41.5001L79.5996 41.5577L79.5214 41.6196L79.446 41.6846L79.3739 41.7532L79.3053 41.8254L79.2399 41.9007L79.1784 41.979L79.1208 42.0602L79.0667 42.1442L79.0168 42.2308L78.971 42.3197L78.9298 42.4112L78.8925 42.5049L78.8599 42.6009L78.8322 42.6985L78.8091 42.7983L78.791 42.8998L78.7778 43.0028L78.7698 43.1078L78.7669 43.2141H77.8813L77.8852 43.0628L77.8967 42.913L77.9154 42.7655L77.9415 42.6202L77.9747 42.4772L78.0146 42.3368L78.0613 42.1996L78.1144 42.0656L78.1737 41.9345L78.2391 41.8073L78.3102 41.6837L78.3872 41.5638L78.4696 41.4482L78.5572 41.3365L78.65 41.2295L78.7479 41.1271L78.8503 41.0292L78.9572 40.9365L79.0689 40.8488L79.1845 40.7664L79.3043 40.6894L79.428 40.6182L79.5552 40.5529L79.6859 40.4936L79.8202 40.4405L79.9577 40.3938L80.0978 40.3538L80.2405 40.3207L80.386 40.2946L80.5335 40.2759L80.6833 40.2643L80.8346 40.2604ZM82.4287 41.1461H80.8346V40.2604H82.4287V41.1461ZM82.7549 40.2785L82.657 41.159L82.6492 41.158L82.6418 41.1574L82.6341 41.1564L82.6267 41.1558L82.6196 41.1551L82.6122 41.1542L82.6051 41.1535L82.5977 41.1532L82.5913 41.1526L82.5842 41.1519L82.5768 41.1513L82.5703 41.1509L82.5636 41.1503L82.5565 41.15L82.5501 41.1497L82.5433 41.1493L82.5362 41.1487L82.5294 41.1484L82.5227 41.1481H82.5159L82.5092 41.1477L82.5018 41.1474L82.4947 41.1471H82.4882L82.4808 41.1468H82.4734L82.4663 41.1464H82.4592H82.4518L82.4441 41.1461H82.4367H82.4287V40.2604H82.439H82.4496L82.4599 40.2608H82.4699H82.4805L82.4908 40.2611L82.5008 40.2614H82.5108L82.5214 40.2617L82.5314 40.262L82.5414 40.2624L82.5517 40.263L82.5616 40.2633L82.572 40.2636L82.5823 40.2643L82.5919 40.2649L82.6019 40.2653L82.6125 40.2659L82.6222 40.2665L82.6325 40.2672L82.6428 40.2682L82.6525 40.2688L82.6628 40.2698L82.6731 40.2704L82.6834 40.2714L82.6934 40.2723L82.7033 40.2733L82.714 40.2743L82.724 40.2752L82.7343 40.2762L82.7446 40.2775L82.7549 40.2785ZM85.4976 41.0543L85.0223 41.8015L84.9601 41.7635L84.8973 41.7268L84.8336 41.6917L84.7688 41.6582L84.7031 41.626L84.6365 41.5954L84.5689 41.5661L84.5006 41.5384L84.431 41.5117L84.3608 41.4865L84.29 41.4624L84.2182 41.4395L84.1454 41.4176L84.0723 41.397L83.9979 41.3774L83.9232 41.3587L83.8478 41.3413L83.7715 41.3245L83.6949 41.3084L83.6173 41.2936L83.5393 41.2791L83.4611 41.2656L83.3822 41.2527L83.303 41.2405L83.2234 41.2289L83.1432 41.2176L83.0627 41.207L82.9822 41.197L82.9011 41.187L82.8199 41.1774L82.7384 41.168L82.657 41.159L82.7549 40.2785L82.8383 40.2878L82.9223 40.2975L83.0067 40.3075L83.0917 40.3178L83.1767 40.3287L83.2624 40.34L83.3484 40.3519L83.4347 40.3648L83.521 40.378L83.6079 40.3922L83.6945 40.4073L83.7818 40.4231L83.8691 40.4401L83.9564 40.4582L84.0436 40.4772L84.1309 40.4978L84.2182 40.5194L84.3054 40.5426L84.3927 40.567L84.48 40.5931L84.5669 40.6211L84.6535 40.6505L84.7399 40.6817L84.8262 40.7145L84.9118 40.7497L84.9972 40.7864L85.0822 40.8257L85.1665 40.8669L85.2503 40.91L85.3337 40.9558L85.4161 41.0041L85.4976 41.0543ZM87.1457 44.056L86.2705 44.1906L86.2653 44.1378L86.2614 44.0438L86.255 43.9513L86.2466 43.8599L86.2363 43.7697L86.2238 43.6811L86.2093 43.5935L86.1922 43.5072L86.1735 43.4225L86.1523 43.3391L86.1291 43.2573L86.1036 43.1764L86.0759 43.0972L86.0463 43.0196L86.0144 42.9429L85.9803 42.8679L85.9439 42.7945L85.9049 42.7223L85.8641 42.6515L85.8209 42.5819L85.7752 42.5139L85.7272 42.447L85.6766 42.3816L85.6235 42.3175L85.5678 42.2547L85.5095 42.1935L85.4486 42.1333L85.3849 42.0746L85.3182 42.0173L85.2487 41.9613L85.1762 41.9065L85.1008 41.8534L85.0223 41.8015L85.4976 41.0543L85.5993 41.1213L85.6979 41.1909L85.7932 41.2627L85.8853 41.3368L85.9739 41.4131L86.0592 41.492L86.1413 41.5729L86.2202 41.656L86.2959 41.741L86.368 41.8283L86.4366 41.9172L86.5023 42.008L86.5645 42.1007L86.6234 42.1951L86.6788 42.2914L86.7313 42.389L86.7802 42.4882L86.826 42.5887L86.8685 42.6904L86.9081 42.7935L86.9441 42.8979L86.9776 43.0032L87.0076 43.1098L87.0349 43.2173L87.0591 43.3259L87.0807 43.4354L87.099 43.5459L87.1148 43.657L87.1277 43.769L87.138 43.8815L87.1457 43.9951L87.1506 44.1092L87.1457 44.056ZM87.3634 44.9601L86.521 45.2335L86.5117 45.2045L86.5023 45.1752L86.4933 45.1453L86.484 45.1147L86.4749 45.0837L86.4656 45.0525L86.4566 45.0209L86.4476 44.9887L86.4386 44.9565L86.4299 44.924L86.4208 44.8908L86.4121 44.8576L86.4034 44.8245L86.3951 44.791L86.3867 44.7572L86.3783 44.7233L86.3703 44.6892L86.3622 44.6554L86.3542 44.6212L86.3465 44.5874L86.339 44.5533L86.3316 44.5195L86.3246 44.486L86.3175 44.4522L86.3107 44.4187L86.3043 44.3855L86.2981 44.3523L86.292 44.3195L86.2862 44.2869L86.2804 44.2544L86.2753 44.2225L86.2705 44.1906L87.1457 44.056L87.1496 44.0815L87.1541 44.1075L87.1586 44.1343L87.1634 44.1613L87.1686 44.189L87.1737 44.2174L87.1795 44.246L87.1853 44.275L87.1915 44.304L87.1976 44.334L87.204 44.3636L87.2108 44.3935L87.2175 44.4235L87.2246 44.4538L87.2317 44.484L87.2391 44.5143L87.2462 44.5443L87.2539 44.5745L87.2613 44.6045L87.2691 44.6341L87.2768 44.6638L87.2848 44.6927L87.2926 44.7217L87.3006 44.7504L87.3083 44.7784L87.3164 44.8061L87.3245 44.8335L87.3322 44.8599L87.3402 44.886L87.348 44.9114L87.3557 44.9362L87.3634 44.9601ZM94.2255 44.7974L95.1024 44.9208L95.0937 44.9668L94.9829 45.3369L94.8425 45.6863L94.6741 46.0135L94.4799 46.3182L94.2622 46.5997L94.0233 46.8574L93.765 47.0915L93.4897 47.3015L93.1995 47.4877L92.8965 47.65L92.5825 47.7888L92.2595 47.9041L91.9288 47.9959L91.5926 48.0642L91.2526 48.1096L90.9099 48.1318L90.5663 48.1305L90.224 48.106L89.8839 48.0584L89.5477 47.9872L89.2177 47.8919L88.895 47.773L88.582 47.6297L88.2799 47.4619L87.991 47.2693L87.7176 47.0519L87.4616 46.8097L87.2253 46.5427L87.0111 46.2509L86.8208 45.935L86.6569 45.5955L86.521 45.2335L87.3634 44.9601L87.4713 45.2477L87.5998 45.5137L87.7482 45.7598L87.9147 45.9865L88.0983 46.1939L88.2983 46.383L88.5127 46.5533L88.7407 46.7054L88.9813 46.839L89.2328 46.954L89.4936 47.0503L89.7625 47.1276L90.0375 47.1862L90.3171 47.2252L90.5992 47.2455L90.8829 47.2464L91.1656 47.2281L91.4458 47.1907L91.7221 47.1343L91.9923 47.0596L92.2547 46.9659L92.5081 46.8538L92.751 46.724L92.9815 46.5762L93.1986 46.4107L93.4005 46.2274L93.5866 46.0271L93.7554 45.809L93.9057 45.573L94.0368 45.3185L94.1466 45.0451L94.2345 44.7517L94.2255 44.7974ZM94.3102 43.5703L95.1948 43.6164L95.1929 43.6528L95.191 43.6898L95.189 43.7272L95.1874 43.7652L95.1855 43.8038L95.1839 43.8428L95.1819 43.8821L95.1803 43.922L95.1784 43.962L95.1765 44.0025L95.1745 44.0435L95.1726 44.0844L95.1704 44.1256L95.1681 44.1671L95.1658 44.2087L95.1636 44.2505L95.161 44.2927L95.1584 44.3346L95.1559 44.3768L95.153 44.419L95.1497 44.4612L95.1465 44.5034L95.1433 44.5456L95.1398 44.5877L95.1359 44.6299L95.132 44.6718L95.1275 44.7137L95.1233 44.7555L95.1185 44.7971L95.1134 44.8386L95.1082 44.8799L95.1024 44.9208L94.2255 44.7974L94.23 44.7636L94.2345 44.7288L94.2387 44.6937L94.2429 44.658L94.2468 44.6219L94.2506 44.5852L94.2542 44.5481L94.2574 44.5105L94.2606 44.4724L94.2638 44.4344L94.2667 44.3958L94.2693 44.3568L94.2722 44.3179L94.2748 44.2786L94.277 44.2389L94.2793 44.1997L94.2816 44.1597L94.2838 44.1201L94.2861 44.0802L94.288 44.0402L94.2899 44.0003L94.2919 43.9607L94.2938 43.9211L94.2954 43.8811L94.2973 43.8415L94.2989 43.8022L94.3009 43.7629L94.3028 43.724L94.3044 43.6853L94.3064 43.6467L94.3083 43.6083L94.3102 43.5703ZM94.4001 41.1184L95.2853 41.14L95.2834 41.217L95.2815 41.2946L95.2795 41.3716L95.2776 41.4489L95.2753 41.5262L95.2734 41.6038L95.2711 41.6811L95.2689 41.7584L95.2666 41.8357L95.2641 41.913L95.2618 41.9906L95.2592 42.0679L95.2567 42.1452L95.2541 42.2225L95.2515 42.3001L95.2486 42.3774L95.2457 42.455L95.2428 42.5323L95.2399 42.6096L95.237 42.6872L95.2338 42.7645L95.2306 42.8421L95.2274 42.9194L95.2241 42.9967L95.2209 43.0743L95.2174 43.1516L95.2138 43.2293L95.21 43.3066L95.2064 43.3842L95.2026 43.4615L95.1987 43.5388L95.1948 43.6164L94.3102 43.5703L94.3141 43.494L94.3179 43.4173L94.3218 43.341L94.3253 43.2647L94.3289 43.188L94.3324 43.1114L94.336 43.0351L94.3392 42.9584L94.3427 42.8817L94.346 42.8054L94.3489 42.7288L94.3521 42.6521L94.355 42.5755L94.3579 42.4988L94.3608 42.4222L94.3637 42.3458L94.3662 42.2692L94.3688 42.1925L94.3714 42.1159L94.374 42.0389L94.3766 41.9622L94.3788 41.8856L94.3814 41.8089L94.3836 41.7323L94.3859 41.6556L94.3878 41.579L94.3901 41.502L94.392 41.4254L94.3943 41.3487L94.3962 41.272L94.3981 41.1954L94.4001 41.1184ZM94.9858 39.2185L94.7536 38.3638L95.3127 38.7892L95.313 38.8626V38.9364L95.3133 39.0098V39.0836L95.313 39.157V39.2305L95.3127 39.3042L95.3124 39.3776L95.312 39.4514L95.3117 39.5248L95.3111 39.5983L95.3104 39.6717L95.3098 39.7454L95.3091 39.8189L95.3082 39.8923L95.3072 39.9657L95.3062 40.0392L95.3053 40.1126L95.3043 40.1864L95.303 40.2598L95.3021 40.3329L95.3008 40.4063L95.2995 40.4798L95.2982 40.5532L95.2966 40.6266L95.2953 40.7001L95.2937 40.7735L95.2921 40.8466L95.2905 40.92L95.2889 40.9935L95.2869 41.0666L95.2853 41.14L94.4001 41.1184L94.4017 41.0456L94.4033 40.9728L94.4049 40.9001L94.4065 40.8276L94.4081 40.7548L94.4097 40.682L94.411 40.6092L94.4126 40.5364L94.4139 40.4637L94.4152 40.3912L94.4165 40.3184L94.4178 40.2456L94.4187 40.1728L94.4197 40.1L94.4207 40.0276L94.4216 39.9548L94.4226 39.882L94.4236 39.8092L94.4242 39.7367L94.4249 39.664L94.4255 39.5915L94.4261 39.5187L94.4265 39.4462L94.4268 39.3735L94.4271 39.301L94.4274 39.2282V39.1557V39.0833V39.0105V38.938L94.4271 38.8655V38.7931L94.9858 39.2185ZM80.976 35.2751L81.6774 34.734L81.9768 35.1057L82.2879 35.4584L82.6093 35.7924L82.9413 36.1083L83.2833 36.4059L83.6346 36.6858L83.9953 36.9483L84.3647 37.193L84.7424 37.4211L85.1282 37.632L85.5214 37.8262L85.9217 38.004L86.3287 38.1654L86.7422 38.3109L87.1615 38.4401L87.5863 38.5538L88.0158 38.6517L88.4503 38.7341L88.8889 38.8015L89.331 38.8536L89.7767 38.891L90.2246 38.9132L90.6752 38.9209L91.1276 38.9145L91.581 38.8936L92.0357 38.8588L92.4904 38.8098L92.9451 38.7473L93.3995 38.6713L93.8526 38.5818L94.3041 38.4794L94.7536 38.3638L94.9858 39.2185L94.5124 39.3403L94.0365 39.4482L93.5583 39.5425L93.0788 39.6231L92.598 39.6891L92.1169 39.7406L91.6354 39.7776L91.1543 39.7999L90.6739 39.807L90.195 39.7986L89.7174 39.7747L89.2425 39.7351L88.77 39.6794L88.3005 39.6073L87.8349 39.5187L87.3734 39.4137L86.9164 39.2913L86.4646 39.1519L86.0186 38.995L85.5784 38.8208L85.1453 38.6282L84.7192 38.4179L84.3009 38.1889L83.891 37.9415L83.4901 37.6755L83.0981 37.3905L82.7165 37.0864L82.3452 36.7634L81.9852 36.4207L81.6365 36.0584L81.2999 35.6767L80.976 35.2751ZM78.3257 30.2727L79.1894 30.0776L79.2309 30.2531L79.2747 30.4248L79.3211 30.5926L79.3697 30.7565L79.4209 30.9172L79.4744 31.0747L79.5301 31.229L79.588 31.3807L79.6486 31.5298L79.7114 31.6766L79.7764 31.8213L79.8441 31.9639L79.9139 32.105L79.9857 32.2448L80.0605 32.3829L80.1371 32.5205L80.2163 32.6567L80.2975 32.7926L80.3812 32.9282L80.4675 33.0632L80.5557 33.1984L80.6465 33.3337L80.7396 33.4693L80.8346 33.6052L80.9322 33.7421L81.032 33.8796L81.1341 34.0184L81.2384 34.1582L81.345 34.2996L81.4535 34.4426L81.5643 34.5875L81.6774 34.734L80.976 35.2751L80.862 35.1266L80.7496 34.9798L80.6388 34.8342L80.5297 34.6896L80.4224 34.5456L80.3171 34.4023L80.2134 34.2593L80.1117 34.1166L80.0115 33.9736L79.9136 33.831L79.8173 33.6876L79.7233 33.5437L79.6312 33.3991L79.541 33.2532L79.4531 33.1066L79.3674 32.9585L79.2837 32.809L79.2026 32.6577L79.1234 32.5047L79.0467 32.3494L78.9723 32.1923L78.9005 32.0325L78.8309 31.8705L78.7643 31.7056L78.7002 31.5382L78.6384 31.3675L78.5794 31.1939L78.5231 31.0167L78.4696 30.8364L78.4188 30.6525L78.3708 30.4644L78.3257 30.2727ZM77.8565 22.221H78.7421L78.7417 22.4494L78.7414 22.6819L78.7408 22.9186L78.7401 23.1586L78.7395 23.4017L78.7388 23.6481V23.8967L78.7392 24.148L78.7401 24.4014L78.7417 24.6565L78.744 24.9129L78.7475 25.1705L78.7517 25.4288L78.7572 25.6878L78.7643 25.947L78.7723 26.206L78.782 26.4646L78.7936 26.7226L78.8068 26.9793L78.8216 27.235L78.8387 27.4888L78.858 27.7406L78.8793 27.9902L78.9031 28.2369L78.9292 28.4811L78.9578 28.7217L78.9894 28.9587L79.0235 29.1916L79.0606 29.4206L79.1005 29.6444L79.1433 29.8637L79.1894 30.0776L78.3257 30.2727L78.2758 30.0421L78.2297 29.8074L78.1872 29.5687L78.1482 29.3265L78.1122 29.0808L78.0793 28.8321L78.0491 28.5806L78.022 28.3265L77.9972 28.0704L77.9753 27.8121L77.9554 27.5519L77.938 27.2907L77.9225 27.0282L77.909 26.7648L77.8971 26.501L77.8874 26.2366L77.8787 25.9725L77.8719 25.7087L77.8662 25.4459L77.862 25.1837L77.8584 24.9225L77.8562 24.6633L77.8546 24.4056L77.8536 24.1502L77.8533 23.8974V23.6471L77.8539 23.3998L77.8546 23.156L77.8552 22.916L77.8558 22.68L77.8562 22.4481L77.8565 22.221ZM78.7421 14.6489V22.221H77.8565V14.6489H78.7421ZM77.8565 14.6489C77.8565 14.4041 78.0545 14.2057 78.2993 14.2057C78.5437 14.2057 78.7421 14.4041 78.7421 14.6489H77.8565Z" fill="#2D6241"/>
<path d="M86.0904 13.7283C86.0904 13.4838 86.2888 13.2854 86.5332 13.2854C86.7776 13.2854 86.976 13.4838 86.976 13.7283H86.0904ZM87.1506 27.5428L86.2856 27.7331L86.2344 27.4694L86.1896 27.1763L86.1507 26.8542L86.1168 26.5051L86.0872 26.1299L86.0621 25.7302L86.0405 25.3083L86.0228 24.8661L86.0086 24.4058L85.9974 23.9289L85.9893 23.438L85.9838 22.9353L85.9806 22.4225L85.98 21.9021L85.9809 21.3765L85.9842 20.8473L85.9887 20.3169L85.9945 19.7877L86.0012 19.2618L86.0093 18.7413L86.0177 18.2286L86.0267 17.7255L86.0357 17.2347L86.0447 16.758L86.0537 16.2981L86.0621 15.8565L86.0698 15.4362L86.0766 15.0391L86.0824 14.6674L86.0866 14.3235L86.0895 14.0098L86.0904 13.7283H86.976L86.975 14.0153L86.9722 14.3331L86.968 14.6797L86.9622 15.0536L86.9554 15.452L86.9477 15.8733L86.9393 16.3152L86.9303 16.7751L86.9213 17.2514L86.9119 17.7416L86.9032 18.2437L86.8945 18.7555L86.8868 19.2743L86.8801 19.7986L86.8743 20.3256L86.8697 20.8534L86.8668 21.38L86.8656 21.9024L86.8662 22.4193L86.8694 22.9279L86.8749 23.4258L86.8829 23.9111L86.8939 24.3817L86.9081 24.8348L86.9255 25.2683L86.9461 25.68L86.9709 26.0674L86.9989 26.4278L87.0311 26.7586L87.0675 27.0568L87.1074 27.3196L87.1506 27.5428ZM88.0593 29.0791L87.4333 29.7055L87.3786 29.6504L87.3254 29.5963L87.2736 29.5425L87.223 29.4891L87.1734 29.4356L87.1251 29.3825L87.0781 29.3293L87.0324 29.2759L86.9876 29.2224L86.9438 29.1683L86.9013 29.1138L86.8601 29.0588L86.8198 29.0027L86.7809 28.9464L86.7432 28.8887L86.7065 28.8304L86.6714 28.7712L86.6372 28.7109L86.6044 28.6497L86.5728 28.5873L86.5422 28.5235L86.5133 28.4588L86.4856 28.3927L86.4588 28.3254L86.4334 28.2565L86.4092 28.1866L86.3861 28.1151L86.3642 28.042L86.3429 27.9676L86.3229 27.8913L86.3039 27.8133L86.2856 27.7331L87.1506 27.5428L87.1657 27.6095L87.1815 27.6732L87.1976 27.7348L87.2143 27.794L87.2314 27.8507L87.2491 27.9054L87.2671 27.9579L87.2861 28.0088L87.3054 28.0578L87.3254 28.1055L87.3463 28.1518L87.3676 28.1966L87.3898 28.2407L87.413 28.2839L87.4372 28.3264L87.462 28.3683L87.488 28.4098L87.5154 28.4514L87.5441 28.4926L87.5737 28.5341L87.6049 28.5757L87.6378 28.6179L87.6719 28.6604L87.708 28.7032L87.7457 28.747L87.785 28.7915L87.8258 28.8369L87.869 28.8829L87.9138 28.9303L87.9605 28.9786L88.0091 29.0282L88.0593 29.0791ZM94.0062 28.5129L94.7833 28.9377L94.7836 28.9374L94.6351 29.1899L94.4741 29.4279L94.3009 29.6507L94.116 29.8585L93.9212 30.0511L93.7164 30.2282L93.5026 30.3899L93.281 30.5364L93.0517 30.6675L92.8163 30.7831L92.5754 30.8836L92.3294 30.9693L92.0792 31.0398L91.8258 31.0955L91.5694 31.1364L91.3112 31.1632L91.0516 31.1751L90.7914 31.1732L90.5309 31.1571L90.271 31.1268L90.0127 31.0827L89.7558 31.0247L89.5017 30.9532L89.2505 30.8678L89.0032 30.7693L88.7604 30.6569L88.5224 30.5313L88.2905 30.3925L88.0648 30.2404L87.8461 30.0749L87.6355 29.8968L87.4333 29.7055L88.0593 29.0791L88.2261 29.2366L88.3997 29.3834L88.5797 29.5197L88.7655 29.6449L88.9568 29.7593L89.1529 29.863L89.3532 29.9554L89.5571 30.0369L89.7641 30.1071L89.9735 30.166L90.1847 30.2137L90.3969 30.2498L90.6098 30.2746L90.8223 30.2878L91.0345 30.2897L91.2451 30.2797L91.4541 30.2585L91.6606 30.2253L91.8641 30.1805L92.0637 30.1242L92.2592 30.0562L92.4505 29.9767L92.6363 29.8852L92.8166 29.7818L92.9912 29.6668L93.159 29.5396L93.32 29.4005L93.4736 29.2488L93.6195 29.0845L93.7573 28.9074L93.8864 28.7171L94.0062 28.5132V28.5129ZM94.0346 28.462L94.8036 28.9016L94.8016 28.9048L94.8007 28.9064L94.802 28.9045L94.8007 28.9068L94.7987 28.9103L94.7971 28.9126L94.7974 28.9122L94.7968 28.9135L94.7965 28.9142L94.7952 28.9164L94.7929 28.9203L94.7913 28.9235L94.7907 28.9248L94.7913 28.9232L94.7904 28.9254L94.7884 28.9287V28.929L94.7881 28.9293L94.7875 28.9306L94.7868 28.9319V28.9312L94.7858 28.9335L94.7839 28.9367L94.7842 28.9361L94.7833 28.9377L94.0062 28.5129L94.0069 28.5116L94.0088 28.5084L94.0085 28.5087L94.0088 28.508L94.0107 28.5048L94.0117 28.5032L94.0123 28.5019L94.0136 28.4993L94.0149 28.4971L94.0172 28.4929L94.0181 28.4916L94.0178 28.4919L94.0201 28.4881L94.0217 28.4848L94.023 28.4826L94.0233 28.4823L94.0243 28.4803L94.0252 28.4787L94.0268 28.4758L94.0272 28.4755V28.4752L94.03 28.47L94.0297 28.4707V28.4704L94.0326 28.4655L94.0333 28.4646L94.0329 28.4649L94.0342 28.4626L94.0346 28.462ZM95.1813 28.2407L94.8036 28.9016L94.0346 28.462L94.4123 27.8011L95.2396 28.0207L95.1813 28.2407ZM95.2396 23.0187V28.0207H94.354V23.0187H95.2396ZM94.354 13.7099H95.2396V13.9177V14.1415V14.3805V14.633V14.8987V15.1763V15.4646V15.7625V16.0688V16.3828V16.7032V17.0292V17.359V17.6923V18.0279V18.3645V18.701V19.0363V19.3697V19.6998V20.0257V20.3458V20.6599V20.9665V21.2644V21.5526V21.8299V22.0956V22.3485V22.5874V22.811V23.0187H94.354V22.811V22.5874V22.3485V22.0956V21.8299V21.5526V21.2644V20.9665V20.6599V20.3458V20.0257V19.6998V19.3697V19.0363V18.701V18.3645V18.0279V17.6923V17.359V17.0292V16.7032V16.3828V16.0688V15.7625V15.4646V15.1763V14.8987V14.633V14.3805V14.1415V13.9177V13.7099ZM94.354 13.7099C94.354 13.4655 94.5524 13.2671 94.7968 13.2671C95.0415 13.2671 95.2396 13.4655 95.2396 13.7099H94.354Z" fill="#2D6241"/>
<path d="M116.714 37.2748L116.586 36.3398L116.798 36.3105L117.009 36.2802L117.218 36.2496L117.427 36.2177L117.634 36.1855L117.84 36.152L118.045 36.1176L118.249 36.0818L118.452 36.0448L118.654 36.0065L118.855 35.9665L119.055 35.9253L119.254 35.8825L119.452 35.8377L119.649 35.791L119.846 35.7427L120.041 35.6921L120.236 35.6396L120.43 35.5849L120.624 35.5279L120.817 35.4686L121.009 35.4068L121.201 35.3424L121.392 35.2751L121.582 35.2052L121.773 35.1324L121.962 35.057L122.152 34.9781L122.341 34.8963L122.53 34.8113L122.718 34.7227L122.906 34.6309L123.327 35.4757L123.125 35.5739L122.924 35.6686L122.722 35.7594L122.52 35.8467L122.318 35.9308L122.116 36.0116L121.913 36.0889L121.71 36.1633L121.507 36.2348L121.304 36.3031L121.1 36.3688L120.896 36.4316L120.692 36.4918L120.487 36.5495L120.282 36.6049L120.076 36.6577L119.87 36.7086L119.664 36.7572L119.457 36.8039L119.25 36.8487L119.042 36.8915L118.833 36.9327L118.624 36.9727L118.415 37.0107L118.205 37.0474L117.994 37.0831L117.783 37.1173L117.57 37.1505L117.358 37.183L117.144 37.2142L116.929 37.2448L116.714 37.2748ZM113.133 45.0534L112.437 45.6911L112.127 45.3291L111.851 44.9606L111.609 44.587L111.403 44.2089L111.23 43.8276L111.091 43.444L110.985 43.0591L110.911 42.6746L110.87 42.2913L110.859 41.911L110.879 41.5345L110.929 41.1638L111.007 40.7995L111.113 40.443L111.245 40.0951L111.402 39.757L111.584 39.4294L111.788 39.1135L112.016 38.8101L112.264 38.5196L112.533 38.2429L112.822 37.9811L113.128 37.7347L113.453 37.5044L113.794 37.2912L114.152 37.0954L114.524 36.9186L114.911 36.7608L115.312 36.6232L115.725 36.5066L116.15 36.412L116.586 36.3398L116.714 37.2748L116.329 37.3382L115.956 37.4216L115.593 37.5241L115.243 37.6445L114.905 37.782L114.581 37.936L114.271 38.1057L113.976 38.2899L113.697 38.4877L113.434 38.6986L113.189 38.9218L112.961 39.1557L112.752 39.4001L112.562 39.6536L112.392 39.9157L112.243 40.1853L112.114 40.462L112.007 40.7444L111.921 41.0324L111.859 41.3251L111.819 41.6224L111.803 41.9232L111.811 42.2272L111.844 42.5345L111.903 42.8446L111.99 43.157L112.104 43.4714L112.247 43.787L112.42 44.1039L112.624 44.4212L112.862 44.7378L113.133 45.0534ZM116.772 46.6866L116.853 47.6267L116.683 47.6386L116.516 47.6451L116.35 47.646L116.187 47.6419L116.025 47.6322L115.866 47.6171L115.708 47.5971L115.553 47.5716L115.4 47.5414L115.249 47.5063L115.1 47.466L114.953 47.4212L114.808 47.3716L114.665 47.3175L114.525 47.2589L114.387 47.1958L114.251 47.1288L114.116 47.0573L113.985 46.9823L113.855 46.903L113.727 46.8203L113.601 46.7336L113.477 46.6438L113.355 46.5504L113.235 46.4534L113.116 46.3536L112.999 46.2505L112.884 46.1442L112.77 46.0351L112.658 45.9233L112.547 45.8083L112.437 45.6911L113.133 45.0534L113.231 45.1587L113.33 45.2611L113.43 45.3606L113.53 45.4566L113.631 45.5494L113.732 45.6389L113.834 45.7249L113.937 45.8077L114.041 45.8872L114.145 45.9629L114.251 46.0354L114.357 46.104L114.464 46.1694L114.572 46.2309L114.681 46.2888L114.791 46.3433L114.902 46.3938L115.015 46.4409L115.128 46.484L115.243 46.5233L115.36 46.5591L115.479 46.5909L115.598 46.619L115.72 46.6431L115.844 46.6631L115.969 46.6792L116.097 46.6911L116.227 46.6992L116.36 46.7027L116.495 46.7017L116.632 46.6966L116.772 46.6866ZM120.526 43.188L121.462 43.3052L121.461 43.3107L121.421 43.5828L121.378 43.844L121.33 44.0949L121.279 44.3358L121.223 44.5667L121.161 44.7886L121.094 45.0015L121.02 45.2054L120.94 45.4012L120.853 45.5883L120.758 45.7674L120.655 45.9381L120.544 46.1004L120.424 46.2537L120.295 46.3987L120.158 46.5343L120.012 46.6605L119.858 46.7777L119.695 46.8853L119.525 46.9842L119.347 47.0744L119.161 47.1562L118.968 47.2299L118.768 47.2966L118.559 47.3568L118.342 47.4103L118.117 47.4583L117.883 47.5011L117.64 47.5388L117.388 47.572L117.125 47.6013L116.853 47.6267L116.772 46.6866L117.029 46.6624L117.274 46.6354L117.506 46.6045L117.727 46.5703L117.935 46.5327L118.131 46.4908L118.316 46.445L118.489 46.3951L118.651 46.3413L118.803 46.2834L118.944 46.2212L119.075 46.1545L119.198 46.0837L119.312 46.008L119.418 45.9275L119.517 45.8412L119.611 45.7491L119.699 45.6499L119.782 45.5429L119.862 45.4276L119.937 45.303L120.008 45.1687L120.076 45.0234L120.139 44.8676L120.2 44.6998L120.256 44.5204L120.309 44.3291L120.359 44.1252L120.406 43.9088L120.449 43.6798L120.489 43.4376L120.526 43.1825L120.526 43.188ZM121.649 41.8108L121.462 43.3052L120.526 43.188L120.712 41.6936L121.649 41.8108ZM123.835 38.9373V39.881L123.73 39.8832L123.626 39.8903L123.524 39.9022L123.424 39.9183L123.325 39.9389L123.228 39.9641L123.133 39.993L123.04 40.0265L122.948 40.0639L122.859 40.1051L122.772 40.1502L122.687 40.1988L122.605 40.2513L122.526 40.3074L122.449 40.3666L122.374 40.4294L122.303 40.4955L122.234 40.5647L122.169 40.6369L122.107 40.7119L122.048 40.7898L121.992 40.8707L121.94 40.9541L121.892 41.0401L121.847 41.1283L121.806 41.2192L121.77 41.3126L121.737 41.4079L121.708 41.5055L121.684 41.605L121.664 41.7068L121.649 41.8108L120.712 41.6936L120.734 41.547L120.762 41.4027L120.797 41.261L120.837 41.1219L120.884 40.986L120.937 40.8526L120.995 40.7228L121.059 40.5963L121.128 40.4729L121.203 40.3538L121.282 40.2381L121.367 40.1264L121.456 40.0188L121.549 39.9154L121.647 39.8165L121.75 39.7219L121.856 39.6323L121.966 39.5473L122.08 39.4671L122.198 39.3921L122.32 39.3222L122.444 39.2574L122.572 39.1985L122.703 39.145L122.836 39.0974L122.972 39.0558L123.111 39.0201L123.252 38.9904L123.395 38.9673L123.54 38.9508L123.686 38.9405L123.835 38.9373ZM126.854 39.881H123.835V38.9373H126.854V39.881ZM130 42.0839H129.057L129.054 41.9705L129.045 41.8588L129.031 41.749L129.012 41.6411L128.987 41.5348L128.957 41.4304L128.923 41.3283L128.883 41.2285L128.839 41.1312L128.79 41.0362L128.737 40.9438L128.68 40.8546L128.618 40.7679L128.553 40.6845L128.483 40.6043L128.41 40.5277L128.333 40.4542L128.253 40.385L128.169 40.3193L128.083 40.2578L127.994 40.2001L127.901 40.147L127.806 40.0984L127.709 40.0542L127.609 40.0146L127.507 39.9802L127.403 39.9502L127.297 39.9257L127.188 39.9064L127.079 39.8922L126.967 39.8835L126.854 39.881V38.9373L127.015 38.9412L127.174 38.9534L127.331 38.9734L127.486 39.0014L127.639 39.0365L127.788 39.0793L127.934 39.1289L128.077 39.1853L128.217 39.2484L128.352 39.3183L128.484 39.394L128.612 39.4761L128.735 39.5637L128.854 39.6571L128.968 39.7563L129.077 39.8603L129.181 39.9695L129.28 40.0835L129.373 40.2024L129.461 40.3257L129.543 40.4533L129.619 40.585L129.689 40.7209L129.752 40.8601L129.809 41.003L129.858 41.1496L129.901 41.2987L129.936 41.451L129.964 41.606L129.984 41.7631L129.996 41.9226L130 42.0839ZM129.057 43.2163V42.0839H130V43.2163H129.057ZM122.288 54.8675L121.845 54.034L121.846 54.0336L122.182 53.8475L122.519 53.6449L122.854 53.4265L123.189 53.193L123.521 52.945L123.85 52.6835L124.176 52.4085L124.496 52.1209L124.812 51.8217L125.122 51.5112L125.425 51.1901L125.721 50.859L126.009 50.5186L126.288 50.1701L126.558 49.8132L126.817 49.4493L127.066 49.0793L127.303 48.7031L127.528 48.3217L127.74 47.9359L127.939 47.5465L128.124 47.1539L128.293 46.7591L128.448 46.3626L128.586 45.9652L128.707 45.5677L128.812 45.1706L128.899 44.7745L128.967 44.3806L129.016 43.9893L129.047 43.6009L129.057 43.2163H130L129.989 43.6498L129.955 44.0846L129.9 44.5204L129.825 44.9561L129.729 45.3916L129.615 45.8257L129.483 46.2586L129.333 46.6889L129.166 47.1166L128.984 47.541L128.786 47.9617L128.574 48.3778L128.348 48.7891L128.109 49.1946L127.857 49.5939L127.593 49.9865L127.318 50.372L127.033 50.7495L126.738 51.1183L126.433 51.4783L126.12 51.8284L125.799 52.1682L125.471 52.4974L125.136 52.8149L124.795 53.1206L124.448 53.4133L124.097 53.6926L123.741 53.958L123.382 54.2088L123.019 54.4446L122.654 54.6646L122.287 54.8678L122.288 54.8675ZM122.222 54.9013L121.8 54.0572H121.8L121.801 54.0565L121.803 54.0559L121.805 54.0549L121.807 54.0539L121.808 54.0533L121.812 54.0514L121.813 54.0507L121.814 54.0504L121.815 54.0497L121.818 54.0481L121.82 54.0475V54.0472L121.821 54.0468L121.823 54.0456L121.824 54.0452L121.826 54.0443L121.827 54.0433L121.829 54.0423L121.831 54.0414L121.833 54.0407L121.833 54.0401L121.835 54.0391L121.837 54.0382L121.838 54.0378L121.84 54.0369L121.839 54.0372L121.841 54.0362L121.845 54.0343L121.845 54.034L122.288 54.8675L122.285 54.8691L122.283 54.8701L122.279 54.872L122.277 54.873L122.275 54.8742L122.273 54.8752L122.271 54.8762L122.269 54.8775L122.267 54.8781L122.266 54.8791L122.264 54.88L122.26 54.8816L122.259 54.8826L122.257 54.8833L122.255 54.8845L122.254 54.8852L122.251 54.8865L122.248 54.8881L122.246 54.8891L122.244 54.8903L122.241 54.892L122.238 54.8932L122.235 54.8945L122.236 54.8942L122.233 54.8955L122.23 54.8971L122.228 54.8981L122.227 54.899L122.225 54.9L122.222 54.9013ZM103.716 47.7182L104.599 47.3871L104.852 48.0058L105.137 48.6032L105.452 49.1788L105.797 49.7318L106.17 50.2619L106.57 50.7688L106.995 51.2523L107.445 51.7112L107.917 52.145L108.41 52.5541L108.924 52.9367L109.456 53.2932L110.005 53.6224L110.57 53.9245L111.149 54.1979L111.741 54.4433L112.345 54.6591L112.958 54.8456L113.58 55.0015L114.209 55.1271L114.844 55.2211L115.483 55.2836L116.125 55.3139L116.769 55.3116L117.412 55.2759L118.054 55.2066L118.693 55.1032L119.328 54.9654L119.958 54.7921L120.58 54.5834L121.195 54.3386L121.8 54.0572L122.222 54.9013L121.569 55.2053L120.905 55.4694L120.233 55.6949L119.554 55.8817L118.869 56.0305L118.18 56.1419L117.489 56.2166L116.796 56.2546L116.105 56.2575L115.415 56.225L114.729 56.1577L114.048 56.0569L113.373 55.9223L112.706 55.7548L112.048 55.5551L111.401 55.3235L110.767 55.0607L110.146 54.7673L109.54 54.4436L108.95 54.09L108.379 53.7074L107.827 53.2958L107.296 52.8562L106.788 52.3888L106.304 51.8941L105.845 51.373L105.414 50.8258L105.011 50.2532L104.638 49.6554L104.297 49.0332L103.989 48.3871L103.716 47.7182ZM104.938 34.5655L105.738 35.0657L105.526 35.4158L105.326 35.7704L105.137 36.1292L104.96 36.4922L104.794 36.8587L104.64 37.2287L104.497 37.6023L104.366 37.9791L104.246 38.3589L104.137 38.7412L104.04 39.1257L103.954 39.5128L103.879 39.9019L103.816 40.2929L103.764 40.6855L103.724 41.0794L103.694 41.4746L103.676 41.8704L103.669 42.2672L103.673 42.6643L103.689 43.0617L103.716 43.4595L103.754 43.8566L103.803 44.2537L103.864 44.6498L103.935 45.0453L104.018 45.4396L104.112 45.8325L104.217 46.2241L104.333 46.6138L104.461 47.0016L104.599 47.3871L103.716 47.7182L103.569 47.3085L103.433 46.8959L103.309 46.4814L103.198 46.0647L103.098 45.6463L103.009 45.2263L102.933 44.8051L102.869 44.3828L102.816 43.96L102.776 43.5361L102.747 43.1123L102.73 42.6881L102.726 42.2643L102.733 41.8408L102.752 41.4179L102.784 40.996L102.827 40.575L102.883 40.1557L102.95 39.7376L103.03 39.3218L103.122 38.908L103.226 38.4964L103.342 38.0874L103.471 37.6812L103.611 37.2783L103.764 36.879L103.929 36.4828L104.106 36.0905L104.296 35.7024L104.497 35.3189L104.711 34.9398L104.938 34.5655ZM113.819 28.2333L113.993 29.1609L113.634 29.2324L113.284 29.3107L112.943 29.3957L112.611 29.4875L112.287 29.5863L111.971 29.6917L111.664 29.8037L111.364 29.9232L111.071 30.0492L110.786 30.1825L110.507 30.3226L110.235 30.4701L109.969 30.6247L109.709 30.7867L109.455 30.9558L109.206 31.1326L108.962 31.3171L108.723 31.5094L108.488 31.7091L108.257 31.9172L108.031 32.1329L107.808 32.3571L107.589 32.5893L107.373 32.8299L107.16 33.0792L106.95 33.3365L106.743 33.6029L106.538 33.8776L106.335 34.1613L106.134 34.4538L105.935 34.7552L105.738 35.0657L104.938 34.5655L105.143 34.2419L105.351 33.9269L105.562 33.6199L105.776 33.3211L105.992 33.0309L106.212 32.7484L106.436 32.4743L106.663 32.2083L106.895 31.9503L107.131 31.7004L107.371 31.4589L107.616 31.2254L107.866 30.9996L108.121 30.7822L108.382 30.5728L108.648 30.3716L108.92 30.1783L109.199 29.9931L109.483 29.816L109.774 29.6472L110.071 29.4862L110.374 29.3332L110.685 29.1883L111.003 29.0514L111.328 28.9222L111.66 28.8008L112 28.6871L112.347 28.5815L112.703 28.4829L113.067 28.3924L113.439 28.309L113.819 28.2333ZM113.913 28.2172L114.059 29.1496L114.06 29.1493L114.057 29.1496L114.054 29.1503L114.052 29.1506H114.052L114.05 29.1509L114.046 29.1516L114.044 29.1519L114.042 29.1522L114.04 29.1525L114.037 29.1528L114.036 29.1532L114.033 29.1535L114.032 29.1538L114.03 29.1541L114.028 29.1545L114.026 29.1551L114.023 29.1554L114.022 29.1557L114.02 29.1561H114.018L114.017 29.1564L114.013 29.157L114.012 29.1574L114.01 29.1577L114.008 29.158L114.006 29.1583L114.003 29.159L114.001 29.1593L114 29.1596L113.998 29.1599L113.996 29.1602L113.993 29.1609L113.819 28.2333L113.822 28.233L113.825 28.2324L113.828 28.2317L113.831 28.2311L113.835 28.2304L113.837 28.2301L113.84 28.2295L113.843 28.2291L113.846 28.2285L113.85 28.2279L113.851 28.2275L113.854 28.2269L113.858 28.2262L113.86 28.2259L113.864 28.2253L113.867 28.2246L113.869 28.2243L113.872 28.224L113.874 28.2234L113.878 28.2227L113.881 28.2224L113.884 28.2217L113.887 28.2214L113.889 28.2211L113.892 28.2205L113.895 28.2201L113.897 28.2198L113.9 28.2192L113.904 28.2185L113.908 28.2182L113.91 28.2179L113.913 28.2172H113.913ZM119.216 27.2468L119.483 28.1519L119.325 28.1976L119.165 28.2417L119.002 28.2842L118.838 28.3258L118.671 28.3657L118.504 28.4047L118.334 28.4424L118.163 28.4791L117.991 28.5145L117.818 28.549L117.644 28.5825L117.469 28.6153L117.294 28.6472L117.118 28.6781L116.942 28.7084L116.765 28.7377L116.589 28.7667L116.413 28.7947L116.237 28.8224L116.062 28.8495L115.887 28.8762L115.714 28.9023L115.541 28.928L115.369 28.9535L115.199 28.9786L115.03 29.0034L114.863 29.0282L114.698 29.0527L114.535 29.0768L114.374 29.101L114.215 29.1255L114.059 29.1496L113.913 28.2172L114.072 28.1928L114.232 28.168L114.395 28.1435L114.559 28.119L114.725 28.0945L114.893 28.0697L115.061 28.0449L115.231 28.0201L115.402 27.9947L115.574 27.9689L115.746 27.9432L115.919 27.9167L116.092 27.89L116.265 27.8626L116.438 27.8349L116.611 27.8066L116.784 27.7779L116.956 27.7483L117.128 27.718L117.298 27.6871L117.468 27.6555L117.636 27.623L117.804 27.5898L117.969 27.5554L118.133 27.5206L118.295 27.4845L118.454 27.4475L118.612 27.4095L118.767 27.3705L118.92 27.3303L119.069 27.289L119.216 27.2468ZM119.911 26.8365L120.579 27.5035L120.579 27.5038L120.546 27.5357L120.515 27.5667L120.485 27.5963L120.455 27.6249L120.426 27.6526L120.397 27.6794L120.369 27.7058L120.34 27.7316L120.311 27.7564L120.281 27.7808L120.251 27.8047L120.22 27.8282L120.189 27.8507L120.157 27.8726L120.124 27.8939L120.091 27.9142L120.057 27.9338L120.023 27.9525L119.988 27.9702L119.953 27.987L119.917 28.0031L119.882 28.0182L119.846 28.0327L119.809 28.0465L119.772 28.0601L119.734 28.0733L119.695 28.0865L119.656 28.0994L119.615 28.1122L119.573 28.1251L119.529 28.1383L119.483 28.1519L119.216 27.2468L119.258 27.2343L119.298 27.2224L119.334 27.2111L119.368 27.2005L119.4 27.1902L119.429 27.1805L119.455 27.1712L119.479 27.1625L119.502 27.1541L119.521 27.146L119.539 27.1383L119.556 27.1309L119.57 27.1241L119.584 27.117L119.597 27.1103L119.609 27.1032L119.621 27.0958L119.633 27.0881L119.645 27.0797L119.658 27.0703L119.671 27.06L119.686 27.0484L119.702 27.0352L119.719 27.0204L119.738 27.004L119.757 26.986L119.779 26.966L119.802 26.9438L119.827 26.9199L119.853 26.8942L119.881 26.8662L119.911 26.8365H119.911ZM120.144 26.6259L120.741 27.3563L120.736 27.3609L120.73 27.3657L120.724 27.3702L120.719 27.375L120.713 27.3795L120.708 27.3837L120.703 27.3882L120.698 27.3927L120.693 27.3972L120.687 27.4014L120.682 27.4063L120.677 27.4104L120.673 27.4146L120.667 27.4191L120.663 27.4233L120.658 27.4275L120.653 27.4324L120.648 27.4365L120.644 27.441L120.638 27.4456L120.634 27.4501L120.629 27.4546L120.624 27.4591L120.619 27.4636L120.614 27.4684L120.609 27.4733L120.604 27.4781L120.599 27.4829L120.594 27.4877L120.589 27.4929L120.584 27.4981L120.579 27.5035L119.911 26.8365L119.918 26.8294L119.925 26.8227L119.932 26.8156L119.939 26.8085L119.946 26.8017L119.953 26.7947L119.961 26.7879L119.968 26.7814L119.975 26.7744L119.982 26.7679L119.989 26.7612L119.996 26.7544L120.003 26.748L120.01 26.7412L120.018 26.7344L120.024 26.7283L120.032 26.7219L120.039 26.7151L120.046 26.709L120.054 26.7022L120.061 26.6958L120.068 26.6897L120.076 26.6832L120.083 26.6768L120.09 26.6703L120.098 26.6642L120.105 26.6578L120.113 26.6513L120.121 26.6452L120.128 26.6388L120.136 26.6327L120.143 26.6262L120.144 26.6259ZM120.249 23.9727L120.751 23.1736L120.825 23.231L120.917 23.3295L120.994 23.4348L121.06 23.5447L121.117 23.659L121.166 23.7775L121.209 23.9002L121.247 24.0271L121.28 24.1576L121.308 24.2915L121.332 24.4291L121.351 24.5692L121.367 24.7118L121.379 24.8568L121.387 25.0027L121.391 25.1498L121.392 25.2977L121.388 25.4452L121.381 25.5924L121.37 25.7386L121.355 25.8832L121.336 26.0256L121.312 26.1657L121.284 26.3029L121.252 26.4368L121.215 26.5673L121.172 26.6938L121.123 26.8166L121.068 26.9351L121.004 27.0488L120.93 27.1579L120.843 27.2613L120.741 27.3563L120.144 26.6259L120.156 26.6143L120.176 26.5905L120.2 26.5534L120.228 26.5038L120.257 26.442L120.286 26.3695L120.314 26.2877L120.34 26.1969L120.363 26.099L120.384 25.995L120.402 25.8851L120.418 25.7711L120.43 25.6536L120.439 25.5331L120.446 25.411L120.448 25.2877L120.448 25.1647L120.445 25.042L120.438 24.9209L120.428 24.8023L120.415 24.6867L120.4 24.5756L120.381 24.4693L120.36 24.3688L120.337 24.2758L120.312 24.1907L120.285 24.1147L120.258 24.0497L120.231 23.9962L120.207 23.9556L120.188 23.9289L120.176 23.9157L120.249 23.9727ZM119.09 23.5978L119.198 22.6603L119.259 22.6673L119.317 22.6741L119.373 22.6812L119.428 22.6883L119.481 22.6954L119.534 22.7028L119.584 22.7105L119.634 22.7185L119.683 22.7272L119.732 22.7363L119.779 22.7462L119.827 22.7566L119.873 22.7678L119.92 22.7801L119.966 22.7929L120.012 22.8071L120.058 22.8219L120.104 22.838L120.149 22.8551L120.194 22.8731L120.239 22.8925L120.284 22.9124L120.329 22.9337L120.374 22.9559L120.419 22.9794L120.464 23.0036L120.51 23.029L120.557 23.0554L120.604 23.0831L120.652 23.1121L120.701 23.1424L120.751 23.1736L120.249 23.9727L120.205 23.945L120.162 23.9189L120.122 23.8947L120.084 23.8722L120.047 23.8513L120.012 23.8319L119.979 23.8142L119.948 23.7981L119.918 23.783L119.889 23.7695L119.861 23.7569L119.834 23.7453L119.807 23.7347L119.781 23.7247L119.755 23.7154L119.728 23.707L119.701 23.6986L119.674 23.6909L119.645 23.6835L119.615 23.6761L119.583 23.6693L119.55 23.6622L119.515 23.6558L119.478 23.6493L119.438 23.6429L119.396 23.6364L119.352 23.63L119.305 23.6239L119.256 23.6174L119.203 23.611L119.148 23.6046L119.09 23.5978ZM112.666 23.3379L112.666 22.3942H112.678L112.872 22.3991L113.069 22.4036L113.266 22.4074L113.465 22.4113L113.666 22.4148L113.867 22.4184L114.07 22.4216L114.273 22.4248L114.478 22.428L114.683 22.4316L114.889 22.4351L115.096 22.439L115.303 22.4432L115.51 22.4474L115.718 22.4522L115.926 22.4577L116.134 22.4635L116.342 22.4699L116.55 22.477L116.758 22.485L116.965 22.4937L117.172 22.5031L117.379 22.5137L117.584 22.525L117.789 22.5375L117.994 22.5511L118.197 22.5659L118.4 22.582L118.601 22.5994L118.801 22.6184L119 22.6387L119.198 22.6603L119.09 23.5978L118.901 23.5769L118.709 23.5575L118.517 23.5392L118.322 23.5224L118.126 23.507L117.928 23.4925L117.729 23.4793L117.53 23.467L117.328 23.4561L117.126 23.4458L116.924 23.4364L116.72 23.4277L116.516 23.42L116.311 23.4133L116.106 23.4068L115.901 23.401L115.695 23.3959L115.489 23.391L115.283 23.3865L115.078 23.3823L114.873 23.3788L114.667 23.3752L114.462 23.3717L114.258 23.3685L114.055 23.3649L113.851 23.3617L113.649 23.3585L113.448 23.355L113.248 23.3511L113.048 23.3469L112.85 23.3424L112.653 23.3376L112.666 23.3379ZM105.709 23.1427L105.768 22.201L105.982 22.2142L106.196 22.2271L106.411 22.239L106.625 22.2506L106.84 22.2615L107.055 22.2722L107.27 22.2821L107.485 22.2918L107.701 22.3008L107.917 22.3095L108.132 22.3176L108.349 22.3253L108.565 22.3324L108.781 22.3392L108.997 22.3456L109.214 22.3514L109.43 22.3569L109.646 22.362L109.862 22.3665L110.078 22.3707L110.295 22.3746L110.511 22.3781L110.727 22.3813L110.943 22.3839L111.159 22.3865L111.375 22.3884L111.591 22.3904L111.806 22.3916L112.021 22.3926L112.236 22.3936L112.451 22.3939L112.666 22.3942L112.666 23.3379L112.45 23.3376L112.233 23.3372L112.017 23.3363L111.801 23.3353L111.584 23.3337L111.367 23.3321L111.15 23.3302L110.932 23.3276L110.714 23.3247L110.497 23.3218L110.279 23.3182L110.061 23.3144L109.843 23.3099L109.625 23.3054L109.407 23.3002L109.189 23.2947L108.97 23.2886L108.752 23.2825L108.534 23.2757L108.316 23.2683L108.098 23.2606L107.88 23.2525L107.662 23.2438L107.445 23.2345L107.227 23.2248L107.01 23.2149L106.792 23.2042L106.575 23.193L106.358 23.1814L106.142 23.1691L105.925 23.1562L105.709 23.1427ZM102.761 20.0022H103.705L103.707 20.1114L103.715 20.219L103.728 20.3249L103.745 20.429L103.768 20.5314L103.795 20.6322L103.827 20.7307L103.863 20.8274L103.904 20.9217L103.949 21.0138L103.998 21.1034L104.051 21.1907L104.108 21.275L104.168 21.3568L104.233 21.4354L104.3 21.5111L104.372 21.5836L104.446 21.6528L104.524 21.7182L104.605 21.7804L104.688 21.8387L104.775 21.8934L104.864 21.944L104.955 21.9903L105.049 22.0329L105.146 22.0705L105.245 22.1044L105.345 22.1333L105.448 22.1575L105.553 22.1768L105.66 22.1916L105.768 22.201L105.709 23.1427L105.555 23.1295L105.403 23.1086L105.254 23.0809L105.107 23.0461L104.962 23.0049L104.821 22.9566L104.683 22.9024L104.548 22.8419L104.417 22.7752L104.29 22.7028L104.166 22.6248L104.047 22.5414L103.932 22.4528L103.82 22.3591L103.714 22.2606L103.612 22.1569L103.516 22.049L103.424 21.9366L103.337 21.82L103.256 21.6992L103.181 21.5749L103.11 21.4467L103.046 21.315L102.988 21.1797L102.936 21.0415L102.891 20.9001L102.852 20.7562L102.819 20.6096L102.794 20.4608L102.776 20.3098L102.765 20.1568L102.761 20.0022ZM102.761 18.1149H103.705V18.1742V18.2331V18.292V18.351V18.4099V18.4688V18.5278V18.5867V18.646V18.7049V18.7639V18.8228V18.8817V18.9407V18.9996V19.0586V19.1178V19.1768V19.2357V19.2946V19.3536V19.4125V19.4714V19.5304V19.5893V19.6486V19.7075V19.7665V19.8254V19.8843V19.9433V20.0022H102.761V19.9433V19.8843V19.8254V19.7665V19.7075V19.6486V19.5893V19.5304V19.4714V19.4125V19.3536V19.2946V19.2357V19.1768V19.1178V19.0586V18.9996V18.9407V18.8817V18.8228V18.7639V18.7049V18.646V18.5867V18.5278V18.4688V18.4099V18.351V18.292V18.2331V18.1742V18.1149ZM103.705 16.4166V18.1149H102.761V16.4166H103.705ZM102.711 14.1142H103.655L103.655 14.1367L103.656 14.1692L103.656 14.2105L103.657 14.2591L103.658 14.3145L103.659 14.3763L103.661 14.444L103.663 14.5164L103.664 14.5934L103.666 14.6746L103.668 14.7593L103.67 14.8465L103.673 14.9367L103.675 15.0285L103.677 15.1216L103.679 15.216L103.682 15.3103L103.684 15.4044L103.687 15.4978L103.689 15.5902L103.691 15.6807L103.693 15.7686L103.695 15.8543L103.697 15.9361L103.698 16.0144L103.7 16.0884L103.701 16.1574L103.702 16.2214L103.703 16.2794L103.704 16.3316L103.704 16.3773L103.705 16.4166H102.761L102.761 16.3838L102.76 16.3422L102.76 16.2933L102.759 16.2372L102.758 16.1751L102.757 16.1071L102.755 16.034L102.753 15.9567L102.751 15.8752L102.749 15.7905L102.747 15.7026L102.745 15.6124L102.743 15.5206L102.741 15.4272L102.738 15.3332L102.736 15.2388L102.734 15.1451L102.732 15.0517L102.729 14.9599L102.727 14.8697L102.725 14.7821L102.723 14.6971L102.721 14.6156L102.719 14.538L102.718 14.4649L102.716 14.3969L102.715 14.3341L102.714 14.2771L102.713 14.2262L102.712 14.1824L102.712 14.1451L102.711 14.1142ZM103.82 13.3019L103.853 14.2449L103.833 14.2459L103.814 14.2478L103.796 14.2501L103.778 14.2526L103.761 14.2562L103.744 14.2597L103.728 14.2639L103.712 14.2687L103.697 14.2736L103.682 14.2791L103.668 14.2845L103.656 14.29L103.643 14.2958L103.632 14.3016L103.622 14.3074L103.612 14.3129L103.604 14.318L103.597 14.3229L103.592 14.327L103.587 14.3306L103.584 14.3328L103.583 14.3341L103.584 14.3335L103.586 14.3309L103.591 14.3254L103.597 14.3167L103.605 14.3039L103.616 14.2848L103.628 14.2588L103.64 14.2233L103.65 14.1753L103.655 14.1142H102.711L102.718 14.033L102.733 13.9641L102.753 13.9064L102.775 13.8568L102.799 13.8137L102.824 13.7753L102.85 13.7409L102.876 13.7093L102.903 13.6797L102.931 13.6517L102.96 13.6253L102.99 13.6001L103.02 13.576L103.052 13.5528L103.085 13.5306L103.118 13.5087L103.154 13.488L103.19 13.4681L103.227 13.4491L103.266 13.4307L103.306 13.4133L103.346 13.3972L103.389 13.3818L103.432 13.3676L103.477 13.3544L103.522 13.3425L103.569 13.3322L103.617 13.3228L103.667 13.3151L103.717 13.309L103.768 13.3048L103.82 13.3019ZM105.907 13.2697V14.2133H105.844H105.78L105.716 14.2137L105.651 14.214L105.585 14.2143L105.519 14.2146L105.453 14.215L105.386 14.2156L105.319 14.2159L105.251 14.2166L105.184 14.2172L105.117 14.2182L105.049 14.2188L104.982 14.2198L104.914 14.2208L104.847 14.2217L104.78 14.2227L104.714 14.2237L104.648 14.2249L104.582 14.2262L104.517 14.2272L104.452 14.2288L104.389 14.2301L104.325 14.2314L104.263 14.233L104.201 14.2346L104.141 14.2362L104.081 14.2378L104.022 14.2394L103.964 14.2414L103.908 14.243L103.853 14.2449L103.82 13.3019L103.877 13.3L103.935 13.298L103.994 13.2964L104.054 13.2945L104.115 13.2929L104.177 13.2913L104.239 13.2897L104.303 13.288L104.368 13.2868L104.433 13.2851L104.498 13.2839L104.564 13.2826L104.631 13.2813L104.698 13.2803L104.765 13.279L104.833 13.2781L104.901 13.2771L104.969 13.2761L105.037 13.2752L105.106 13.2745L105.174 13.2736L105.242 13.2729L105.311 13.2723L105.378 13.2719L105.446 13.2713L105.513 13.271L105.58 13.2707L105.647 13.2703L105.713 13.27L105.778 13.2697H105.843H105.907ZM111.946 14.2133H105.907V13.2697H111.946V14.2133ZM118.764 13.4813L118.664 14.4198L118.461 14.3989L118.257 14.3795L118.052 14.3615L117.846 14.3448L117.64 14.3293L117.432 14.3151L117.224 14.3019L117.015 14.2903L116.805 14.2794L116.595 14.2697L116.384 14.261L116.173 14.253L115.962 14.2462L115.75 14.2401L115.537 14.2346L115.325 14.2301L115.112 14.2259L114.9 14.2227L114.687 14.2198L114.474 14.2179L114.262 14.2159L114.049 14.2146L113.837 14.2137L113.625 14.213L113.413 14.2127H113.202H112.992H112.781L112.571 14.213H112.362L112.154 14.2133H111.946V13.2697H112.153L112.361 13.2694H112.57L112.78 13.269H112.991H113.202H113.415L113.627 13.2694L113.841 13.27L114.054 13.271L114.269 13.2723L114.483 13.2742L114.698 13.2765L114.913 13.279L115.129 13.2826L115.344 13.2864L115.559 13.2913L115.775 13.2967L115.991 13.3029L116.206 13.3099L116.421 13.318L116.637 13.327L116.851 13.337L117.066 13.3479L117.28 13.3602L117.494 13.3734L117.707 13.3879L117.92 13.404L118.132 13.4211L118.343 13.4397L118.554 13.4597L118.764 13.4813ZM122.636 14.4742L122.26 15.3396L122.147 15.2913L122.035 15.2446L121.924 15.1995L121.814 15.1557L121.704 15.1135L121.594 15.0726L121.485 15.0333L121.376 14.9953L121.267 14.9586L121.159 14.9235L121.05 14.8894L120.942 14.8565L120.834 14.825L120.725 14.7944L120.616 14.7654L120.507 14.737L120.398 14.7103L120.288 14.6842L120.177 14.6594L120.067 14.6356L119.955 14.6127L119.843 14.5908L119.729 14.5699L119.615 14.5499L119.5 14.5306L119.384 14.5126L119.268 14.4952L119.149 14.4784L119.03 14.4626L118.909 14.4475L118.787 14.4333L118.664 14.4198L118.764 13.4813L118.894 13.4958L119.023 13.5106L119.15 13.5267L119.277 13.5434L119.403 13.5612L119.527 13.5795L119.651 13.5992L119.774 13.6198L119.897 13.641L120.019 13.6636L120.14 13.6874L120.26 13.7119L120.38 13.7377L120.5 13.7647L120.619 13.7927L120.738 13.822L120.856 13.8526L120.975 13.8845L121.092 13.9174L121.211 13.9518L121.329 13.9876L121.446 14.0246L121.564 14.0629L121.682 14.1029L121.8 14.1441L121.918 14.1866L122.037 14.2307L122.156 14.2765L122.275 14.3235L122.395 14.3725L122.515 14.4227L122.636 14.4742ZM123.327 35.4757L122.906 34.6309L122.914 34.6271L123.695 34.2216L124.421 33.7761L125.092 33.2937L125.708 32.7768L126.271 32.228L126.78 31.6505L127.237 31.0466L127.641 30.4189L127.993 29.7702L128.294 29.1032L128.543 28.4205L128.741 27.7248L128.888 27.0185L128.984 26.3051L129.03 25.5866L129.025 24.8658L128.97 24.1463L128.866 23.43L128.711 22.7202L128.507 22.0197L128.253 21.3311L127.951 20.6573L127.599 20.0013L127.199 19.3655L126.75 18.7526L126.253 18.1658L125.708 17.6073L125.115 17.0804L124.473 16.5873L123.783 16.1309L123.046 15.7142L122.26 15.3396L122.636 14.4742L123.48 14.8768L124.276 15.3258L125.021 15.8189L125.715 16.3529L126.359 16.9242L126.951 17.5307L127.491 18.1684L127.979 18.8347L128.415 19.5265L128.797 20.2409L129.127 20.9745L129.403 21.7243L129.625 22.4876L129.794 23.2609L129.908 24.0419L129.968 24.8268L129.973 25.6133L129.923 26.3979L129.818 27.1779L129.657 27.9502L129.44 28.7116L129.168 29.4595L128.839 30.1899L128.453 30.9001L128.01 31.5874L127.511 32.2479L126.954 32.8789L126.341 33.4769L125.67 34.039L124.943 34.5623L124.159 35.0435L123.319 35.4796L123.327 35.4757Z" fill="#2D6241"/>
</g>
<defs>
<clipPath id="clip0_145_1211">
<rect width="130" height="66" fill="white"/>
</clipPath>
</defs>
</svg>
