<svg width="48" height="25" viewBox="0 0 48 25" fill="none" xmlns="http://www.w3.org/2000/svg">
<path d="M22.7076 9.16605V12.2993H24.6308C25.0781 12.2993 25.4806 12.165 25.749 11.8517C26.0621 11.5384 26.1963 11.1803 26.1963 10.7774C26.1963 10.3746 26.0621 10.0165 25.749 9.70319C25.4359 9.38986 25.0781 9.21082 24.6308 9.21082H22.7076V9.16605ZM22.7076 13.3736V16.9992H21.5447V8.0918H24.5861C25.3465 8.0918 26.0174 8.36037 26.5541 8.85273C27.0908 9.3451 27.3591 10.0165 27.3591 10.7327C27.3591 11.4936 27.0908 12.1203 26.5541 12.6126C26.0174 13.105 25.3465 13.3736 24.5861 13.3736H22.7076ZM28.5668 15.1192C28.5668 15.4326 28.7009 15.6564 28.9246 15.8802C29.1482 16.104 29.4613 16.1935 29.8191 16.1935C30.3111 16.1935 30.7137 16.0144 31.1162 15.6564C31.474 15.2983 31.6977 14.8954 31.6977 14.4031C31.3399 14.1345 30.8478 14.0002 30.2217 14.0002C29.7744 14.0002 29.3719 14.1345 29.0588 14.3583C28.7457 14.5821 28.5668 14.7612 28.5668 15.1192ZM30.0427 10.6432C30.8926 10.6432 31.5635 10.867 32.0554 11.3146C32.5474 11.7622 32.7711 12.3888 32.7711 13.1945V16.9544H31.6529V16.104H31.6082C31.1162 16.8201 30.49 17.1335 29.7297 17.1335C29.0588 17.1335 28.4773 16.9544 28.03 16.5516C27.5828 16.1487 27.3591 15.6564 27.3591 15.0745C27.3591 14.4478 27.5828 13.9555 28.0748 13.5526C28.5668 13.1945 29.1929 12.9707 29.998 12.9707C30.6689 12.9707 31.2504 13.105 31.6977 13.3288V13.0602C31.6977 12.6574 31.5187 12.3441 31.2056 12.0307C30.8925 11.7622 30.49 11.6279 30.0875 11.6279C29.4613 11.6279 28.9246 11.8965 28.5668 12.4336L27.5381 11.8069C28.1642 11.046 28.9693 10.6432 30.0427 10.6432ZM39.0776 10.867L35.231 19.6401H34.0681L35.4994 16.5516L32.9947 10.8222H34.2471L36.0808 15.2088H36.1256L37.9146 10.8222L39.0776 10.867Z" fill="#8F9194"/>
<path d="M18.1006 12.5676C18.1006 12.2095 18.0558 11.8514 18.0111 11.5381H13.1807V13.5076H15.9537C15.8195 14.1342 15.4617 14.7161 14.925 15.0742V16.3722H16.5799C17.5191 15.4323 18.1006 14.1342 18.1006 12.5676Z" fill="#8F9194"/>
<path d="M13.1808 17.5807C14.5673 17.5807 15.7302 17.1331 16.58 16.3274L14.9252 15.0294C14.4779 15.3427 13.8517 15.5217 13.1808 15.5217C11.839 15.5217 10.7208 14.6265 10.3183 13.418H8.61865V14.716C9.46846 16.5065 11.2128 17.5807 13.1808 17.5807Z" fill="#8F9194"/>
<path d="M10.2734 13.4179C10.0498 12.7913 10.0498 12.0751 10.2734 11.4484V10.1504H8.57381C8.21599 10.8666 8.03711 11.6723 8.03711 12.4332C8.03711 13.2389 8.21599 14.0446 8.57381 14.716L10.2734 13.4179Z" fill="#8F9194"/>
<path d="M13.1808 9.34513C13.9412 9.34513 14.6121 9.61369 15.1488 10.1061L16.6247 8.62895C15.7302 7.82326 14.5673 7.28613 13.1808 7.28613C11.2576 7.28613 9.46846 8.36038 8.61865 10.1061L10.3183 11.4041C10.6761 10.2851 11.839 9.34513 13.1808 9.34513Z" fill="#8F9194"/>
<path d="M12.5544 1.55664H35.1414C41.4031 1.55664 46.4572 6.61461 46.4572 12.8811C46.4572 19.1476 41.4031 24.2056 35.1414 24.2056H12.5544C6.29266 24.2056 1.23853 19.1476 1.23853 12.8811C1.23853 6.61461 6.29266 1.55664 12.5544 1.55664Z" stroke="#8F9194" stroke-width="1.1749" stroke-miterlimit="10"/>
</svg>
