<svg width="19" height="23" viewBox="0 0 19 23" fill="none" xmlns="http://www.w3.org/2000/svg">
<path d="M1.54786 19.6525L1.54789 19.6508C1.58042 17.5617 2.43311 15.5693 3.92191 14.1035C5.4107 12.6377 7.41619 11.8161 9.50547 11.8161C11.5947 11.8161 13.6002 12.6377 15.089 14.1035C16.5778 15.5693 17.4305 17.5617 17.463 19.6508L17.4631 19.6525C17.4632 19.6606 17.461 19.6685 17.4567 19.6754C17.4524 19.6822 17.4463 19.6876 17.4391 19.691C14.9504 20.832 12.2443 21.4209 9.50648 21.4172H9.50547C6.67468 21.4172 3.98711 20.7996 1.57214 19.6911C1.56478 19.6877 1.55856 19.6823 1.55425 19.6754C1.54993 19.6685 1.54771 19.6606 1.54786 19.6525ZM5.50535 4.75012C5.50535 3.68922 5.92679 2.67177 6.67696 1.92161C7.42713 1.17144 8.44457 0.75 9.50547 0.75C10.5664 0.75 11.5838 1.17144 12.334 1.92161C13.0841 2.67177 13.5056 3.68922 13.5056 4.75012C13.5056 5.81101 13.0841 6.82846 12.334 7.57862C11.5838 8.32879 10.5664 8.75023 9.50547 8.75023C8.44457 8.75023 7.42713 8.32879 6.67696 7.57862C5.92679 6.82846 5.50535 5.81101 5.50535 4.75012Z" stroke="#69EBD0" stroke-width="1.5"/>
</svg>
