<svg width="49" height="50" viewBox="0 0 49 50" fill="none" xmlns="http://www.w3.org/2000/svg">
<rect opacity="0.2" x="0.5" y="0.5" width="48" height="49" rx="24" stroke="black"/>
<path d="M25.4801 21.2449C24.7523 21.2449 24.0408 21.4651 23.4356 21.8777C22.8305 22.2904 22.3588 22.8768 22.0803 23.563C21.8017 24.2491 21.7289 25.0042 21.8708 25.7326C22.0128 26.461 22.3633 27.1301 22.878 27.6553C23.3926 28.1804 24.0484 28.5381 24.7622 28.6829C25.4761 28.8278 26.216 28.7535 26.8884 28.4693C27.5608 28.185 28.1356 27.7037 28.5399 27.0862C28.9443 26.4687 29.1601 25.7427 29.1601 25C29.1601 24.0041 28.7724 23.049 28.0823 22.3447C27.3922 21.6405 26.4561 21.2449 25.4801 21.2449ZM25.4801 27.7755C24.9422 27.7755 24.4163 27.6127 23.969 27.3078C23.5217 27.0028 23.1731 26.5693 22.9672 26.0621C22.7613 25.555 22.7074 24.9969 22.8124 24.4585C22.9174 23.9201 23.1764 23.4256 23.5568 23.0374C23.9372 22.6493 24.4219 22.3849 24.9495 22.2778C25.4771 22.1707 26.024 22.2257 26.521 22.4358C27.0181 22.6458 27.4429 23.0016 27.7417 23.458C28.0406 23.9144 28.2001 24.4511 28.2001 25C28.198 25.7354 27.9108 26.4402 27.4011 26.9602C26.8915 27.4802 26.2009 27.7734 25.4801 27.7755ZM29.0001 17H21.9601C20.8144 17 19.7156 17.4644 18.9054 18.2911C18.0953 19.1178 17.6401 20.239 17.6401 21.4082V28.5918C17.6401 29.761 18.0953 30.8822 18.9054 31.7089C19.7156 32.5356 20.8144 33 21.9601 33H29.0001C30.1459 33 31.2447 32.5356 32.0548 31.7089C32.865 30.8822 33.3201 29.761 33.3201 28.5918V21.4082C33.3201 20.239 32.865 19.1178 32.0548 18.2911C31.2447 17.4644 30.1459 17 29.0001 17ZM32.3601 28.5918C32.3601 29.5012 32.0061 30.3732 31.376 31.0162C30.7459 31.6592 29.8913 32.0204 29.0001 32.0204H21.9601C21.069 32.0204 20.2144 31.6592 19.5843 31.0162C18.9541 30.3732 18.6001 29.5012 18.6001 28.5918V21.4082C18.6001 20.4988 18.9541 19.6268 19.5843 18.9838C20.2144 18.3408 21.069 17.9796 21.9601 17.9796H29.0001C29.8913 17.9796 30.7459 18.3408 31.376 18.9838C32.0061 19.6268 32.3601 20.4988 32.3601 21.4082V28.5918ZM30.4401 20.7551C30.4401 20.9166 30.3932 21.0744 30.3053 21.2086C30.2174 21.3429 30.0925 21.4475 29.9463 21.5093C29.8001 21.5711 29.6392 21.5872 29.4841 21.5557C29.3289 21.5242 29.1863 21.4465 29.0745 21.3323C28.9626 21.2182 28.8864 21.0727 28.8555 20.9144C28.8246 20.756 28.8405 20.5919 28.901 20.4427C28.9616 20.2935 29.0641 20.1661 29.1957 20.0764C29.3272 19.9867 29.4819 19.9388 29.6401 19.9388C29.8523 19.9388 30.0558 20.0248 30.2058 20.1779C30.3559 20.331 30.4401 20.5386 30.4401 20.7551Z" fill="black"/>
</svg>
