<svg width="45" height="28" viewBox="0 0 45 28" fill="none" xmlns="http://www.w3.org/2000/svg">
<path d="M28.5337 3.58643H16.7258V24.7582H28.5337V3.58643Z" fill="#8F9194"/>
<path d="M17.5309 14.1496C17.5309 12.0906 17.9782 10.0763 18.8727 8.24114C19.7673 6.40595 21.0644 4.79456 22.6745 3.54126C20.7065 1.97463 18.2913 0.989904 15.7866 0.721339C13.2819 0.452775 10.7325 0.90038 8.45144 2.0194C6.17037 3.13842 4.24712 4.83933 2.90532 6.98784C1.56352 9.13636 0.8479 11.5982 0.8479 14.1496C0.8479 16.7009 1.56352 19.1628 2.90532 21.3113C4.24712 23.4598 6.17037 25.1607 8.45144 26.2797C10.7325 27.3987 13.2819 27.8463 15.7866 27.5778C18.2913 27.3092 20.7065 26.3245 22.6745 24.7578C21.0644 23.5045 19.7673 21.8932 18.8727 20.058C17.9782 18.2228 17.5309 16.2086 17.5309 14.1496Z" fill="#636366"/>
<path d="M44.4565 14.1496C44.4565 16.6562 43.7409 19.1628 42.3991 21.3113C41.0573 23.4598 39.134 25.1607 36.853 26.2797C34.5719 27.3987 32.0225 27.8463 29.5178 27.5778C27.0131 27.3092 24.5979 26.3245 22.6299 24.7578C24.24 23.5045 25.5371 21.8932 26.4317 20.058C27.3262 18.2228 27.7735 16.2086 27.7735 14.1496C27.7735 12.0906 27.3262 10.0763 26.4317 8.24114C25.5371 6.40595 24.24 4.79456 22.6299 3.54126C24.5979 1.97463 27.0131 0.989904 29.5178 0.721339C32.0225 0.452775 34.5719 0.90038 36.853 2.0194C39.134 3.13842 41.0573 4.83933 42.3991 6.98784C43.7409 9.13636 44.4565 11.643 44.4565 14.1496Z" fill="#C1C2C4"/>
</svg>
