<svg width="40" height="28" viewBox="0 0 40 28" fill="none" xmlns="http://www.w3.org/2000/svg">
<path d="M2.12685 27.3985H1.54541V20.6844H2.12685V27.3985ZM6.37589 20.6844C6.86788 20.6844 7.40461 20.7739 7.8966 20.9082C8.29914 21.0425 8.70168 21.2663 9.01477 21.5796C9.32786 21.893 9.59621 22.251 9.73039 22.6539C10.0882 23.5491 10.0882 24.5338 9.73039 25.4291C9.55148 25.8319 9.32786 26.19 9.01477 26.5033C8.70168 26.8166 8.29914 27.0404 7.8966 27.1747C7.40461 27.3538 6.91261 27.3985 6.37589 27.3985H3.91592V20.6844H6.37589ZM4.5421 21.2663V26.8614H6.4206C6.86787 26.8614 7.31515 26.8166 7.71769 26.6824C8.0755 26.5481 8.38858 26.369 8.65694 26.1005C8.9253 25.8319 9.10422 25.5633 9.2384 25.2052C9.50676 24.4443 9.50676 23.6386 9.2384 22.8777C9.10422 22.5644 8.9253 22.251 8.65694 21.9825C8.38858 21.7139 8.0755 21.5349 7.71769 21.4006C7.31515 21.2663 6.86787 21.1768 6.4206 21.2215L4.5421 21.2663ZM16.7972 20.6397C17.0656 20.6397 17.3787 20.6844 17.647 20.7292C17.9154 20.7739 18.139 20.8635 18.4074 20.9977C18.631 21.132 18.8546 21.2663 19.0335 21.4453C19.2124 21.6244 19.3914 21.8034 19.5255 22.0272L19.0335 22.3406C18.8994 22.1615 18.7652 21.9825 18.631 21.8482C18.4521 21.7139 18.3179 21.5796 18.0943 21.4901C17.9154 21.4006 17.6917 21.3111 17.4681 21.2663C17.2445 21.2215 17.0208 21.1768 16.7972 21.1768C16.4394 21.1768 16.0368 21.2215 15.679 21.4006C15.3212 21.5349 15.0529 21.7139 14.7845 21.9825C14.5161 22.251 14.3372 22.5644 14.2031 22.8777C13.9347 23.6386 13.9347 24.4443 14.2031 25.2052C14.3372 25.5633 14.5609 25.8319 14.7845 26.1005C15.0529 26.369 15.3659 26.5481 15.679 26.6824C16.0368 26.8166 16.3947 26.9062 16.7972 26.9062C17.0208 26.9062 17.2445 26.8614 17.4681 26.8166C17.6917 26.7719 17.8706 26.6824 18.0943 26.5928C18.2732 26.5033 18.4521 26.369 18.631 26.2348C18.8099 26.1005 18.9441 25.9214 19.0335 25.7424L19.5255 26.1005C19.3914 26.3243 19.2124 26.5033 19.0335 26.6824C18.8546 26.8614 18.631 26.9957 18.4074 27.13C18.1837 27.2642 17.9154 27.3538 17.647 27.3985C16.9314 27.5776 16.171 27.488 15.4554 27.2195C15.0529 27.0404 14.6951 26.8166 14.382 26.5033C14.0689 26.19 13.8452 25.8319 13.6663 25.4291C13.3085 24.5338 13.3085 23.5491 13.6663 22.6539C13.8452 22.251 14.0689 21.893 14.382 21.5796C14.6951 21.2663 15.0529 21.0425 15.4554 20.8635C15.8579 20.6844 16.3052 20.5949 16.7972 20.6397ZM21.2699 23.6834C21.3593 23.5491 21.4488 23.4148 21.583 23.2805C21.7171 23.191 21.8513 23.1015 21.9855 23.012C22.1197 22.9225 22.2539 22.8777 22.4328 22.8777C22.567 22.8329 22.7459 22.8329 22.88 22.8329C23.1484 22.8329 23.4167 22.8777 23.6404 22.9672C23.864 23.0567 24.0877 23.1463 24.2218 23.3253C24.4007 23.5043 24.5349 23.6834 24.6244 23.9072C24.7138 24.131 24.7585 24.3996 24.7585 24.6681V27.4433H24.2218V24.8024C24.2218 24.5786 24.1771 24.3996 24.1324 24.1758C24.0877 23.9967 23.9982 23.8624 23.864 23.7281C23.7298 23.5939 23.5956 23.5043 23.4167 23.4596C23.2378 23.3701 23.0142 23.3701 22.7906 23.3701C22.5669 23.3701 22.388 23.4148 22.2091 23.4596C22.0302 23.5491 21.8513 23.6386 21.7171 23.7729C21.583 23.9072 21.4488 24.0862 21.404 24.2653C21.3146 24.4443 21.2699 24.6681 21.2699 24.8919V27.4433H20.7331V20.5501H21.2699V23.6834ZM28.0236 22.8329C28.292 22.8329 28.605 22.8777 28.8734 23.012C29.1418 23.1015 29.3654 23.2805 29.5443 23.5043C29.7232 23.7281 29.9021 23.952 29.9916 24.2205C30.1257 24.5338 30.1705 24.8472 30.1705 25.1605C30.1705 25.2052 30.1705 25.25 30.1705 25.2948C30.1705 25.3395 30.1705 25.3843 30.1705 25.3843H26.4134C26.4134 25.6081 26.5029 25.8767 26.5924 26.1005C26.6818 26.2795 26.816 26.4586 26.9502 26.6376C27.0843 26.7719 27.308 26.9062 27.4869 26.9509C27.7105 27.0404 27.9341 27.0852 28.113 27.0404C28.4261 27.0404 28.6945 26.9957 28.9629 26.8614C29.2312 26.7271 29.4549 26.5928 29.6338 26.369L29.9469 26.7271C29.8127 26.8614 29.6785 26.9957 29.4996 27.0852C29.3654 27.1747 29.1865 27.2642 29.0523 27.309C28.9181 27.3538 28.7392 27.3985 28.5603 27.4433C28.3814 27.488 28.2472 27.488 28.0683 27.488C27.7552 27.488 27.4422 27.4433 27.1738 27.309C26.9054 27.2195 26.6818 27.0404 26.4582 26.8166C26.2345 26.5928 26.1004 26.369 26.0109 26.1005C25.8767 25.7871 25.832 25.4738 25.832 25.1605C25.832 24.8472 25.8767 24.5338 26.0109 24.2205C26.1004 23.952 26.2793 23.6834 26.4582 23.5043C26.6371 23.2805 26.9054 23.1463 27.1738 23.012C27.3974 22.8777 27.7105 22.8329 28.0236 22.8329ZM28.0236 23.3253C27.8 23.3253 27.5763 23.3701 27.3974 23.4596C27.2185 23.5491 27.0396 23.6386 26.9054 23.7729C26.7713 23.9072 26.6371 24.0862 26.5476 24.2653C26.4582 24.4443 26.4134 24.6681 26.3687 24.8919H29.589C29.589 24.6681 29.4996 24.4443 29.4101 24.2653C29.3207 24.0862 29.2312 23.9072 29.0523 23.7729C28.9181 23.6386 28.7392 23.5043 28.5603 23.4596C28.3814 23.4148 28.2025 23.3253 28.0236 23.3253ZM33.2566 22.8329C33.5697 22.8329 33.8828 22.8777 34.1959 23.012C34.4642 23.1463 34.7326 23.3253 34.9115 23.5491L34.5537 23.9072C34.3748 23.7281 34.1959 23.5939 33.9723 23.5043C33.7486 23.4148 33.4802 23.3701 33.2566 23.3701C33.033 23.3701 32.8093 23.4148 32.5857 23.5043C32.3621 23.5939 32.1832 23.7281 32.049 23.8624C31.8701 24.0415 31.7806 24.2205 31.6912 24.4443C31.5123 24.8919 31.5123 25.4291 31.6912 25.8767C31.7806 26.1005 31.9148 26.2795 32.049 26.4586C32.2279 26.6376 32.4068 26.7719 32.5857 26.8614C32.8093 26.9509 33.033 26.9957 33.2566 26.9957C33.525 26.9957 33.7486 26.9509 34.017 26.8614C34.2406 26.7719 34.4195 26.6376 34.5984 26.4586L34.9562 26.8166C34.7773 27.0404 34.509 27.2195 34.2406 27.3538C33.6592 27.5776 32.9882 27.5776 32.3621 27.3538C32.0937 27.2195 31.8254 27.0852 31.6465 26.8614C31.4228 26.6376 31.2887 26.4138 31.1545 26.1452C30.9308 25.5633 30.9308 24.8919 31.1545 24.31C31.2439 24.0415 31.4228 23.7729 31.6465 23.5491C31.8701 23.3253 32.0937 23.191 32.3621 23.0567C32.6304 22.8777 32.9435 22.8329 33.2566 22.8329ZM36.5664 24.8024H37.282L39.1605 22.8777H39.8314L37.6846 25.0262L39.8762 27.3985H39.1605L37.2373 25.2948H36.5217V27.3985H35.985V20.5054H36.5217L36.5664 24.8024Z" fill="#8F9194"/>
<path d="M11.6985 1.52686H6.77856V10.3895H11.6985V1.52686Z" fill="#8F9194"/>
<path d="M7.09199 5.9585C7.09199 5.10805 7.27092 4.25759 7.67346 3.49666C8.03128 2.73573 8.568 2.06432 9.2389 1.52719C8.38909 0.85578 7.40509 0.45293 6.37638 0.363409C5.34766 0.229127 4.27423 0.452936 3.33497 0.900543C2.39571 1.34815 1.59061 2.06432 1.05389 2.95954C0.517172 3.85475 0.204102 4.88424 0.204102 5.9585C0.204102 7.03276 0.517172 8.06226 1.05389 8.95747C1.63534 9.85269 2.39571 10.5689 3.33497 11.0165C4.27423 11.4641 5.34766 11.6431 6.37638 11.5536C7.40509 11.4193 8.43382 11.0165 9.2389 10.3898C8.568 9.85268 8.03128 9.18127 7.67346 8.42034C7.31565 7.65941 7.09199 6.80895 7.09199 5.9585Z" fill="#636366"/>
<path d="M18.3182 5.9585C18.3182 7.03276 18.0051 8.06226 17.4684 8.95747C16.9317 9.85269 16.1266 10.5689 15.1874 11.0165C14.2481 11.4641 13.1747 11.6431 12.146 11.5536C11.1173 11.4193 10.0885 11.0165 9.28345 10.3898C9.95435 9.85268 10.4911 9.18127 10.8489 8.42034C11.2067 7.65941 11.4303 6.80895 11.4303 5.9585C11.4303 5.10805 11.2514 4.25759 10.8489 3.49666C10.4911 2.73573 9.95435 2.06432 9.28345 1.52719C10.0885 0.85578 11.1173 0.45293 12.146 0.363409C13.1747 0.229127 14.2481 0.452936 15.1874 0.900543C16.1266 1.34815 16.9317 2.06432 17.4684 2.95954C18.0499 3.85475 18.3182 4.929 18.3182 5.9585Z" fill="#C1C2C4"/>
</svg>
