<svg width="51" height="14" viewBox="0 0 51 14" fill="none" xmlns="http://www.w3.org/2000/svg">
<path fill-rule="evenodd" clip-rule="evenodd" d="M4.65277 0.256408C5.10003 0.256408 6.4418 0.122126 7.02325 2.04684C7.38106 3.3449 8.00723 5.44866 8.85703 8.3581H9.21487C10.1094 5.26961 10.7356 3.16586 11.0486 2.04684C11.6301 0.122126 13.0614 0.256408 13.5981 0.256408H17.9813V13.9532H13.5086V5.8515H13.1956L10.6909 13.9532H7.33637L4.83163 5.8515H4.51857V13.9532H0.0458984V0.256408H4.65277ZM24.4219 0.256408V8.3581H24.7798L27.8212 1.68876C28.4026 0.345935 29.6549 0.256408 29.6549 0.256408H33.9935V13.9532H29.4313V5.8515H29.0735L26.0768 12.5209C25.4954 13.8189 24.1536 13.9532 24.1536 13.9532H19.8151V0.256408H24.4219ZM49.8267 6.74671C49.2005 8.5819 47.1878 9.87996 44.9515 9.87996H40.121V13.9532H35.7825V6.74671H49.8267Z" fill="#8F9194"/>
<path fill-rule="evenodd" clip-rule="evenodd" d="M45.1753 0.256348H35.6038C35.8274 3.30008 38.4663 5.94097 41.1946 5.94097H50.1846C50.6766 3.3896 48.8876 0.256348 45.1753 0.256348Z" fill="#8F9194"/>
</svg>
