<svg width="79" height="18" viewBox="0 0 79 18" fill="none" xmlns="http://www.w3.org/2000/svg">
<mask id="mask0_221_760" style="mask-type:luminance" maskUnits="userSpaceOnUse" x="0" y="0" width="79" height="18">
<path d="M78.6742 0.868652H0V17.3406H78.6742V0.868652Z" fill="white"/>
</mask>
<g mask="url(#mask0_221_760)">
<path d="M5.41187 10.1341C5.6355 13.9387 8.85582 16.9825 12.8812 16.9825C15.207 16.9825 17.2197 15.953 18.6062 14.3416C18.6062 14.3416 18.3826 14.5206 18.0695 14.3416C18.0695 14.3416 8.00602 10.5369 5.94859 9.82075H5.76969C5.4566 9.86551 5.41187 10.0445 5.41187 10.1341ZM8.67692 3.73329L19.0982 8.56744C20.0375 9.05981 20.127 8.3884 20.127 8.3884C19.4561 4.98659 16.4146 2.47998 12.8365 2.47998C11.2263 2.47998 9.79509 2.88284 8.67692 3.73329Z" fill="#8F9194"/>
<path fill-rule="evenodd" clip-rule="evenodd" d="M19.0088 11.6114C19.0088 11.6114 2.9519 4.40488 2.77299 4.31536C2.281 4.13632 1.65483 4.53917 2.05737 5.0763C2.1021 5.12106 3.44389 7.00101 3.44389 7.00101C3.44389 7.00101 3.04136 6.32959 3.13081 6.10579C3.13081 5.92675 3.35444 5.79247 3.44389 5.88199C3.6228 5.92675 18.6957 12.4618 18.6957 12.4618C19.2324 12.6856 19.7244 12.5066 19.9033 12.1485C20.0822 11.8352 20.1269 11.4323 20.2164 11.119C20.0375 11.2533 19.7244 11.9695 19.0088 11.6114ZM20.1717 8.88096C20.1717 9.06 19.9928 9.82093 19.143 9.41808C18.9641 9.41808 1.02865 1.13735 0.760291 0.958307C0.447204 0.779264 -0.357872 1.00307 0.044668 1.85352L1.47592 4.18108C1.47592 4.18108 1.25229 3.64395 1.16284 3.15158C1.16284 2.97254 1.34174 2.83825 1.56537 2.92778C1.56537 2.92778 19.0535 10.6266 19.2324 10.6714C19.635 10.8504 20.1717 10.7162 20.2611 10.2685V9.77618C20.1717 9.41809 20.1717 9.14953 20.1717 8.88096ZM18.5168 13.2675C18.4721 13.2675 4.74096 7.49338 4.56206 7.49338C4.07007 7.31433 3.8017 7.71718 4.07006 8.20955C4.07006 8.25431 5.18823 9.64189 5.18823 9.64189C5.18823 9.64189 4.9646 9.23905 4.9646 9.10476C4.9646 8.92572 5.00933 8.70192 5.45659 8.88096C5.76968 9.06 18.1143 14.0284 18.1143 14.0284C18.5168 14.2075 18.8299 14.2075 19.0088 13.9837C19.2324 13.6704 19.5008 13.2675 19.6797 12.8647C19.4113 12.9989 19.0982 13.5361 18.5168 13.2675Z" fill="#8F9194"/>
<path d="M67.1347 7.31478V7.8519C67.3584 7.89666 67.5373 8.03096 67.6267 8.25476C67.6714 8.4338 67.8056 8.92616 67.8056 9.6871V11.8804H65.8824V9.6871C65.8824 8.97092 65.8824 8.47856 66.0613 8.25476C66.106 8.07572 66.2849 7.94142 66.5533 7.8519V7.31478H63.3777V7.8519C63.6013 7.8519 63.8697 8.03096 63.9144 8.25476C63.9591 8.4338 63.9591 8.92616 63.9591 9.64233V14.9689C63.9591 15.7298 63.9591 16.1774 63.9144 16.3564C63.7355 16.5802 63.6013 16.6698 63.3777 16.7593V17.2964H66.4638V16.6698C66.2402 16.625 66.0613 16.4907 65.9718 16.2669C65.9271 16.0879 65.7929 15.5955 65.7929 14.8346V12.4623H67.7162V14.8346C67.7162 15.5508 67.7162 16.0431 67.5373 16.2669C67.4925 16.446 67.3136 16.5803 67.0453 16.6698V17.2069H70.1314V16.6698C69.9078 16.6698 69.6394 16.4907 69.5947 16.2669C69.55 16.0879 69.4158 15.5955 69.4158 14.8793V9.64233C69.4158 8.8814 69.4158 8.4338 69.5947 8.25476C69.7736 8.03096 69.9078 7.8519 70.1314 7.8519V7.31478H67.1347ZM32.2479 2.83871L29.7879 12.2832L27.2833 2.92822H23.6604V3.46536H23.9735C24.1971 3.46536 24.4655 3.51012 24.6444 3.68916C24.8233 3.8682 24.868 4.00249 24.9575 4.18153C25.0022 4.36057 25.0022 4.85294 25.0022 5.56912V15.4165C24.9575 15.7298 24.8233 16.0879 24.7786 16.1774C24.7338 16.3564 24.5549 16.4907 24.376 16.6698C24.1971 16.7145 24.0629 16.8488 23.8393 16.8488H23.7946V17.3859H27.0149V16.8488C26.6124 16.8488 26.2993 16.8041 26.1204 16.5355C25.9415 16.3117 25.8073 16.0431 25.7178 15.6403V5.03198L28.9381 17.1621H29.3407L32.5163 5.21102V14.566C32.5163 15.2822 32.5163 15.7746 32.4715 15.9536C32.4268 16.1774 32.2926 16.3564 32.2479 16.446C32.069 16.625 31.8454 16.6698 31.577 16.6698H31.2639V17.2069H35.9155V16.6698H35.6024C35.3788 16.6698 35.1104 16.625 34.9315 16.4907C34.7526 16.3117 34.7079 16.1774 34.6184 15.9984C34.6184 15.8193 34.5737 15.3269 34.5737 14.6108V5.43483C34.5737 4.71865 34.5737 4.3158 34.6184 4.04724C34.6632 3.82344 34.7973 3.6444 34.8421 3.55488C35.021 3.37584 35.2446 3.33108 35.513 3.33108H35.826V2.79395L32.2479 2.83871ZM71.5627 2.83871V3.37583C71.8758 3.42059 72.0547 3.55488 72.0994 3.68916C72.1441 3.8682 72.2783 4.36058 72.2783 5.12151V14.7898C72.2783 15.5507 72.2783 15.9984 72.0994 16.1774C72.0547 16.4012 71.7863 16.4907 71.5627 16.5802V17.1174H74.7383V16.5802C74.4252 16.5355 74.2463 16.4012 74.2015 16.2669C74.1568 16.0879 74.0226 15.9536 74.0226 14.8346V13.2232L74.4252 12.5518L75.6328 15.2374C75.8117 15.7298 75.9459 15.9536 75.9459 16.1326C75.9459 16.1774 75.9459 16.3117 75.9012 16.446C75.8564 16.4907 75.7223 16.625 75.5881 16.625V17.1621H78.7637V16.625C78.54 16.625 78.3611 16.446 78.2269 16.2222C78.1822 16.0431 77.7349 15.4612 77.1982 14.0737L75.767 10.6718C75.767 10.6718 77.1535 8.52332 77.556 8.16523C77.735 7.98619 78.048 7.8519 78.2717 7.8519V7.31478H75.4986V7.8519C76.4379 7.8519 76.3931 8.61284 76.1695 9.06045C76.1248 9.23949 74.2015 12.1489 74.2015 12.1489V2.88347H71.5627V2.83871ZM37.2126 2.83871V6.73288H37.7493C37.794 5.70339 37.7493 4.80817 38.2413 4.27104C38.5544 3.8682 38.9569 3.59963 39.4936 3.59963H40.1645V14.4765C40.1645 15.1927 40.1645 15.685 40.1198 15.8641C40.0751 16.0879 39.9409 16.2669 39.8962 16.3564C39.7173 16.5355 39.4936 16.5802 39.2253 16.5802H38.9122V17.1174H43.5638V16.625H43.2507C43.027 16.625 42.7587 16.5803 42.5798 16.446C42.4009 16.2669 42.3562 16.1326 42.2667 15.9536C42.2667 15.7746 42.222 15.2822 42.222 14.566V3.68916H42.8929C43.5638 3.68916 43.9216 3.8682 44.1452 4.36057C44.5478 4.8977 44.4583 5.74815 44.6372 6.82241H45.1739V2.92822L37.2126 2.83871ZM50.0491 15.9536C49.8702 15.7746 49.8702 15.4612 49.8702 15.1927V7.89667C50.5411 7.89667 51.0779 7.94143 51.3462 8.21C51.6593 8.4338 52.0171 8.74713 52.1066 9.32901C52.5986 10.7166 52.5986 13.4918 52.1513 14.8793C51.9724 15.3717 51.7488 15.6403 51.4357 15.9984C51.1226 16.2222 50.7648 16.4012 50.4964 16.4012C50.3622 16.3117 50.1833 16.2222 50.0491 15.9536ZM46.5604 2.83871V3.37583C46.963 3.37583 47.2761 3.4206 47.455 3.55488C47.6339 3.73393 47.6786 3.8682 47.7681 4.04724C47.8128 4.22628 47.8128 4.58438 47.8128 5.30055V14.4317C47.8128 15.1927 47.8128 15.685 47.7681 15.8641C47.7233 16.0431 47.5892 16.1774 47.455 16.3564C47.2761 16.5355 47.0524 16.5355 46.5604 16.5355V17.0726H51.0778C52.3302 17.0726 53.2695 16.5803 53.9404 15.8193C55.0585 14.387 55.148 9.95566 53.9851 8.52331C53.0458 7.27001 51.3015 7.09098 49.8255 7.09098V3.68916H51.5698C52.2407 3.68916 52.5986 3.8682 52.8222 4.36057C53.2247 4.8977 53.1353 5.74815 53.3142 6.82241H53.8509V2.92822H46.5604V2.83871ZM58.0552 13.626C58.2788 13.0889 58.9497 12.1489 59.4865 11.6566V14.8793C59.2628 15.1927 58.9497 15.4165 58.7261 15.4165C58.0552 15.3717 57.5632 14.6555 58.0552 13.626ZM57.7868 7.35955C57.2949 7.58335 57.0265 8.03096 56.7581 8.47856C56.5345 8.97093 56.4451 9.37377 56.3556 9.95566C56.3556 10.7166 56.8476 11.1642 57.3843 11.1642C57.8763 11.1642 58.3236 10.7614 58.3236 10.2242C58.3236 10.0452 58.2789 9.9109 58.1447 9.73186C57.9658 9.50805 57.3843 8.97092 57.9658 8.12047C58.1447 7.94143 58.3683 7.80715 58.6814 7.80715C59.1734 7.80715 59.3523 8.20999 59.4417 8.52331C59.4865 8.70236 59.4865 9.19473 59.4865 9.95566V10.8956C58.0999 11.8356 57.2949 12.6861 56.8476 13.268C56.3109 13.8051 56.0872 14.387 56.0872 15.0584C56.0872 16.1774 56.7581 17.1621 57.6974 17.1621C58.6367 17.1621 59.1734 16.4907 59.4417 15.5508C59.4417 16.0879 59.6206 16.4907 59.8443 16.7593C60.0232 16.9831 60.3363 17.1621 60.6046 17.1621C60.873 17.1621 61.3203 17.1174 61.5439 16.8488C61.7675 16.625 62.0359 16.3117 62.2148 15.7298L61.8122 15.4165C61.6333 15.6403 61.4097 15.6403 61.4097 15.5955C61.365 15.5508 61.365 15.4165 61.365 15.3717V10.9852C61.365 9.86614 61.365 9.23949 61.3203 8.88141C61.1413 7.98619 60.6046 6.95669 59.2181 6.95669C58.6367 6.95669 58.2788 7.13574 57.7868 7.35955Z" fill="#8F9194"/>
</g>
</svg>
