<svg width="35" height="35" viewBox="0 0 35 35" fill="none" xmlns="http://www.w3.org/2000/svg">
<g filter="url(#filter0_b_145_1154)">
<rect x="0.5" y="0.5" width="34" height="34" rx="17" stroke="white"/>
</g>
<path d="M20.9768 20.2493L21.3509 19.882L20.482 19.0193L20.1096 19.3866L20.9768 20.2493ZM22.6053 19.7279L24.1732 20.5704L24.7598 19.5017L23.1927 18.6601L22.6053 19.7279ZM24.4743 22.2439L23.3093 23.3897L24.1765 24.2516L25.3415 23.1067L24.4743 22.2439ZM22.5988 23.7578C21.4091 23.868 18.3325 23.7699 14.9999 20.4958L14.1319 21.3577C17.768 24.931 21.2294 25.1062 22.7136 24.9692L22.5988 23.7578ZM14.9999 20.4958C11.824 17.3741 11.2973 14.7494 11.2316 13.6102L10.0026 13.6791C10.0846 15.1127 10.7369 18.0219 14.1319 21.3577L14.9999 20.4958ZM16.128 15.4848L16.3634 15.253L15.4971 14.391L15.2616 14.6221L16.128 15.4848ZM16.5505 12.3056L15.5168 10.9401L14.5314 11.6699L15.5652 13.0345L16.5505 12.3056ZM12.0373 10.6426L10.7492 11.9075L11.6172 12.7702L12.9045 11.5053L12.0373 10.6426ZM15.6948 15.0535C15.26 14.6221 15.26 14.6221 15.26 14.6237H15.2583L15.2559 14.627C15.2171 14.6661 15.1822 14.7087 15.1517 14.7543C15.1074 14.8192 15.0589 14.9043 15.0179 15.0121C14.918 15.2905 14.8931 15.5898 14.9457 15.8805C15.0557 16.5819 15.5446 17.5087 16.7966 18.7395L17.6647 17.8768C16.4923 16.7254 16.2133 16.0249 16.1616 15.694C16.137 15.5367 16.1624 15.4589 16.1698 15.4411C16.1739 15.4297 16.1756 15.4289 16.1698 15.4362C16.1626 15.4474 16.1543 15.458 16.1452 15.4678L16.137 15.4759C16.1343 15.4785 16.1316 15.4809 16.1288 15.4832L15.6948 15.0535ZM16.7966 18.7395C18.0494 19.9704 18.9921 20.4504 19.7026 20.5574C20.0661 20.6126 20.359 20.5688 20.5813 20.4869C20.7056 20.4414 20.8219 20.3768 20.9259 20.2955C20.94 20.2838 20.9537 20.2717 20.9669 20.259L20.9727 20.2542L20.9751 20.2517L20.9759 20.2501C20.9759 20.2501 20.9768 20.2493 20.5427 19.8179C20.1079 19.3866 20.1104 19.3858 20.1104 19.3858L20.112 19.3841L20.1137 19.3825L20.1186 19.3785L20.1268 19.3704C20.1366 19.3616 20.1471 19.3535 20.158 19.346C20.1662 19.3404 20.1637 19.3428 20.1522 19.3477C20.1317 19.355 20.0513 19.3801 19.8897 19.3558C19.55 19.3039 18.8362 19.0282 17.6647 17.8768L16.7966 18.7395ZM15.5168 10.9393C14.6799 9.83659 13.0358 9.66145 12.0373 10.6426L12.9045 11.5053C13.341 11.0764 14.1154 11.121 14.5314 11.6699L15.5168 10.9393ZM11.2324 13.611C11.216 13.3305 11.3465 13.0369 11.6172 12.771L10.7484 11.9083C10.3078 12.3413 9.96076 12.9542 10.0026 13.6791L11.2324 13.611ZM23.3093 23.3897C23.0845 23.6118 22.8416 23.7367 22.5996 23.7586L22.7136 24.9692C23.3166 24.9132 23.8097 24.6132 24.1773 24.2524L23.3093 23.3897ZM16.3634 15.253C17.1716 14.4591 17.2315 13.2048 16.5513 12.3064L15.566 13.0353C15.8966 13.4724 15.8474 14.0456 15.4962 14.3918L16.3634 15.253ZM24.174 20.5712C24.8443 20.9312 24.9485 21.7793 24.4751 22.2448L25.3431 23.1067C26.4425 22.0258 26.1037 20.2234 24.7606 19.5025L24.174 20.5712ZM21.3509 19.8828C21.6659 19.5731 22.1729 19.4968 22.6061 19.7287L23.1936 18.6609C22.3042 18.1825 21.2016 18.3147 20.4829 19.0201L21.3509 19.8828Z" fill="white"/>
<defs>
<filter id="filter0_b_145_1154" x="-50" y="-50" width="135" height="135" filterUnits="userSpaceOnUse" color-interpolation-filters="sRGB">
<feFlood flood-opacity="0" result="BackgroundImageFix"/>
<feGaussianBlur in="BackgroundImageFix" stdDeviation="25"/>
<feComposite in2="SourceAlpha" operator="in" result="effect1_backgroundBlur_145_1154"/>
<feBlend mode="normal" in="SourceGraphic" in2="effect1_backgroundBlur_145_1154" result="shape"/>
</filter>
</defs>
</svg>
