<svg width="17" height="17" viewBox="0 0 17 17" fill="none" xmlns="http://www.w3.org/2000/svg">
<path d="M13.1835 11.7802L16.582 15.178L15.4592 16.3008L12.0615 12.9022C10.7972 13.9157 9.22471 14.4669 7.60438 14.4646C3.66228 14.4646 0.462891 11.2652 0.462891 7.32313C0.462891 3.38103 3.66228 0.181641 7.60438 0.181641C11.5465 0.181641 14.7459 3.38103 14.7459 7.32313C14.7482 8.94346 14.1969 10.516 13.1835 11.7802ZM11.5917 11.1914C12.5988 10.1558 13.1612 8.76764 13.1589 7.32313C13.1589 4.25388 10.6728 1.76864 7.60438 1.76864C4.53513 1.76864 2.04989 4.25388 2.04989 7.32313C2.04989 10.3916 4.53513 12.8776 7.60438 12.8776C9.04889 12.8799 10.4371 12.3175 11.4727 11.3105L11.5917 11.1914Z" fill="white"/>
</svg>
