<svg width="21" height="15" viewBox="0 0 21 15" fill="none" xmlns="http://www.w3.org/2000/svg">
<path d="M10.5222 9.22507C11.0821 9.22507 11.6191 9.00162 12.015 8.60389C12.4109 8.20616 12.6334 7.66671 12.6334 7.10423C12.6334 6.54175 12.4109 6.00231 12.015 5.60458C11.6191 5.20684 11.0821 4.9834 10.5222 4.9834C9.96234 4.9834 9.42537 5.20684 9.02946 5.60458C8.63355 6.00231 8.41113 6.54175 8.41113 7.10423C8.41113 7.66671 8.63355 8.20616 9.02946 8.60389C9.42537 9.00162 9.96234 9.22507 10.5222 9.22507Z" stroke="white" stroke-width="1.5" stroke-linecap="round"/>
<path d="M20.0225 7.10371C18.0285 10.2754 14.447 13.4662 10.5225 13.4662C6.59791 13.4662 3.01641 10.2754 1.02246 7.10371C3.44918 4.09001 6.29179 0.741211 10.5225 0.741211C14.7531 0.741211 17.5957 4.09001 20.0225 7.10371Z" stroke="white" stroke-width="1.5" stroke-linecap="round"/>
</svg>
