<svg width="31" height="28" viewBox="0 0 31 28" fill="none" xmlns="http://www.w3.org/2000/svg">
<path fill-rule="evenodd" clip-rule="evenodd" d="M-0.00927734 27.2201H30.6732V11.8672H-0.00927734V27.2201Z" fill="#8F9194"/>
<path fill-rule="evenodd" clip-rule="evenodd" d="M14.6611 0.810546L13.1851 7.7037H11.3961L12.8721 0.810546H14.6611ZM22.1752 5.28662L23.1145 2.6905L23.6512 5.28662H22.1752ZM24.1432 7.7037H25.7981L24.3668 0.810546H22.8461C22.4883 0.810546 22.2199 0.989592 22.0857 1.30292L19.4021 7.7037H21.2807L21.6385 6.6742H23.9195L24.1432 7.7037ZM19.4916 5.46566C19.4916 3.63047 16.9869 3.54096 16.9869 2.73527C16.9869 2.4667 17.2106 2.24289 17.7473 2.15337C18.0156 2.10861 18.6865 2.10861 19.4916 2.4667L19.8047 0.989586C19.3574 0.855304 18.8207 0.67627 18.1498 0.67627C16.4055 0.67627 15.1531 1.61625 15.1531 2.95907C15.1531 3.94381 16.0476 4.52569 16.7185 4.83901C17.4342 5.1971 17.6578 5.37614 17.6578 5.68946C17.6578 6.13707 17.1211 6.36087 16.5844 6.36087C15.6898 6.36087 15.1531 6.13707 14.7506 5.91327L14.4375 7.43514C14.84 7.61419 15.6004 7.79322 16.4055 7.79322C18.284 7.83798 19.4916 6.898 19.4916 5.46566ZM12.1117 0.810546L9.20446 7.7037H7.32594L5.8947 2.19813C5.80525 1.84005 5.71579 1.75053 5.49215 1.57148C5.04489 1.34768 4.37398 1.12387 3.7478 0.989586L3.79255 0.810546H6.83395C7.23649 0.810546 7.54958 1.07911 7.63903 1.52672L8.39939 5.51042L10.2332 0.810546H12.1117Z" fill="#8F9194"/>
<path fill-rule="evenodd" clip-rule="evenodd" d="M7.14683 20.3715C7.32574 20.5058 7.68354 20.5953 7.99662 20.5953C8.39916 20.5953 8.62281 20.4163 8.62281 20.103C8.62281 19.8344 8.44389 19.7001 7.99662 19.5211C7.41518 19.2973 7.05737 19.0287 7.05737 18.4916C7.05737 17.9097 7.54936 17.5068 8.30971 17.5068C8.66753 17.5068 8.98063 17.5964 9.15953 17.6859L9.02536 18.223C8.89118 18.1782 8.66753 18.044 8.30971 18.044C7.90717 18.044 7.72827 18.2678 7.72827 18.4468C7.72827 18.7154 7.90718 18.8497 8.39917 19.0287C8.98062 19.2525 9.29371 19.5658 9.29371 20.0582C9.29371 20.6401 8.89116 21.0877 7.99662 21.0877C7.63881 21.0877 7.23628 20.9982 7.05737 20.8639L7.14683 20.3715Z" fill="#FFFFFE"/>
<path fill-rule="evenodd" clip-rule="evenodd" d="M11.7092 19.5209H10.4121V20.5504H11.888V21.0875H9.78589V17.5962H11.7986V18.1333H10.4121V19.0285H11.7092V19.5209Z" fill="#FFFFFE"/>
<path fill-rule="evenodd" clip-rule="evenodd" d="M14.8848 20.9979C14.7506 21.0874 14.3928 21.1321 13.9902 21.1321C12.8721 21.1321 12.2012 20.4607 12.2012 19.3865C12.2012 18.2227 13.0063 17.5513 14.0797 17.5513C14.4822 17.5513 14.7953 17.6408 14.9295 17.6856L14.7953 18.1779C14.6164 18.0884 14.3928 18.0436 14.1244 18.0436C13.4088 18.0436 12.9168 18.4912 12.9168 19.3417C12.9168 20.1026 13.3641 20.595 14.1244 20.595C14.3928 20.595 14.6611 20.5502 14.7953 20.4607L14.8848 20.9979Z" fill="#FFFFFE"/>
<path fill-rule="evenodd" clip-rule="evenodd" d="M16.0029 17.596V19.6103C16.0029 20.2817 16.2713 20.595 16.7185 20.595C17.1658 20.595 17.4342 20.2817 17.4342 19.6103V17.596H18.0603V19.5655C18.0603 20.6398 17.5236 21.1321 16.6738 21.1321C15.8688 21.1321 15.332 20.6845 15.332 19.5655V17.5513H16.0029V17.596Z" fill="#FFFFFE"/>
<path fill-rule="evenodd" clip-rule="evenodd" d="M19.4018 19.2074H19.7596C20.2069 19.2074 20.4305 18.9836 20.4305 18.6255C20.4305 18.2675 20.1622 18.0884 19.7596 18.0884C19.5807 18.0884 19.4465 18.0884 19.3571 18.1332V19.2074H19.4018ZM18.7756 17.6408C18.9993 17.596 19.3571 17.5513 19.7149 17.5513C20.2069 17.5513 20.5647 17.6408 20.7883 17.8198C20.9672 17.9989 21.1014 18.2227 21.1014 18.536C21.1014 18.9836 20.7883 19.2969 20.4752 19.3865C20.7436 19.476 20.8778 19.7445 20.9672 20.0579C21.1014 20.5055 21.1909 20.9083 21.2356 21.0426H20.5647C20.52 20.9531 20.4305 20.6398 20.3411 20.2369C20.2516 19.7893 20.0727 19.655 19.7149 19.6103H19.4018V21.0426H18.7756V17.6408Z" fill="#FFFFFE"/>
<path fill-rule="evenodd" clip-rule="evenodd" d="M23.6064 19.5209H22.2646V20.5504H23.7406V21.0875H21.6384V17.5962H23.6511V18.1333H22.2646V19.0285H23.5617L23.6064 19.5209Z" fill="#FFFFFE"/>
</svg>
