<svg width="55" height="18" viewBox="0 0 55 18" fill="none" xmlns="http://www.w3.org/2000/svg">
<path d="M16.4814 0.555506L11.964 11.9695L10.1302 2.25641C10.0407 1.76404 9.81712 1.3612 9.4593 1.04788C9.10149 0.734551 8.6095 0.555506 8.16223 0.555506H0.78233L0.692871 1.04788C2.16885 1.3612 3.60011 1.8088 4.98663 2.48021C5.25499 2.61449 5.52336 2.83831 5.70226 3.06211C5.88117 3.33067 5.97062 3.59924 6.01534 3.91256L9.4593 17.296H14.0214L21.0435 0.510742H16.4814V0.555506Z" fill="#8F9194"/>
<path d="M22.8772 0.555664L19.2991 17.2962H23.6376L27.2157 0.555664H22.8772Z" fill="#8F9194"/>
<path d="M32.8961 5.21079C32.8961 4.6289 33.4776 3.95749 34.7299 3.8232C36.2059 3.68892 37.6819 3.95749 39.0237 4.58414L39.784 1.04805C38.487 0.555679 37.1004 0.33187 35.7139 0.287109C31.4201 0.287109 28.4234 2.5699 28.3787 5.83744C28.3787 8.25452 30.5256 9.59734 32.1805 10.403C33.8354 11.2087 34.4616 11.7459 34.4168 12.462C34.4168 13.6258 33.075 14.0734 31.8227 14.1182C30.2572 14.1629 28.7365 13.8049 27.35 13.0439L26.5449 16.7143C28.0656 17.2962 29.7205 17.6095 31.3754 17.6095C35.9375 17.6095 38.8895 15.3715 38.9342 11.8801C38.9342 7.44882 32.8514 7.22502 32.8961 5.21079Z" fill="#8F9194"/>
<path d="M45.4197 11.3876L47.7007 5.12111L48.9978 11.3876H45.4197ZM47.0745 0.555506C46.672 0.555506 46.2695 0.689793 45.9564 0.868836C45.6433 1.09264 45.3749 1.40596 45.2407 1.76405L38.7554 17.296H43.3175L44.212 14.7894H49.7582L50.2949 17.296H54.2755L50.7421 0.510742L47.0745 0.555506Z" fill="#8F9194"/>
</svg>
