<svg width="49" height="50" viewBox="0 0 49 50" fill="none" xmlns="http://www.w3.org/2000/svg">
<rect opacity="0.2" x="0.5" y="0.5" width="48" height="49" rx="24" stroke="black"/>
<path d="M29.9843 19.7096L29.651 20.1559C29.2016 20.7426 28.7273 21.3037 28.1879 21.8138C27.4084 22.555 26.6195 23.1082 25.8507 23.4366L25.8399 20.4078L25.8089 20.2277C25.7285 19.878 25.5357 19.5666 25.2617 19.3438C24.9877 19.121 24.6486 18.9999 24.2993 19.0002C23.4593 19.0496 22.7494 19.6873 22.7494 20.5943V27.5653L22.4317 27.4649C19.6155 26.4909 18.0998 23.5816 18.0998 20.5943C18.0998 20.1715 17.9365 19.7661 17.6458 19.4671C17.3552 19.1682 16.9609 19.0002 16.5499 19.0002C16.1388 19.0002 15.7446 19.1682 15.454 19.4671C15.1633 19.7661 15 20.1715 15 20.5943C15 26.3841 18.8902 30.9559 24.2993 30.9559C24.7103 30.9559 25.1046 30.788 25.3952 30.489C25.6859 30.1901 25.8492 29.7846 25.8492 29.3618V26.8703L26.1746 26.9069C28.1213 27.1987 29.9548 28.6206 30.6631 30.0744C30.7501 30.2682 30.8742 30.4421 31.0278 30.5856C31.1814 30.7292 31.3615 30.8396 31.5573 30.9102C31.7532 30.9809 31.9609 31.0103 32.168 30.9968C32.3752 30.9833 32.5776 30.9272 32.7632 30.8317C32.9489 30.7362 33.114 30.6034 33.2488 30.441C33.3836 30.2787 33.4853 30.0901 33.5479 29.8866C33.6105 29.683 33.6326 29.4686 33.6131 29.2561C33.5936 29.0435 33.5328 28.8372 33.4343 28.6493C32.6934 27.1253 31.311 25.697 29.6092 24.7661C29.8425 24.5703 30.07 24.3673 30.2911 24.1571C31.1451 23.3562 31.9074 22.4577 32.5633 21.479C32.7914 21.1273 32.8743 20.6967 32.7938 20.2821C32.7133 19.8674 32.4759 19.5027 32.1339 19.268C31.7919 19.0334 31.3733 18.9481 30.9702 19.0309C30.567 19.1137 30.2124 19.3578 29.9843 19.7096Z" stroke="black" stroke-width="0.8"/>
</svg>
